M48
; DRILL file KiCad 10.0.1 date 2026-10-06T23:52:22
; FORMAT={-:-/ absolute / metric / decimal}
; #@! TF.CreationDate,2026-10-06T23:52:22+02:00
; #@! TF.GenerationSoftware,Kicad,Pcbnew,10.0.1
; #@! TF.FileFunction,MixedPlating,1,4
FMAT,2
METRIC
; #@! TA.AperFunction,Plated,PTH,ComponentDrill
T1C0.200
; #@! TA.AperFunction,Plated,PTH,ViaDrill
T2C0.300
; #@! TA.AperFunction,Plated,PTH,ComponentDrill
T3C0.800
; #@! TA.AperFunction,Plated,PTH,ComponentDrill
T4C0.920
; #@! TA.AperFunction,Plated,PTH,ComponentDrill
T5C1.000
; #@! TA.AperFunction,Plated,PTH,ComponentDrill
T6C1.100
; #@! TA.AperFunction,Plated,PTH,ComponentDrill
T7C1.200
; #@! TA.AperFunction,Plated,PTH,ComponentDrill
T8C2.200
; #@! TA.AperFunction,Plated,PTH,ComponentDrill
T9C2.330
%
G90
G05
T1
X63.76Y-75.1
X63.76Y-76.1
X63.76Y-77.1
X63.76Y-78.1
X64.76Y-75.1
X64.76Y-76.1
X64.76Y-77.1
X64.76Y-78.1
X65.76Y-75.1
X65.76Y-76.1
X65.76Y-77.1
X65.76Y-78.1
X66.76Y-75.1
X66.76Y-76.1
X66.76Y-77.1
X66.76Y-78.1
T2
X56.66Y-65.47
X58.17Y-85.26
X59.897Y-77.957
X61.72Y-77.04
X63.11Y-72.68
X64.385Y-80.36
X64.74Y-72.99
X66.04Y-73.02
X66.78Y-67.56
X66.98Y-69.2
X67.38Y-98.22
X67.48Y-73.42
X68.08Y-72.25
X68.37Y-74.64
X68.47Y-86.83
X68.82Y-82.15
X70.09Y-94.56
X71.14Y-88.61
X71.35Y-76.6
X72.68Y-86.77
X72.77Y-91.87
X72.99Y-119.32
X73.461Y-75.619
X73.73Y-113.76
X74.99Y-94.09
X75.88Y-89.14
X75.891Y-89.94
X76.102Y-95.42
X76.8Y-99.01
X78.48Y-106.51
X78.6Y-96.71
X79.52Y-95.48
X79.99Y-87.95
X80.18Y-101.55
X80.85Y-89.3
X81.04Y-86.84
X81.22Y-114.89
X81.45Y-110.5
X81.485Y-89.9
X81.85Y-96.77
X82.28Y-78.01
X83.63Y-85.87
X83.85Y-94.16
X89.54Y-75.56
X91.705Y-97.795
X91.9Y-85.43
X95.3Y-97.95
X95.43Y-107.02
X95.69Y-89.95
X96.71Y-114.67
X97.07Y-87.03
X97.76Y-102.02
X100.1Y-91.74
X103.09Y-84.68
X103.69Y-82.0
T3
X76.98Y-74.03
X80.48Y-74.03
T4
X60.057Y-106.05
X60.057Y-108.55
X62.057Y-106.05
X62.057Y-108.55
T5
X48.16Y-87.02
X48.16Y-89.56
X48.16Y-92.1
X50.7Y-87.02
X50.7Y-89.56
X50.7Y-92.1
X102.62Y-86.72
X102.62Y-89.26
X102.62Y-91.8
X102.62Y-95.88
X102.62Y-98.42
X102.62Y-100.96
X102.62Y-105.38
X102.62Y-107.92
X102.62Y-110.46
X102.62Y-114.61
X102.62Y-117.15
X102.62Y-119.69
T6
X50.023Y-71.945
X50.023Y-74.485
X50.023Y-77.025
X50.023Y-79.565
T7
X99.86Y-73.17
X99.86Y-76.67
T8
X48.5Y-120.0
X102.5Y-66.0
T9
X57.347Y-101.28
X57.347Y-113.32
M30
