%TF.GenerationSoftware,KiCad,Pcbnew,10.0.1*%
%TF.CreationDate,2026-10-06T23:52:21+02:00*%
%TF.ProjectId,ATmega_TMC2209_Driver,41546d65-6761-45f5-944d-43323230395f,rev?*%
%TF.SameCoordinates,Original*%
%TF.FileFunction,Copper,L1,Top*%
%TF.FilePolarity,Positive*%
%FSLAX46Y46*%
G04 Gerber Fmt 4.6, Leading zero omitted, Abs format (unit mm)*
G04 Created by KiCad (PCBNEW 10.0.1) date 2026-10-06 23:52:21*
%MOMM*%
%LPD*%
G01*
G04 APERTURE LIST*
G04 Aperture macros list*
%AMRoundRect*
0 Rectangle with rounded corners*
0 $1 Rounding radius*
0 $2 $3 $4 $5 $6 $7 $8 $9 X,Y pos of 4 corners*
0 Add a 4 corners polygon primitive as box body*
4,1,4,$2,$3,$4,$5,$6,$7,$8,$9,$2,$3,0*
0 Add four circle primitives for the rounded corners*
1,1,$1+$1,$2,$3*
1,1,$1+$1,$4,$5*
1,1,$1+$1,$6,$7*
1,1,$1+$1,$8,$9*
0 Add four rect primitives between the rounded corners*
20,1,$1+$1,$2,$3,$4,$5,0*
20,1,$1+$1,$4,$5,$6,$7,0*
20,1,$1+$1,$6,$7,$8,$9,0*
20,1,$1+$1,$8,$9,$2,$3,0*%
G04 Aperture macros list end*
%TA.AperFunction,SMDPad,CuDef*%
%ADD10RoundRect,0.250000X0.250000X0.475000X-0.250000X0.475000X-0.250000X-0.475000X0.250000X-0.475000X0*%
%TD*%
%TA.AperFunction,ComponentPad*%
%ADD11R,1.700000X1.700000*%
%TD*%
%TA.AperFunction,ComponentPad*%
%ADD12C,1.700000*%
%TD*%
%TA.AperFunction,SMDPad,CuDef*%
%ADD13RoundRect,0.250000X-0.950000X0.750000X-0.950000X-0.750000X0.950000X-0.750000X0.950000X0.750000X0*%
%TD*%
%TA.AperFunction,SMDPad,CuDef*%
%ADD14RoundRect,0.250000X-1.000000X-0.650000X1.000000X-0.650000X1.000000X0.650000X-1.000000X0.650000X0*%
%TD*%
%TA.AperFunction,SMDPad,CuDef*%
%ADD15RoundRect,0.250000X-0.132583X0.503814X-0.503814X0.132583X0.132583X-0.503814X0.503814X-0.132583X0*%
%TD*%
%TA.AperFunction,SMDPad,CuDef*%
%ADD16RoundRect,0.250000X0.450000X-0.262500X0.450000X0.262500X-0.450000X0.262500X-0.450000X-0.262500X0*%
%TD*%
%TA.AperFunction,SMDPad,CuDef*%
%ADD17RoundRect,0.250000X-0.450000X0.262500X-0.450000X-0.262500X0.450000X-0.262500X0.450000X0.262500X0*%
%TD*%
%TA.AperFunction,ComponentPad*%
%ADD18RoundRect,0.249999X-0.850001X0.850001X-0.850001X-0.850001X0.850001X-0.850001X0.850001X0.850001X0*%
%TD*%
%TA.AperFunction,ComponentPad*%
%ADD19C,2.200000*%
%TD*%
%TA.AperFunction,ComponentPad*%
%ADD20C,4.400000*%
%TD*%
%TA.AperFunction,SMDPad,CuDef*%
%ADD21RoundRect,0.250000X1.075000X-0.312500X1.075000X0.312500X-1.075000X0.312500X-1.075000X-0.312500X0*%
%TD*%
%TA.AperFunction,ComponentPad*%
%ADD22RoundRect,0.250000X0.600000X0.600000X-0.600000X0.600000X-0.600000X-0.600000X0.600000X-0.600000X0*%
%TD*%
%TA.AperFunction,ComponentPad*%
%ADD23C,3.500000*%
%TD*%
%TA.AperFunction,SMDPad,CuDef*%
%ADD24RoundRect,0.250000X-0.475000X0.250000X-0.475000X-0.250000X0.475000X-0.250000X0.475000X0.250000X0*%
%TD*%
%TA.AperFunction,SMDPad,CuDef*%
%ADD25RoundRect,0.243750X0.243750X0.456250X-0.243750X0.456250X-0.243750X-0.456250X0.243750X-0.456250X0*%
%TD*%
%TA.AperFunction,SMDPad,CuDef*%
%ADD26RoundRect,0.250000X0.512652X0.159099X0.159099X0.512652X-0.512652X-0.159099X-0.159099X-0.512652X0*%
%TD*%
%TA.AperFunction,SMDPad,CuDef*%
%ADD27RoundRect,0.250000X-0.512652X-0.159099X-0.159099X-0.512652X0.512652X0.159099X0.159099X0.512652X0*%
%TD*%
%TA.AperFunction,SMDPad,CuDef*%
%ADD28RoundRect,0.137500X0.521491X-0.327037X-0.327037X0.521491X-0.521491X0.327037X0.327037X-0.521491X0*%
%TD*%
%TA.AperFunction,SMDPad,CuDef*%
%ADD29RoundRect,0.137500X0.521491X0.327037X0.327037X0.521491X-0.521491X-0.327037X-0.327037X-0.521491X0*%
%TD*%
%TA.AperFunction,SMDPad,CuDef*%
%ADD30RoundRect,0.250000X-0.550000X1.050000X-0.550000X-1.050000X0.550000X-1.050000X0.550000X1.050000X0*%
%TD*%
%TA.AperFunction,SMDPad,CuDef*%
%ADD31RoundRect,0.150000X-0.150000X0.687500X-0.150000X-0.687500X0.150000X-0.687500X0.150000X0.687500X0*%
%TD*%
%TA.AperFunction,HeatsinkPad*%
%ADD32R,3.300000X2.100000*%
%TD*%
%TA.AperFunction,SMDPad,CuDef*%
%ADD33RoundRect,0.250000X0.262500X0.450000X-0.262500X0.450000X-0.262500X-0.450000X0.262500X-0.450000X0*%
%TD*%
%TA.AperFunction,ComponentPad*%
%ADD34RoundRect,0.250001X0.949999X-0.949999X0.949999X0.949999X-0.949999X0.949999X-0.949999X-0.949999X0*%
%TD*%
%TA.AperFunction,ComponentPad*%
%ADD35C,2.400000*%
%TD*%
%TA.AperFunction,SMDPad,CuDef*%
%ADD36RoundRect,0.243750X0.150260X-0.494975X0.494975X-0.150260X-0.150260X0.494975X-0.494975X0.150260X0*%
%TD*%
%TA.AperFunction,SMDPad,CuDef*%
%ADD37RoundRect,0.250000X-0.250000X-0.475000X0.250000X-0.475000X0.250000X0.475000X-0.250000X0.475000X0*%
%TD*%
%TA.AperFunction,SMDPad,CuDef*%
%ADD38RoundRect,0.250000X-0.159099X0.512652X-0.512652X0.159099X0.159099X-0.512652X0.512652X-0.159099X0*%
%TD*%
%TA.AperFunction,SMDPad,CuDef*%
%ADD39RoundRect,0.250000X0.275000X0.750000X-0.275000X0.750000X-0.275000X-0.750000X0.275000X-0.750000X0*%
%TD*%
%TA.AperFunction,SMDPad,CuDef*%
%ADD40RoundRect,0.375000X-0.625000X-0.375000X0.625000X-0.375000X0.625000X0.375000X-0.625000X0.375000X0*%
%TD*%
%TA.AperFunction,SMDPad,CuDef*%
%ADD41RoundRect,0.500000X-0.500000X-1.400000X0.500000X-1.400000X0.500000X1.400000X-0.500000X1.400000X0*%
%TD*%
%TA.AperFunction,SMDPad,CuDef*%
%ADD42RoundRect,0.062500X0.062500X-0.337500X0.062500X0.337500X-0.062500X0.337500X-0.062500X-0.337500X0*%
%TD*%
%TA.AperFunction,SMDPad,CuDef*%
%ADD43RoundRect,0.062500X0.337500X-0.062500X0.337500X0.062500X-0.337500X0.062500X-0.337500X-0.062500X0*%
%TD*%
%TA.AperFunction,HeatsinkPad*%
%ADD44C,0.500000*%
%TD*%
%TA.AperFunction,HeatsinkPad*%
%ADD45R,3.700000X3.700000*%
%TD*%
%TA.AperFunction,SMDPad,CuDef*%
%ADD46RoundRect,0.250000X0.475000X-0.250000X0.475000X0.250000X-0.475000X0.250000X-0.475000X-0.250000X0*%
%TD*%
%TA.AperFunction,SMDPad,CuDef*%
%ADD47RoundRect,0.250000X0.132583X-0.503814X0.503814X-0.132583X-0.132583X0.503814X-0.503814X0.132583X0*%
%TD*%
%TA.AperFunction,ComponentPad*%
%ADD48RoundRect,0.250000X-0.550000X-0.550000X0.550000X-0.550000X0.550000X0.550000X-0.550000X0.550000X0*%
%TD*%
%TA.AperFunction,ComponentPad*%
%ADD49C,1.600000*%
%TD*%
%TA.AperFunction,ViaPad*%
%ADD50C,0.600000*%
%TD*%
%TA.AperFunction,Conductor*%
%ADD51C,0.200000*%
%TD*%
%TA.AperFunction,Conductor*%
%ADD52C,0.700000*%
%TD*%
%TA.AperFunction,Conductor*%
%ADD53C,0.800000*%
%TD*%
%TA.AperFunction,Conductor*%
%ADD54C,1.500000*%
%TD*%
%TA.AperFunction,Conductor*%
%ADD55C,0.600000*%
%TD*%
%TA.AperFunction,Conductor*%
%ADD56C,0.500000*%
%TD*%
G04 APERTURE END LIST*
D10*
%TO.P,C15,1*%
%TO.N,GND*%
X72390000Y-77980000D03*
%TO.P,C15,2*%
%TO.N,Net-(U3-5VOUT)*%
X70490000Y-77980000D03*
%TD*%
D11*
%TO.P,J3,1,Pin_1_1*%
%TO.N,GND*%
X102620000Y-114610000D03*
D12*
%TO.P,J3,2,Pin_2_2*%
%TO.N,Net-(J3-Pin_2)*%
X102620000Y-117150000D03*
%TO.P,J3,3,Pin_3_3*%
%TO.N,VCC*%
X102620000Y-119690000D03*
%TD*%
D13*
%TO.P,Y1,1,1_1*%
%TO.N,Net-(U1-XTAL2{slash}PB7)*%
X91000000Y-89800000D03*
%TO.P,Y1,2,2_2*%
%TO.N,Net-(U1-XTAL1{slash}PB6)*%
X91000000Y-93500000D03*
%TD*%
D14*
%TO.P,D3,1,K_1*%
%TO.N,/MOTOR POWER SOURCE*%
X88970000Y-72860000D03*
%TO.P,D3,2,A_2*%
%TO.N,/EXTERNAL INPUT*%
X92970000Y-72860000D03*
%TD*%
D15*
%TO.P,R12,1*%
%TO.N,Net-(U3-~{PD}{slash}UART)*%
X83605235Y-87364765D03*
%TO.P,R12,2*%
%TO.N,PD_UART*%
X82314765Y-88655235D03*
%TD*%
D11*
%TO.P,J4,1,Pin_1_1*%
%TO.N,GND*%
X102620000Y-110460000D03*
D12*
%TO.P,J4,2,Pin_2_2*%
%TO.N,Net-(J4-Pin_2)*%
X102620000Y-107920000D03*
%TO.P,J4,3,Pin_3_3*%
%TO.N,VCC*%
X102620000Y-105380000D03*
%TD*%
D16*
%TO.P,R9,1*%
%TO.N,Net-(J6-Pin_2)*%
X99210000Y-99900000D03*
%TO.P,R9,2*%
%TO.N,DIGITAL_IN2*%
X99210000Y-98075000D03*
%TD*%
D10*
%TO.P,C18,1*%
%TO.N,VCC*%
X72340000Y-75440000D03*
%TO.P,C18,2*%
%TO.N,GND*%
X70440000Y-75440000D03*
%TD*%
D17*
%TO.P,R2,1*%
%TO.N,/UA+*%
X77490000Y-115947500D03*
%TO.P,R2,2*%
%TO.N,UART +*%
X77490000Y-117772500D03*
%TD*%
D18*
%TO.P,J7,1,Pin_1_1*%
%TO.N,B1*%
X50022500Y-71945000D03*
D19*
%TO.P,J7,2,Pin_2_2*%
%TO.N,A1*%
X50022500Y-74485000D03*
%TO.P,J7,3,Pin_3_3*%
%TO.N,A2*%
X50022500Y-77025000D03*
%TO.P,J7,4,Pin_4_4*%
%TO.N,B2*%
X50022500Y-79565000D03*
%TD*%
D20*
%TO.P,H4,1*%
%TO.N,N/C*%
X102500000Y-66000000D03*
%TD*%
D21*
%TO.P,R14,1*%
%TO.N,GND*%
X56550000Y-83380000D03*
%TO.P,R14,2*%
%TO.N,Net-(U3-BRA)*%
X56550000Y-80455000D03*
%TD*%
D22*
%TO.P,J2,1,VBUS_1*%
%TO.N,unconnected-(J2-VBUS-Pad1)*%
X62057500Y-108550000D03*
D12*
%TO.P,J2,2,D-_2*%
%TO.N,/USBD-*%
X62057500Y-106050000D03*
%TO.P,J2,3,D+_3*%
%TO.N,/USBD+*%
X60057500Y-106050000D03*
%TO.P,J2,4,GND_4*%
%TO.N,GND*%
X60057500Y-108550000D03*
D23*
%TO.P,J2,SH,Shield_SH*%
X57347500Y-113320000D03*
X57347500Y-101280000D03*
%TD*%
D24*
%TO.P,C9,1*%
%TO.N,VCC*%
X74740000Y-115872500D03*
%TO.P,C9,2*%
%TO.N,GND*%
X74740000Y-117772500D03*
%TD*%
D25*
%TO.P,D1,1,K_1*%
%TO.N,GND*%
X103545000Y-83410000D03*
%TO.P,D1,2,A_2*%
%TO.N,Net-(D1-A)*%
X101670000Y-83410000D03*
%TD*%
D24*
%TO.P,C12,1*%
%TO.N,GND*%
X96790000Y-107080000D03*
%TO.P,C12,2*%
%TO.N,ANALOG_IN4*%
X96790000Y-108980000D03*
%TD*%
D26*
%TO.P,C5,1*%
%TO.N,VCC*%
X79343502Y-100843502D03*
%TO.P,C5,2*%
%TO.N,GND*%
X78000000Y-99500000D03*
%TD*%
D27*
%TO.P,C1,1*%
%TO.N,GND*%
X69618249Y-85828249D03*
%TO.P,C1,2*%
%TO.N,Net-(U1-AREF)*%
X70961751Y-87171751D03*
%TD*%
D17*
%TO.P,R6,1*%
%TO.N,Net-(J3-Pin_2)*%
X99290000Y-116327500D03*
%TO.P,R6,2*%
%TO.N,ANALOG_IN3*%
X99290000Y-118152500D03*
%TD*%
D28*
%TO.P,U1,1,PD3_1*%
%TO.N,M1_DIR*%
X76463433Y-96894113D03*
%TO.P,U1,2,PD4_2*%
%TO.N,M1_STEP*%
X77029118Y-96328428D03*
%TO.P,U1,3,GND_3*%
%TO.N,GND*%
X77594804Y-95762742D03*
%TO.P,U1,4,VCC_4*%
%TO.N,VCC*%
X78160489Y-95197057D03*
%TO.P,U1,5,GND_5*%
%TO.N,GND*%
X78726175Y-94631371D03*
%TO.P,U1,6,VCC_6*%
%TO.N,VCC*%
X79291860Y-94065686D03*
%TO.P,U1,7,XTAL1/PB6_7*%
%TO.N,Net-(U1-XTAL1{slash}PB6)*%
X79857546Y-93500000D03*
%TO.P,U1,8,XTAL2/PB7_8*%
%TO.N,Net-(U1-XTAL2{slash}PB7)*%
X80423231Y-92934315D03*
D29*
%TO.P,U1,9,PD5_9*%
%TO.N,DIGITAL_IN2*%
X80423231Y-91007449D03*
%TO.P,U1,10,PD6_10*%
%TO.N,DIGITAL_IN1*%
X79857546Y-90441764D03*
%TO.P,U1,11,PD7_11*%
%TO.N,PD_UART*%
X79291860Y-89876078D03*
%TO.P,U1,12,PB0_12*%
%TO.N,EN*%
X78726175Y-89310393D03*
%TO.P,U1,13,PB1_13*%
%TO.N,unconnected-(U1-PB1-Pad13)*%
X78160489Y-88744707D03*
%TO.P,U1,14,PB2_14*%
%TO.N,SCK*%
X77594804Y-88179022D03*
%TO.P,U1,15,PB3_15*%
%TO.N,MOSI*%
X77029118Y-87613336D03*
%TO.P,U1,16,PB4_16*%
%TO.N,MISO*%
X76463433Y-87047651D03*
D28*
%TO.P,U1,17,PB5_17*%
%TO.N,DIAGNOSTIC*%
X74536567Y-87047651D03*
%TO.P,U1,18,AVCC_18*%
%TO.N,VCC*%
X73970882Y-87613336D03*
%TO.P,U1,19,ADC6_19*%
%TO.N,unconnected-(U1-ADC6-Pad19)*%
X73405196Y-88179022D03*
%TO.P,U1,20,AREF_20*%
%TO.N,Net-(U1-AREF)*%
X72839511Y-88744707D03*
%TO.P,U1,21,GND_21*%
%TO.N,GND*%
X72273825Y-89310393D03*
%TO.P,U1,22,ADC7_22*%
%TO.N,unconnected-(U1-ADC7-Pad22)*%
X71708140Y-89876078D03*
%TO.P,U1,23,PC0_23*%
%TO.N,ANALOG_IN3*%
X71142454Y-90441764D03*
%TO.P,U1,24,PC1_24*%
%TO.N,ANALOG_IN4*%
X70576769Y-91007449D03*
D29*
%TO.P,U1,25,PC2_25*%
%TO.N,unconnected-(U1-PC2-Pad25)*%
X70576769Y-92934315D03*
%TO.P,U1,26,PC3_26*%
%TO.N,unconnected-(U1-PC3-Pad26)*%
X71142454Y-93500000D03*
%TO.P,U1,27,PC4_27*%
%TO.N,unconnected-(U1-PC4-Pad27)*%
X71708140Y-94065686D03*
%TO.P,U1,28,PC5_28*%
%TO.N,unconnected-(U1-PC5-Pad28)*%
X72273825Y-94631371D03*
%TO.P,U1,29,~{RESET}/PC6_29*%
%TO.N,RESET*%
X72839511Y-95197057D03*
%TO.P,U1,30,PD0_30*%
%TO.N,UART -*%
X73405196Y-95762742D03*
%TO.P,U1,31,PD1_31*%
%TO.N,UART +*%
X73970882Y-96328428D03*
%TO.P,U1,32,PD2_32*%
%TO.N,unconnected-(U1-PD2-Pad32)*%
X74536567Y-96894113D03*
%TD*%
D24*
%TO.P,C10,1*%
%TO.N,VCC*%
X72240000Y-115872500D03*
%TO.P,C10,2*%
%TO.N,GND*%
X72240000Y-117772500D03*
%TD*%
D11*
%TO.P,J5,1,Pin_1_1*%
%TO.N,GND*%
X102620000Y-91800000D03*
D12*
%TO.P,J5,2,Pin_2_2*%
%TO.N,Net-(J5-Pin_2)*%
X102620000Y-89260000D03*
%TO.P,J5,3,Pin_3_3*%
%TO.N,VCC*%
X102620000Y-86720000D03*
%TD*%
D30*
%TO.P,C17,1*%
%TO.N,VCC*%
X85420000Y-74940000D03*
%TO.P,C17,2*%
%TO.N,GND*%
X85420000Y-78540000D03*
%TD*%
D20*
%TO.P,H3,1*%
%TO.N,N/C*%
X48500000Y-120000000D03*
%TD*%
D31*
%TO.P,U2,1,UD+_1*%
%TO.N,/USBD+*%
X80500000Y-107862500D03*
%TO.P,U2,2,UD-_2*%
%TO.N,/USBD-*%
X79500000Y-107862500D03*
%TO.P,U2,3,GND_3*%
%TO.N,GND*%
X78500000Y-107862500D03*
%TO.P,U2,4,~{DTR}_4*%
%TO.N,DTR*%
X77500000Y-107862500D03*
%TO.P,U2,5,~{CTS}_5*%
%TO.N,unconnected-(U2-~{CTS}-Pad5)*%
X76500000Y-107862500D03*
%TO.P,U2,6,~{RTS}_6*%
%TO.N,unconnected-(U2-~{RTS}-Pad6)*%
X76500000Y-113137500D03*
%TO.P,U2,7,VCC_7*%
%TO.N,VCC*%
X77500000Y-113137500D03*
%TO.P,U2,8,TXD_8*%
%TO.N,/UA+*%
X78500000Y-113137500D03*
%TO.P,U2,9,RXD_9*%
%TO.N,/UA-*%
X79500000Y-113137500D03*
%TO.P,U2,10,V3_10*%
%TO.N,Net-(U2-V3)*%
X80500000Y-113137500D03*
D32*
%TO.P,U2,11,GND_11*%
%TO.N,GND*%
X78500000Y-110500000D03*
%TD*%
D17*
%TO.P,R3,1*%
%TO.N,/UA-*%
X79990000Y-115947500D03*
%TO.P,R3,2*%
%TO.N,UART -*%
X79990000Y-117772500D03*
%TD*%
D33*
%TO.P,R10,1*%
%TO.N,VCC*%
X103545000Y-80410000D03*
%TO.P,R10,2*%
%TO.N,Net-(D1-A)*%
X101720000Y-80410000D03*
%TD*%
D34*
%TO.P,J8,1,Pin_1_1*%
%TO.N,GND*%
X99860000Y-76670000D03*
D35*
%TO.P,J8,2,Pin_2_2*%
%TO.N,/EXTERNAL INPUT*%
X99860000Y-73170000D03*
%TD*%
D17*
%TO.P,R7,1*%
%TO.N,Net-(J4-Pin_2)*%
X99202500Y-107167500D03*
%TO.P,R7,2*%
%TO.N,ANALOG_IN4*%
X99202500Y-108992500D03*
%TD*%
D24*
%TO.P,C11,1*%
%TO.N,GND*%
X96790000Y-116240000D03*
%TO.P,C11,2*%
%TO.N,ANALOG_IN3*%
X96790000Y-118140000D03*
%TD*%
D36*
%TO.P,D2,1,K_1*%
%TO.N,GND*%
X79327087Y-86532913D03*
%TO.P,D2,2,A_2*%
%TO.N,Net-(D2-A)*%
X80652913Y-85207087D03*
%TD*%
D37*
%TO.P,C20,1*%
%TO.N,GND*%
X70460000Y-72880000D03*
%TO.P,C20,2*%
%TO.N,/MOTOR POWER SOURCE*%
X72360000Y-72880000D03*
%TD*%
D17*
%TO.P,R8,1*%
%TO.N,Net-(J5-Pin_2)*%
X99570000Y-88555000D03*
%TO.P,R8,2*%
%TO.N,DIGITAL_IN1*%
X99570000Y-90380000D03*
%TD*%
D38*
%TO.P,C7,1*%
%TO.N,RESET*%
X71343502Y-97656498D03*
%TO.P,C7,2*%
%TO.N,DTR*%
X70000000Y-99000000D03*
%TD*%
D39*
%TO.P,SW1,1,1_1*%
%TO.N,GND*%
X99735000Y-81880000D03*
%TO.P,SW1,2,2_2*%
%TO.N,RESET*%
X95285000Y-81880000D03*
%TD*%
D21*
%TO.P,R13,1*%
%TO.N,GND*%
X60050000Y-83380000D03*
%TO.P,R13,2*%
%TO.N,Net-(U3-BRB)*%
X60050000Y-80455000D03*
%TD*%
D37*
%TO.P,C2,1*%
%TO.N,Net-(U1-XTAL1{slash}PB6)*%
X90100000Y-96000000D03*
%TO.P,C2,2*%
%TO.N,GND*%
X92000000Y-96000000D03*
%TD*%
D24*
%TO.P,C8,1*%
%TO.N,Net-(U2-V3)*%
X82490000Y-115872500D03*
%TO.P,C8,2*%
%TO.N,GND*%
X82490000Y-117772500D03*
%TD*%
D26*
%TO.P,C3,1*%
%TO.N,VCC*%
X81500000Y-98500000D03*
%TO.P,C3,2*%
%TO.N,GND*%
X80156498Y-97156498D03*
%TD*%
D40*
%TO.P,U4,1,GND_1*%
%TO.N,GND*%
X58500000Y-65540000D03*
%TO.P,U4,2,VO_2*%
%TO.N,VCC*%
X58500000Y-67840000D03*
D41*
X64800000Y-67840000D03*
D40*
%TO.P,U4,3,VI_3*%
%TO.N,/MOTOR POWER SOURCE*%
X58500000Y-70140000D03*
%TD*%
D11*
%TO.P,J1,1,MISO_1*%
%TO.N,MISO*%
X48160000Y-87020000D03*
D12*
%TO.P,J1,2,VCC_2*%
%TO.N,VCC*%
X50700000Y-87020000D03*
%TO.P,J1,3,SCK_3*%
%TO.N,SCK*%
X48160000Y-89560000D03*
%TO.P,J1,4,MOSI_4*%
%TO.N,MOSI*%
X50700000Y-89560000D03*
%TO.P,J1,5,~{RST}_5*%
%TO.N,RESET*%
X48160000Y-92100000D03*
%TO.P,J1,6,GND_6*%
%TO.N,GND*%
X50700000Y-92100000D03*
%TD*%
D42*
%TO.P,U3,1,OB2_1*%
%TO.N,B2*%
X63760000Y-79050000D03*
%TO.P,U3,2,~{EN}_2*%
%TO.N,EN*%
X64260000Y-79050000D03*
%TO.P,U3,3,GND_3*%
%TO.N,GND*%
X64760000Y-79050000D03*
%TO.P,U3,4,CPO_4*%
%TO.N,unconnected-(U3-CPO-Pad4)*%
X65260000Y-79050000D03*
%TO.P,U3,5,CPI_5*%
%TO.N,unconnected-(U3-CPI-Pad5)*%
X65760000Y-79050000D03*
%TO.P,U3,6,VCP_6*%
%TO.N,Net-(U3-VCP)*%
X66260000Y-79050000D03*
%TO.P,U3,7,SPREAD_7*%
%TO.N,GND*%
X66760000Y-79050000D03*
D43*
%TO.P,U3,8,5VOUT_8*%
%TO.N,Net-(U3-5VOUT)*%
X67710000Y-78100000D03*
%TO.P,U3,9,MS1/AD0_9*%
%TO.N,GND*%
X67710000Y-77600000D03*
%TO.P,U3,10,MS2/AD1_10*%
X67710000Y-77100000D03*
%TO.P,U3,11,DIAG_11*%
%TO.N,unconnected-(U3-DIAG-Pad11)*%
X67710000Y-76600000D03*
%TO.P,U3,12,INDEX_12*%
%TO.N,unconnected-(U3-INDEX-Pad12)*%
X67710000Y-76100000D03*
%TO.P,U3,13,CLK_13*%
%TO.N,GND*%
X67710000Y-75600000D03*
%TO.P,U3,14,~{PD}/UART_14*%
%TO.N,Net-(U3-~{PD}{slash}UART)*%
X67710000Y-75100000D03*
D42*
%TO.P,U3,15,VCC_IO_15*%
%TO.N,VCC*%
X66760000Y-74150000D03*
%TO.P,U3,16,STEP_16*%
%TO.N,M1_STEP*%
X66260000Y-74150000D03*
%TO.P,U3,17,VREF_17*%
%TO.N,VCC*%
X65760000Y-74150000D03*
%TO.P,U3,18,GND_18*%
%TO.N,GND*%
X65260000Y-74150000D03*
%TO.P,U3,19,DIR_19*%
%TO.N,M1_DIR*%
X64760000Y-74150000D03*
%TO.P,U3,20,STDBY_20*%
%TO.N,GND*%
X64260000Y-74150000D03*
%TO.P,U3,21,OA2_21*%
%TO.N,A2*%
X63760000Y-74150000D03*
D43*
%TO.P,U3,22,VS_22*%
%TO.N,/MOTOR POWER SOURCE*%
X62810000Y-75100000D03*
%TO.P,U3,23,BRA_23*%
%TO.N,Net-(U3-BRA)*%
X62810000Y-75600000D03*
%TO.P,U3,24,OA1_24*%
%TO.N,A1*%
X62810000Y-76100000D03*
%TO.P,U3,25,NC_25*%
%TO.N,GND*%
X62810000Y-76600000D03*
%TO.P,U3,26,OB1_26*%
%TO.N,B1*%
X62810000Y-77100000D03*
%TO.P,U3,27,BRB_27*%
%TO.N,Net-(U3-BRB)*%
X62810000Y-77600000D03*
%TO.P,U3,28,VS_28*%
%TO.N,/MOTOR POWER SOURCE*%
X62810000Y-78100000D03*
D44*
%TO.P,U3,29,GND_29*%
%TO.N,GND*%
X63760000Y-78100000D03*
X64760000Y-78100000D03*
X65760000Y-78100000D03*
X66760000Y-78100000D03*
X63760000Y-77100000D03*
X64760000Y-77100000D03*
X65760000Y-77100000D03*
X66760000Y-77100000D03*
D45*
X65260000Y-76600000D03*
D44*
X63760000Y-76100000D03*
X64760000Y-76100000D03*
X65760000Y-76100000D03*
X66760000Y-76100000D03*
X63760000Y-75100000D03*
X64760000Y-75100000D03*
X65760000Y-75100000D03*
X66760000Y-75100000D03*
%TD*%
D11*
%TO.P,J6,1,Pin_1_1*%
%TO.N,GND*%
X102620000Y-100960000D03*
D12*
%TO.P,J6,2,Pin_2_2*%
%TO.N,Net-(J6-Pin_2)*%
X102620000Y-98420000D03*
%TO.P,J6,3,Pin_3_3*%
%TO.N,VCC*%
X102620000Y-95880000D03*
%TD*%
D46*
%TO.P,C16,1*%
%TO.N,/MOTOR POWER SOURCE*%
X66390000Y-83400000D03*
%TO.P,C16,2*%
%TO.N,Net-(U3-VCP)*%
X66390000Y-81500000D03*
%TD*%
D47*
%TO.P,R11,1*%
%TO.N,DIAGNOSTIC*%
X77904765Y-85175235D03*
%TO.P,R11,2*%
%TO.N,Net-(D2-A)*%
X79195235Y-83884765D03*
%TD*%
D46*
%TO.P,C14,1*%
%TO.N,GND*%
X96710000Y-99900000D03*
%TO.P,C14,2*%
%TO.N,DIGITAL_IN2*%
X96710000Y-98000000D03*
%TD*%
D48*
%TO.P,C19,1*%
%TO.N,/MOTOR POWER SOURCE*%
X76980000Y-74030000D03*
D49*
%TO.P,C19,2*%
%TO.N,GND*%
X80480000Y-74030000D03*
%TD*%
D37*
%TO.P,C6,1*%
%TO.N,Net-(U1-XTAL2{slash}PB7)*%
X90050000Y-87000000D03*
%TO.P,C6,2*%
%TO.N,GND*%
X91950000Y-87000000D03*
%TD*%
D47*
%TO.P,R1,1*%
%TO.N,VCC*%
X68209251Y-97128249D03*
%TO.P,R1,2*%
%TO.N,RESET*%
X69499721Y-95837779D03*
%TD*%
D24*
%TO.P,C13,1*%
%TO.N,GND*%
X97070000Y-88480000D03*
%TO.P,C13,2*%
%TO.N,DIGITAL_IN1*%
X97070000Y-90380000D03*
%TD*%
D26*
%TO.P,C4,1*%
%TO.N,VCC*%
X83828249Y-96500000D03*
%TO.P,C4,2*%
%TO.N,GND*%
X82484747Y-95156498D03*
%TD*%
D50*
%TO.N,GND*%
X78480000Y-106510000D03*
X79520000Y-95480000D03*
X96710000Y-114670000D03*
X82280000Y-78010000D03*
X95430000Y-107020000D03*
X71140000Y-88610000D03*
X91705000Y-97795000D03*
X68470000Y-86830000D03*
X97760000Y-102020000D03*
X76800000Y-99010000D03*
X78600000Y-96710000D03*
X103090000Y-84680000D03*
X100100000Y-91740000D03*
X97070000Y-87030000D03*
X91900000Y-85430000D03*
X83850000Y-94160000D03*
X72990000Y-119320000D03*
X81040000Y-86840000D03*
X71350000Y-76600000D03*
X56660000Y-65470000D03*
X81220000Y-114890000D03*
X81450000Y-110500000D03*
X58170000Y-85260000D03*
%TO.N,VCC*%
X72680000Y-86770000D03*
X67480000Y-73420000D03*
X73730000Y-113760000D03*
X67380000Y-98220000D03*
X81850000Y-96770000D03*
X66040000Y-73020000D03*
X103690000Y-82000000D03*
X80180000Y-101550000D03*
X66780000Y-67560000D03*
X89540000Y-75560000D03*
X73460735Y-75619265D03*
%TO.N,Net-(U3-~{PD}{slash}UART)*%
X83630000Y-85870000D03*
X68370000Y-74640000D03*
%TO.N,DIGITAL_IN2*%
X95300000Y-97950000D03*
X81485489Y-89900000D03*
%TO.N,B1*%
X61720000Y-77040000D03*
%TO.N,A1*%
X59896765Y-77956765D03*
%TO.N,A2*%
X63110000Y-72680000D03*
%TO.N,B2*%
X64385304Y-80359826D03*
%TO.N,ANALOG_IN3*%
X72770000Y-91870000D03*
X74990000Y-94090000D03*
%TO.N,M1_DIR*%
X66980000Y-69200000D03*
X64740000Y-72990000D03*
%TO.N,M1_STEP*%
X76101748Y-95420000D03*
X68080000Y-72250000D03*
%TO.N,DIGITAL_IN1*%
X80850000Y-89300000D03*
X95690000Y-89950000D03*
%TO.N,EN*%
X79990000Y-87950000D03*
X68820000Y-82150000D03*
%TO.N,SCK*%
X75891267Y-89939923D03*
X70090000Y-94560000D03*
%TO.N,MOSI*%
X75880000Y-89140000D03*
%TD*%
%TO.N,GND*%
D51*
X67260000Y-75600000D02*
X66760000Y-76100000D01*
X64260000Y-74600000D02*
X64760000Y-75100000D01*
X100160000Y-91800000D02*
X100100000Y-91740000D01*
X57540000Y-85260000D02*
X58170000Y-85260000D01*
X65260000Y-74600000D02*
X65760000Y-75100000D01*
X72273825Y-89310393D02*
X71573432Y-88610000D01*
X91640000Y-97860000D02*
X91705000Y-97795000D01*
X56730000Y-65540000D02*
X56660000Y-65470000D01*
X69618249Y-85828249D02*
X69471751Y-85828249D01*
X74740000Y-117772500D02*
X74740000Y-119090000D01*
X72240000Y-118570000D02*
X72990000Y-119320000D01*
X102620000Y-100960000D02*
X97980000Y-100960000D01*
X103545000Y-83410000D02*
X103545000Y-84225000D01*
X58500000Y-65540000D02*
X56730000Y-65540000D01*
X102870000Y-84900000D02*
X103090000Y-84680000D01*
X81460000Y-110510000D02*
X81450000Y-110500000D01*
X71370000Y-73790000D02*
X71370000Y-76580000D01*
X99610000Y-82005000D02*
X99610000Y-84440000D01*
X65260000Y-74150000D02*
X65260000Y-74600000D01*
X77594804Y-95762742D02*
X77652742Y-95762742D01*
X97770000Y-100960000D02*
X96710000Y-99900000D01*
X97070000Y-88480000D02*
X97070000Y-86920000D01*
X59570000Y-85260000D02*
X58170000Y-85260000D01*
X67260000Y-77600000D02*
X66760000Y-77100000D01*
X57120000Y-83950000D02*
X57120000Y-84840000D01*
X64760000Y-79050000D02*
X64760000Y-78100000D01*
X70460000Y-72880000D02*
X71370000Y-73790000D01*
X67710000Y-77100000D02*
X66760000Y-77100000D01*
X78640000Y-96750000D02*
X78600000Y-96710000D01*
X91950000Y-87000000D02*
X91950000Y-85480000D01*
X74250000Y-119320000D02*
X74480000Y-119090000D01*
X71573432Y-88610000D02*
X71140000Y-88610000D01*
X96790000Y-114750000D02*
X96710000Y-114670000D01*
X102620000Y-91800000D02*
X100160000Y-91800000D01*
X63260000Y-76600000D02*
X63760000Y-76100000D01*
X60050000Y-83380000D02*
X60050000Y-84780000D01*
X56550000Y-83380000D02*
X57120000Y-83950000D01*
X78500000Y-110500000D02*
X81450000Y-110500000D01*
X64260000Y-74150000D02*
X64260000Y-74600000D01*
X79096498Y-97156498D02*
X78690000Y-96750000D01*
X96990000Y-86840000D02*
X97070000Y-86920000D01*
X78726175Y-94686175D02*
X79520000Y-95480000D01*
X80480000Y-77160000D02*
X81330000Y-78010000D01*
X69471751Y-85828249D02*
X68470000Y-86830000D01*
X60050000Y-84780000D02*
X59570000Y-85260000D01*
X72240000Y-117772500D02*
X72240000Y-118570000D01*
X78500000Y-107862500D02*
X78500000Y-106530000D01*
X77652742Y-95762742D02*
X78600000Y-96710000D01*
X91950000Y-85480000D02*
X91900000Y-85430000D01*
X71370000Y-76580000D02*
X71350000Y-76600000D01*
X72390000Y-77980000D02*
X72390000Y-77640000D01*
X99610000Y-84440000D02*
X100070000Y-84900000D01*
X74250000Y-119320000D02*
X72990000Y-119320000D01*
X74480000Y-119090000D02*
X74740000Y-119090000D01*
X77290000Y-99500000D02*
X76800000Y-99010000D01*
X78500000Y-106530000D02*
X78480000Y-106510000D01*
X82490000Y-117772500D02*
X81220000Y-116502500D01*
X81220000Y-116502500D02*
X81220000Y-114890000D01*
X92000000Y-96000000D02*
X92000000Y-97500000D01*
X70440000Y-75440000D02*
X70440000Y-75690000D01*
X62810000Y-76600000D02*
X63260000Y-76600000D01*
X79327087Y-86532913D02*
X80732913Y-86532913D01*
X80480000Y-74030000D02*
X80480000Y-77160000D01*
X66760000Y-79050000D02*
X66760000Y-78100000D01*
X78726175Y-94631371D02*
X78726175Y-94686175D01*
X96790000Y-114810000D02*
X96690000Y-114710000D01*
X97980000Y-100960000D02*
X97980000Y-101800000D01*
X92000000Y-97500000D02*
X91640000Y-97860000D01*
X82853502Y-95156498D02*
X83850000Y-94160000D01*
X81330000Y-78010000D02*
X82280000Y-78010000D01*
X95490000Y-107080000D02*
X95430000Y-107020000D01*
X96790000Y-116240000D02*
X96790000Y-114810000D01*
X57120000Y-84840000D02*
X57540000Y-85260000D01*
X67710000Y-77600000D02*
X67260000Y-77600000D01*
X97980000Y-101800000D02*
X97760000Y-102020000D01*
X80732913Y-86532913D02*
X81040000Y-86840000D01*
X82810000Y-78540000D02*
X82280000Y-78010000D01*
X96790000Y-114810000D02*
X96790000Y-114750000D01*
X78690000Y-96750000D02*
X78640000Y-96750000D01*
X70440000Y-75690000D02*
X71350000Y-76600000D01*
X96790000Y-107080000D02*
X95490000Y-107080000D01*
X82484747Y-95156498D02*
X82853502Y-95156498D01*
X78000000Y-99500000D02*
X77290000Y-99500000D01*
X103545000Y-84225000D02*
X103090000Y-84680000D01*
X100070000Y-84900000D02*
X102870000Y-84900000D01*
X72390000Y-77640000D02*
X71350000Y-76600000D01*
X85840000Y-78540000D02*
X82810000Y-78540000D01*
X67710000Y-75600000D02*
X67260000Y-75600000D01*
X97980000Y-100960000D02*
X97770000Y-100960000D01*
X99735000Y-81880000D02*
X99610000Y-82005000D01*
X80156498Y-97156498D02*
X79096498Y-97156498D01*
%TO.N,Net-(U3-5VOUT)*%
X70490000Y-77980000D02*
X70370000Y-78100000D01*
X70370000Y-78100000D02*
X67710000Y-78100000D01*
%TO.N,Net-(J3-Pin_2)*%
X101797500Y-116327500D02*
X102620000Y-117150000D01*
X99290000Y-116327500D02*
X101797500Y-116327500D01*
%TO.N,VCC*%
X68209251Y-97128249D02*
X68209251Y-97390749D01*
X72340000Y-75440000D02*
X73281470Y-75440000D01*
X81500000Y-98500000D02*
X82365000Y-97635000D01*
X103545000Y-81855000D02*
X103690000Y-82000000D01*
X58500000Y-67840000D02*
X61500000Y-67840000D01*
X80660000Y-95580000D02*
X81850000Y-96770000D01*
X74740000Y-114320000D02*
X74740000Y-114170000D01*
X61500000Y-67840000D02*
X64280000Y-65060000D01*
X79043432Y-96080000D02*
X79930000Y-96080000D01*
X74740000Y-114170000D02*
X74330000Y-113760000D01*
X103545000Y-80410000D02*
X103545000Y-81855000D01*
X66930000Y-64980000D02*
X67280000Y-65330000D01*
X66760000Y-74140000D02*
X67480000Y-73420000D01*
X73970882Y-87613336D02*
X73127546Y-86770000D01*
X64280000Y-65060000D02*
X66580000Y-65060000D01*
X74330000Y-113760000D02*
X73730000Y-113760000D01*
X65760000Y-73300000D02*
X66040000Y-73020000D01*
X64800000Y-67840000D02*
X66500000Y-67840000D01*
X65760000Y-74150000D02*
X65760000Y-73300000D01*
X81850000Y-96770000D02*
X82365000Y-97285000D01*
X66580000Y-65060000D02*
X66660000Y-64980000D01*
X72900000Y-113760000D02*
X73730000Y-113760000D01*
X77500000Y-113974999D02*
X77154999Y-114320000D01*
X72240000Y-115872500D02*
X72240000Y-114420000D01*
X88920000Y-74940000D02*
X89540000Y-75560000D01*
X78160489Y-95197057D02*
X79043432Y-96080000D01*
X79343502Y-100843502D02*
X79473502Y-100843502D01*
X68209251Y-97390749D02*
X67380000Y-98220000D01*
X83500000Y-96500000D02*
X83828249Y-96500000D01*
X80310000Y-95580000D02*
X80660000Y-95580000D01*
X77154999Y-114320000D02*
X74740000Y-114320000D01*
X66500000Y-67840000D02*
X66780000Y-67560000D01*
X79473502Y-100843502D02*
X80180000Y-101550000D01*
X73127546Y-86770000D02*
X72680000Y-86770000D01*
X67280000Y-67060000D02*
X66780000Y-67560000D01*
X85420000Y-74940000D02*
X88920000Y-74940000D01*
X82365000Y-97635000D02*
X83500000Y-96500000D01*
X67280000Y-65330000D02*
X67280000Y-67060000D01*
X66760000Y-74150000D02*
X66760000Y-74140000D01*
X72240000Y-114420000D02*
X72900000Y-113760000D01*
X77500000Y-113137500D02*
X77500000Y-113974999D01*
X73281470Y-75440000D02*
X73460735Y-75619265D01*
X80310000Y-95700000D02*
X80310000Y-95580000D01*
X79930000Y-96080000D02*
X80310000Y-95700000D01*
X66660000Y-64980000D02*
X66930000Y-64980000D01*
X80310000Y-95083826D02*
X79291860Y-94065686D01*
X74740000Y-115872500D02*
X74740000Y-114320000D01*
X82365000Y-97285000D02*
X82365000Y-97635000D01*
X80310000Y-95580000D02*
X80310000Y-95083826D01*
%TO.N,Net-(U1-XTAL2{slash}PB7)*%
X81500000Y-92150000D02*
X81207546Y-92150000D01*
X91000000Y-89800000D02*
X89900000Y-90900000D01*
X90050000Y-87000000D02*
X90050000Y-88850000D01*
X82750000Y-90900000D02*
X81500000Y-92150000D01*
X89900000Y-90900000D02*
X82750000Y-90900000D01*
X81207546Y-92150000D02*
X80423231Y-92934315D01*
X90050000Y-88850000D02*
X91000000Y-89800000D01*
%TO.N,Net-(U1-XTAL1{slash}PB6)*%
X81384916Y-92734916D02*
X81310000Y-92660000D01*
X88890000Y-91390000D02*
X91000000Y-93500000D01*
X80253546Y-93896000D02*
X80928794Y-93896000D01*
X81310000Y-92660000D02*
X81555686Y-92660000D01*
X81555686Y-92660000D02*
X82915686Y-91300000D01*
X91000000Y-95100000D02*
X90100000Y-96000000D01*
X82915686Y-91300000D02*
X88890000Y-91300000D01*
X88890000Y-91300000D02*
X88890000Y-91390000D01*
X81384916Y-93439878D02*
X81384916Y-92734916D01*
X80928794Y-93896000D02*
X81384916Y-93439878D01*
X91000000Y-93500000D02*
X91000000Y-95100000D01*
X79857546Y-93500000D02*
X80253546Y-93896000D01*
%TO.N,/MOTOR POWER SOURCE*%
D52*
X59050000Y-70690000D02*
X58500000Y-70140000D01*
X88390000Y-72280000D02*
X83160000Y-72280000D01*
D53*
X63730000Y-83400000D02*
X63300000Y-82970000D01*
D51*
X76980000Y-74030000D02*
X76980000Y-74040000D01*
D52*
X72360000Y-71380000D02*
X73050000Y-70690000D01*
X73050000Y-70690000D02*
X59050000Y-70690000D01*
X81570000Y-70690000D02*
X73050000Y-70690000D01*
D53*
X76980000Y-75818984D02*
X76980000Y-74030000D01*
D52*
X83160000Y-72280000D02*
X78730000Y-72280000D01*
X63300000Y-80980000D02*
X62520000Y-80200000D01*
D51*
X76980000Y-74040000D02*
X76690000Y-74330000D01*
D52*
X62520000Y-78390000D02*
X62520000Y-80200000D01*
X58500000Y-70140000D02*
X58500000Y-71250000D01*
D53*
X63300000Y-80980000D02*
X63300000Y-82970000D01*
D52*
X58500000Y-71250000D02*
X62175000Y-74925000D01*
X62810000Y-78100000D02*
X62520000Y-78390000D01*
X83160000Y-72280000D02*
X81570000Y-70690000D01*
D53*
X66390000Y-83400000D02*
X69398984Y-83400000D01*
D52*
X58500000Y-70140000D02*
X58500000Y-70790000D01*
D53*
X63730000Y-83400000D02*
X66390000Y-83400000D01*
D52*
X72360000Y-72880000D02*
X72360000Y-71380000D01*
X78730000Y-72280000D02*
X76980000Y-74030000D01*
X88970000Y-72860000D02*
X88390000Y-72280000D01*
D53*
X69398984Y-83400000D02*
X76980000Y-75818984D01*
D52*
X62175000Y-74925000D02*
X62810000Y-74925000D01*
%TO.N,/EXTERNAL INPUT*%
D54*
X99550000Y-72860000D02*
X99860000Y-73170000D01*
D52*
X92970000Y-72860000D02*
X99550000Y-72860000D01*
%TO.N,Net-(U3-~{PD}{slash}UART)*%
D51*
X68370000Y-74640000D02*
X68170000Y-74640000D01*
X83605235Y-85894765D02*
X83630000Y-85870000D01*
X68170000Y-74640000D02*
X67710000Y-75100000D01*
X83605235Y-87364765D02*
X83605235Y-85894765D01*
%TO.N,PD_UART*%
X80512703Y-88655235D02*
X79291860Y-89876078D01*
X82314765Y-88655235D02*
X80512703Y-88655235D01*
%TO.N,Net-(J4-Pin_2)*%
X101867500Y-107167500D02*
X102620000Y-107920000D01*
X99202500Y-107167500D02*
X101867500Y-107167500D01*
%TO.N,Net-(J6-Pin_2)*%
X99210000Y-99900000D02*
X101140000Y-99900000D01*
X101140000Y-99900000D02*
X102620000Y-98420000D01*
%TO.N,DIGITAL_IN2*%
X95300000Y-97950000D02*
X96660000Y-97950000D01*
X96710000Y-98000000D02*
X99135000Y-98000000D01*
X99135000Y-98000000D02*
X99210000Y-98075000D01*
X80423231Y-90962258D02*
X81485489Y-89900000D01*
X96660000Y-97950000D02*
X96710000Y-98000000D01*
X80423231Y-91007449D02*
X80423231Y-90962258D01*
%TO.N,/UA+*%
X78500000Y-114937500D02*
X78500000Y-113137500D01*
X77490000Y-115947500D02*
X78500000Y-114937500D01*
%TO.N,UART +*%
X73432498Y-96866812D02*
X72866812Y-96866812D01*
X72782843Y-97177157D02*
X73412843Y-97807157D01*
X72866812Y-96866812D02*
X72782843Y-96950781D01*
X84360000Y-119295685D02*
X84005685Y-119650000D01*
X73970882Y-96328428D02*
X73432498Y-96866812D01*
X72782843Y-96950781D02*
X72782843Y-97177157D01*
X84360000Y-107604745D02*
X84360000Y-119295685D01*
X74955255Y-98200000D02*
X84360000Y-107604745D01*
X80235755Y-119650000D02*
X79367500Y-119650000D01*
X73412843Y-97807157D02*
X73805686Y-98200000D01*
X73805686Y-98200000D02*
X74955255Y-98200000D01*
X84005685Y-119650000D02*
X81540397Y-119650000D01*
X79367500Y-119650000D02*
X78777346Y-119059846D01*
X78777346Y-119059846D02*
X77490000Y-117772500D01*
X80355194Y-119650000D02*
X81540397Y-119650000D01*
X80355194Y-119650000D02*
X80235755Y-119650000D01*
%TO.N,B1*%
X61780000Y-77100000D02*
X61720000Y-77040000D01*
D55*
X62810000Y-77100000D02*
X61780000Y-77100000D01*
%TO.N,A1*%
X61753530Y-76100000D02*
X62810000Y-76100000D01*
D56*
X61599339Y-76100000D02*
X61753530Y-76100000D01*
X59896765Y-77802574D02*
X61599339Y-76100000D01*
%TO.N,A2*%
D55*
X63760000Y-74150000D02*
X63760000Y-73330000D01*
X63760000Y-73330000D02*
X63110000Y-72680000D01*
%TO.N,B2*%
D56*
X63760000Y-79734522D02*
X64385304Y-80359826D01*
X63760000Y-79050000D02*
X63760000Y-79734522D01*
%TO.N,Net-(U3-BRA)*%
D51*
X56550000Y-80455000D02*
X61405000Y-75600000D01*
X61405000Y-75600000D02*
X62810000Y-75600000D01*
%TO.N,/USBD-*%
X61282501Y-101888000D02*
X61282501Y-105275001D01*
X80275000Y-105853198D02*
X75776802Y-101355000D01*
X61282501Y-105275001D02*
X62057500Y-106050000D01*
X79500000Y-107862500D02*
X79900000Y-107462500D01*
X80275000Y-106725000D02*
X80275000Y-105853198D01*
X79900000Y-107462500D02*
X79900000Y-106984448D01*
X61815501Y-101355000D02*
X61282501Y-101888000D01*
X75776802Y-101355000D02*
X61815501Y-101355000D01*
X79900000Y-106984448D02*
X80159448Y-106725000D01*
X80159448Y-106725000D02*
X80275000Y-106725000D01*
%TO.N,/USBD+*%
X60832499Y-105275001D02*
X60057500Y-106050000D01*
X80725000Y-105666802D02*
X75963198Y-100905000D01*
X80725000Y-107273897D02*
X80725000Y-105666802D01*
X60832499Y-101701606D02*
X60832499Y-105275001D01*
X80500000Y-107862500D02*
X80500000Y-107498897D01*
X80500000Y-107498897D02*
X80725000Y-107273897D01*
X61629105Y-100905000D02*
X60832499Y-101701606D01*
X75963198Y-100905000D02*
X61629105Y-100905000D01*
%TO.N,Net-(D1-A)*%
X101720000Y-80410000D02*
X101720000Y-83360000D01*
X101720000Y-83360000D02*
X101670000Y-83410000D01*
%TO.N,ANALOG_IN4*%
X69894201Y-87107929D02*
X70897929Y-86104201D01*
X96110000Y-80895256D02*
X96110000Y-82864744D01*
X74012769Y-86104201D02*
X79536970Y-80580000D01*
X99190000Y-108980000D02*
X99202500Y-108992500D01*
X92460000Y-107680000D02*
X93820000Y-109040000D01*
X79536970Y-80580000D02*
X95794744Y-80580000D01*
X70897929Y-86104201D02*
X74012769Y-86104201D01*
X70576769Y-91007449D02*
X69894201Y-90324881D01*
X93820000Y-109040000D02*
X94270000Y-109040000D01*
X96110000Y-82864744D02*
X92800000Y-86174744D01*
X95794744Y-80580000D02*
X96110000Y-80895256D01*
X92800000Y-86174744D02*
X92800000Y-107340000D01*
X94270000Y-109040000D02*
X94330000Y-108980000D01*
X94330000Y-108980000D02*
X96790000Y-108980000D01*
X92800000Y-107340000D02*
X92460000Y-107680000D01*
X96790000Y-108980000D02*
X99190000Y-108980000D01*
X69894201Y-90324881D02*
X69894201Y-87107929D01*
%TO.N,Net-(U1-AREF)*%
X70961751Y-87171751D02*
X72534707Y-88744707D01*
X72534707Y-88744707D02*
X72839511Y-88744707D01*
%TO.N,ANALOG_IN3*%
X74990000Y-94090000D02*
X75501748Y-94601748D01*
X71341764Y-90441764D02*
X71142454Y-90441764D01*
X75501748Y-94601748D02*
X75501748Y-97851748D01*
X72770000Y-91870000D02*
X71341764Y-90441764D01*
X96790000Y-118140000D02*
X99277500Y-118140000D01*
X91439314Y-112789314D02*
X91439314Y-111489744D01*
X76060000Y-98410000D02*
X77810000Y-98410000D01*
X91439314Y-111489744D02*
X78084785Y-98135215D01*
X75501748Y-97851748D02*
X76060000Y-98410000D01*
X96790000Y-118140000D02*
X91439314Y-112789314D01*
X77810000Y-98410000D02*
X78084785Y-98135215D01*
%TO.N,M1_DIR*%
X98202500Y-106670256D02*
X93280000Y-101747756D01*
X93280000Y-86840000D02*
X96510000Y-83610000D01*
X78160041Y-97644785D02*
X90320256Y-109805000D01*
X77214105Y-97644785D02*
X78160041Y-97644785D01*
X99887244Y-109805000D02*
X100202500Y-109489744D01*
X98517756Y-107980000D02*
X98202500Y-107664744D01*
X102630000Y-77450000D02*
X102630000Y-72100000D01*
X100202500Y-109489744D02*
X100202500Y-108295256D01*
X98202500Y-107664744D02*
X98202500Y-106670256D01*
X99887244Y-107980000D02*
X98517756Y-107980000D01*
X76463433Y-96894113D02*
X77214105Y-97644785D01*
X97040000Y-78880000D02*
X101200000Y-78880000D01*
X102630000Y-72100000D02*
X99730000Y-69200000D01*
X90320256Y-109805000D02*
X99887244Y-109805000D01*
X64740000Y-72990000D02*
X64740000Y-74130000D01*
X64740000Y-74130000D02*
X64760000Y-74150000D01*
X93280000Y-101747756D02*
X93280000Y-86840000D01*
X97040000Y-78890000D02*
X97040000Y-78880000D01*
X96510000Y-83610000D02*
X96510000Y-79540000D01*
X100202500Y-108295256D02*
X99887244Y-107980000D01*
X99730000Y-69200000D02*
X66980000Y-69200000D01*
X101200000Y-78880000D02*
X102630000Y-77450000D01*
X96450000Y-79480000D02*
X97040000Y-78890000D01*
X96510000Y-79540000D02*
X96450000Y-79480000D01*
%TO.N,M1_STEP*%
X67745614Y-72250000D02*
X68080000Y-72250000D01*
X76120690Y-95420000D02*
X77029118Y-96328428D01*
X66260000Y-73735614D02*
X67745614Y-72250000D01*
X76101748Y-95420000D02*
X76120690Y-95420000D01*
X66260000Y-74150000D02*
X66260000Y-73735614D01*
%TO.N,DIGITAL_IN1*%
X95690000Y-89950000D02*
X96640000Y-89950000D01*
X97070000Y-90380000D02*
X99570000Y-90380000D01*
X79857546Y-90292454D02*
X80850000Y-89300000D01*
X79857546Y-90441764D02*
X79857546Y-90292454D01*
X96640000Y-89950000D02*
X97070000Y-90380000D01*
%TO.N,EN*%
X79990000Y-88046568D02*
X78726175Y-89310393D01*
X64985304Y-81605048D02*
X65680256Y-82300000D01*
X64985304Y-80111297D02*
X64985304Y-81605048D01*
X64260000Y-79668836D02*
X64350990Y-79759826D01*
X79990000Y-87950000D02*
X79990000Y-88046568D01*
X64350990Y-79759826D02*
X64633833Y-79759826D01*
X64260000Y-79050000D02*
X64260000Y-79668836D01*
X68670000Y-82300000D02*
X68820000Y-82150000D01*
X65680256Y-82300000D02*
X68670000Y-82300000D01*
X64633833Y-79759826D02*
X64985304Y-80111297D01*
%TO.N,SCK*%
X48160000Y-89560000D02*
X49540978Y-88179022D01*
X49540978Y-88179022D02*
X65554068Y-88179022D01*
X77594804Y-88273725D02*
X77594804Y-88179022D01*
X65554068Y-88179022D02*
X65554068Y-91401824D01*
X75891267Y-89939923D02*
X75928606Y-89939923D01*
X66027500Y-91875256D02*
X66027500Y-93244744D01*
X75928606Y-89939923D02*
X77594804Y-88273725D01*
X65554068Y-91401824D02*
X66027500Y-91875256D01*
X67342756Y-94560000D02*
X70090000Y-94560000D01*
X66027500Y-93244744D02*
X67342756Y-94560000D01*
%TO.N,MOSI*%
X77029118Y-87613336D02*
X75880000Y-88762454D01*
X75880000Y-88762454D02*
X75880000Y-89140000D01*
%TO.N,MISO*%
X73370000Y-92118529D02*
X73018529Y-92470000D01*
X71082332Y-91969134D02*
X69909866Y-91969134D01*
X71583198Y-92470000D02*
X71082332Y-91969134D01*
X69909866Y-91969134D02*
X63810732Y-85870000D01*
X49310000Y-85870000D02*
X48160000Y-87020000D01*
X73018529Y-92470000D02*
X71583198Y-92470000D01*
X63810732Y-85870000D02*
X49310000Y-85870000D01*
X76463433Y-87047651D02*
X73370000Y-90141084D01*
X73370000Y-90141084D02*
X73370000Y-92118529D01*
%TO.N,DIAGNOSTIC*%
X77904765Y-85175235D02*
X76408983Y-85175235D01*
X76408983Y-85175235D02*
X74536567Y-87047651D01*
%TO.N,RESET*%
X76063938Y-91972630D02*
X72839511Y-95197057D01*
X90911860Y-81880000D02*
X80819230Y-91972630D01*
X69499721Y-95837779D02*
X71318440Y-97656498D01*
X71343502Y-96693066D02*
X71343502Y-97656498D01*
X80819230Y-91972630D02*
X76063938Y-91972630D01*
X48160000Y-92100000D02*
X51897779Y-95837779D01*
X95285000Y-81880000D02*
X90911860Y-81880000D01*
X72839511Y-95197057D02*
X71343502Y-96693066D01*
X71318440Y-97656498D02*
X71343502Y-97656498D01*
X51897779Y-95837779D02*
X69499721Y-95837779D01*
%TO.N,UART -*%
X72800000Y-98420000D02*
X72750000Y-98470000D01*
X81467500Y-119250000D02*
X81540397Y-119250000D01*
X72750000Y-98470000D02*
X72880000Y-98600000D01*
X72280000Y-97240000D02*
X72800000Y-97760000D01*
X83840000Y-107650431D02*
X83840000Y-119250000D01*
X80027346Y-117809846D02*
X79990000Y-117772500D01*
X81111347Y-118893847D02*
X81467500Y-119250000D01*
X72280000Y-96887938D02*
X72280000Y-97240000D01*
X73405196Y-95762742D02*
X72280000Y-96887938D01*
X72800000Y-97760000D02*
X72800000Y-98420000D01*
X81111347Y-118893847D02*
X81051627Y-118834127D01*
X83840000Y-119250000D02*
X81540397Y-119250000D01*
X72880000Y-98600000D02*
X74789569Y-98600000D01*
X74789569Y-98600000D02*
X83840000Y-107650431D01*
X81051627Y-118834127D02*
X80027346Y-117809846D01*
%TO.N,Net-(J5-Pin_2)*%
X101915000Y-88555000D02*
X102620000Y-89260000D01*
X99570000Y-88555000D02*
X101915000Y-88555000D01*
%TO.N,DTR*%
X77580000Y-109000000D02*
X77500000Y-108920000D01*
X80840552Y-109000000D02*
X77580000Y-109000000D01*
X81125000Y-105501117D02*
X81125000Y-108715552D01*
X74623883Y-99000000D02*
X81125000Y-105501117D01*
X81125000Y-108715552D02*
X80840552Y-109000000D01*
X70000000Y-99000000D02*
X74623883Y-99000000D01*
X77500000Y-108920000D02*
X77500000Y-107862500D01*
%TO.N,/UA-*%
X79990000Y-115947500D02*
X79500000Y-115457500D01*
X79500000Y-115457500D02*
X79500000Y-113137500D01*
%TO.N,Net-(U2-V3)*%
X82490000Y-115127500D02*
X82490000Y-115872500D01*
X80500000Y-113137500D02*
X82490000Y-115127500D01*
%TO.N,Net-(D2-A)*%
X79330591Y-83884765D02*
X79195235Y-83884765D01*
X80652913Y-85207087D02*
X79330591Y-83884765D01*
%TO.N,Net-(U3-BRB)*%
X60050000Y-79892500D02*
X62342500Y-77600000D01*
X60050000Y-80455000D02*
X60050000Y-79892500D01*
X62342500Y-77600000D02*
X62810000Y-77600000D01*
%TO.N,Net-(U3-VCP)*%
X66260000Y-81370000D02*
X66260000Y-79050000D01*
X66390000Y-81500000D02*
X66260000Y-81370000D01*
%TD*%
M02*
