%TF.GenerationSoftware,KiCad,Pcbnew,10.0.1*%
%TF.CreationDate,2026-10-06T23:52:21+02:00*%
%TF.ProjectId,ATmega_TMC2209_Driver,41546d65-6761-45f5-944d-43323230395f,rev?*%
%TF.SameCoordinates,Original*%
%TF.FileFunction,Copper,L4,Bot*%
%TF.FilePolarity,Positive*%
%FSLAX46Y46*%
G04 Gerber Fmt 4.6, Leading zero omitted, Abs format (unit mm)*
G04 Created by KiCad (PCBNEW 10.0.1) date 2026-10-06 23:52:21*
%MOMM*%
%LPD*%
G01*
G04 APERTURE LIST*
G04 Aperture macros list*
%AMRoundRect*
0 Rectangle with rounded corners*
0 $1 Rounding radius*
0 $2 $3 $4 $5 $6 $7 $8 $9 X,Y pos of 4 corners*
0 Add a 4 corners polygon primitive as box body*
4,1,4,$2,$3,$4,$5,$6,$7,$8,$9,$2,$3,0*
0 Add four circle primitives for the rounded corners*
1,1,$1+$1,$2,$3*
1,1,$1+$1,$4,$5*
1,1,$1+$1,$6,$7*
1,1,$1+$1,$8,$9*
0 Add four rect primitives between the rounded corners*
20,1,$1+$1,$2,$3,$4,$5,0*
20,1,$1+$1,$4,$5,$6,$7,0*
20,1,$1+$1,$6,$7,$8,$9,0*
20,1,$1+$1,$8,$9,$2,$3,0*%
G04 Aperture macros list end*
%TA.AperFunction,ComponentPad*%
%ADD10R,1.700000X1.700000*%
%TD*%
%TA.AperFunction,ComponentPad*%
%ADD11C,1.700000*%
%TD*%
%TA.AperFunction,ComponentPad*%
%ADD12RoundRect,0.249999X-0.850001X0.850001X-0.850001X-0.850001X0.850001X-0.850001X0.850001X0.850001X0*%
%TD*%
%TA.AperFunction,ComponentPad*%
%ADD13C,2.200000*%
%TD*%
%TA.AperFunction,ComponentPad*%
%ADD14C,4.400000*%
%TD*%
%TA.AperFunction,ComponentPad*%
%ADD15RoundRect,0.250000X0.600000X0.600000X-0.600000X0.600000X-0.600000X-0.600000X0.600000X-0.600000X0*%
%TD*%
%TA.AperFunction,ComponentPad*%
%ADD16C,3.500000*%
%TD*%
%TA.AperFunction,ComponentPad*%
%ADD17RoundRect,0.250001X0.949999X-0.949999X0.949999X0.949999X-0.949999X0.949999X-0.949999X-0.949999X0*%
%TD*%
%TA.AperFunction,ComponentPad*%
%ADD18C,2.400000*%
%TD*%
%TA.AperFunction,HeatsinkPad*%
%ADD19C,0.500000*%
%TD*%
%TA.AperFunction,HeatsinkPad*%
%ADD20R,3.500000X3.500000*%
%TD*%
%TA.AperFunction,ComponentPad*%
%ADD21RoundRect,0.250000X-0.550000X-0.550000X0.550000X-0.550000X0.550000X0.550000X-0.550000X0.550000X0*%
%TD*%
%TA.AperFunction,ComponentPad*%
%ADD22C,1.600000*%
%TD*%
%TA.AperFunction,ViaPad*%
%ADD23C,0.600000*%
%TD*%
%TA.AperFunction,Conductor*%
%ADD24C,0.200000*%
%TD*%
%TA.AperFunction,Conductor*%
%ADD25C,0.700000*%
%TD*%
%TA.AperFunction,Conductor*%
%ADD26C,1.500000*%
%TD*%
G04 APERTURE END LIST*
D10*
%TO.P,J3,1,Pin_1_1*%
%TO.N,GND*%
X102620000Y-114610000D03*
D11*
%TO.P,J3,2,Pin_2_2*%
%TO.N,Net-(J3-Pin_2)*%
X102620000Y-117150000D03*
%TO.P,J3,3,Pin_3_3*%
%TO.N,VCC*%
X102620000Y-119690000D03*
%TD*%
D10*
%TO.P,J4,1,Pin_1_1*%
%TO.N,GND*%
X102620000Y-110460000D03*
D11*
%TO.P,J4,2,Pin_2_2*%
%TO.N,Net-(J4-Pin_2)*%
X102620000Y-107920000D03*
%TO.P,J4,3,Pin_3_3*%
%TO.N,VCC*%
X102620000Y-105380000D03*
%TD*%
D12*
%TO.P,J7,1,Pin_1_1*%
%TO.N,B1*%
X50022500Y-71945000D03*
D13*
%TO.P,J7,2,Pin_2_2*%
%TO.N,A1*%
X50022500Y-74485000D03*
%TO.P,J7,3,Pin_3_3*%
%TO.N,A2*%
X50022500Y-77025000D03*
%TO.P,J7,4,Pin_4_4*%
%TO.N,B2*%
X50022500Y-79565000D03*
%TD*%
D14*
%TO.P,H4,1*%
%TO.N,N/C*%
X102500000Y-66000000D03*
%TD*%
D15*
%TO.P,J2,1,VBUS_1*%
%TO.N,unconnected-(J2-VBUS-Pad1)*%
X62057500Y-108550000D03*
D11*
%TO.P,J2,2,D-_2*%
%TO.N,/USBD-*%
X62057500Y-106050000D03*
%TO.P,J2,3,D+_3*%
%TO.N,/USBD+*%
X60057500Y-106050000D03*
%TO.P,J2,4,GND_4*%
%TO.N,GND*%
X60057500Y-108550000D03*
D16*
%TO.P,J2,SH,Shield_SH*%
X57347500Y-113320000D03*
X57347500Y-101280000D03*
%TD*%
D10*
%TO.P,J5,1,Pin_1_1*%
%TO.N,GND*%
X102620000Y-91800000D03*
D11*
%TO.P,J5,2,Pin_2_2*%
%TO.N,Net-(J5-Pin_2)*%
X102620000Y-89260000D03*
%TO.P,J5,3,Pin_3_3*%
%TO.N,VCC*%
X102620000Y-86720000D03*
%TD*%
D14*
%TO.P,H3,1*%
%TO.N,N/C*%
X48500000Y-120000000D03*
%TD*%
D17*
%TO.P,J8,1,Pin_1_1*%
%TO.N,GND*%
X99860000Y-76670000D03*
D18*
%TO.P,J8,2,Pin_2_2*%
%TO.N,/EXTERNAL INPUT*%
X99860000Y-73170000D03*
%TD*%
D10*
%TO.P,J1,1,MISO_1*%
%TO.N,MISO*%
X48160000Y-87020000D03*
D11*
%TO.P,J1,2,VCC_2*%
%TO.N,VCC*%
X50700000Y-87020000D03*
%TO.P,J1,3,SCK_3*%
%TO.N,SCK*%
X48160000Y-89560000D03*
%TO.P,J1,4,MOSI_4*%
%TO.N,MOSI*%
X50700000Y-89560000D03*
%TO.P,J1,5,~{RST}_5*%
%TO.N,RESET*%
X48160000Y-92100000D03*
%TO.P,J1,6,GND_6*%
%TO.N,GND*%
X50700000Y-92100000D03*
%TD*%
D19*
%TO.P,U3,29,GND_29*%
%TO.N,GND*%
X63760000Y-78100000D03*
X64760000Y-78100000D03*
X65760000Y-78100000D03*
X66760000Y-78100000D03*
X63760000Y-77100000D03*
X64760000Y-77100000D03*
X65760000Y-77100000D03*
X66760000Y-77100000D03*
D20*
X65260000Y-76600000D03*
D19*
X63760000Y-76100000D03*
X64760000Y-76100000D03*
X65760000Y-76100000D03*
X66760000Y-76100000D03*
X63760000Y-75100000D03*
X64760000Y-75100000D03*
X65760000Y-75100000D03*
X66760000Y-75100000D03*
%TD*%
D10*
%TO.P,J6,1,Pin_1_1*%
%TO.N,GND*%
X102620000Y-100960000D03*
D11*
%TO.P,J6,2,Pin_2_2*%
%TO.N,Net-(J6-Pin_2)*%
X102620000Y-98420000D03*
%TO.P,J6,3,Pin_3_3*%
%TO.N,VCC*%
X102620000Y-95880000D03*
%TD*%
D21*
%TO.P,C19,1*%
%TO.N,/MOTOR POWER SOURCE*%
X76980000Y-74030000D03*
D22*
%TO.P,C19,2*%
%TO.N,GND*%
X80480000Y-74030000D03*
%TD*%
D23*
%TO.N,GND*%
X78480000Y-106510000D03*
X79520000Y-95480000D03*
X96710000Y-114670000D03*
X82280000Y-78010000D03*
X95430000Y-107020000D03*
X71140000Y-88610000D03*
X91705000Y-97795000D03*
X68470000Y-86830000D03*
X97760000Y-102020000D03*
X76800000Y-99010000D03*
X78600000Y-96710000D03*
X103090000Y-84680000D03*
X100100000Y-91740000D03*
X97070000Y-87030000D03*
X91900000Y-85430000D03*
X83850000Y-94160000D03*
X72990000Y-119320000D03*
X81040000Y-86840000D03*
X71350000Y-76600000D03*
X56660000Y-65470000D03*
X81220000Y-114890000D03*
X81450000Y-110500000D03*
X58170000Y-85260000D03*
%TO.N,VCC*%
X72680000Y-86770000D03*
X67480000Y-73420000D03*
X73730000Y-113760000D03*
X67380000Y-98220000D03*
X81850000Y-96770000D03*
X66040000Y-73020000D03*
X103690000Y-82000000D03*
X80180000Y-101550000D03*
X66780000Y-67560000D03*
X89540000Y-75560000D03*
X73460735Y-75619265D03*
%TO.N,Net-(U3-~{PD}{slash}UART)*%
X83630000Y-85870000D03*
X68370000Y-74640000D03*
%TO.N,DIGITAL_IN2*%
X95300000Y-97950000D03*
X81485489Y-89900000D03*
%TO.N,B1*%
X61720000Y-77040000D03*
%TO.N,A1*%
X59896765Y-77956765D03*
%TO.N,A2*%
X63110000Y-72680000D03*
%TO.N,B2*%
X64385304Y-80359826D03*
%TO.N,ANALOG_IN3*%
X72770000Y-91870000D03*
X74990000Y-94090000D03*
%TO.N,M1_DIR*%
X66980000Y-69200000D03*
X64740000Y-72990000D03*
%TO.N,M1_STEP*%
X76101748Y-95420000D03*
X68080000Y-72250000D03*
%TO.N,DIGITAL_IN1*%
X80850000Y-89300000D03*
X95690000Y-89950000D03*
%TO.N,EN*%
X79990000Y-87950000D03*
X68820000Y-82150000D03*
%TO.N,SCK*%
X75891267Y-89939923D03*
X70090000Y-94560000D03*
%TO.N,MOSI*%
X75880000Y-89140000D03*
%TD*%
%TO.N,Net-(U3-~{PD}{slash}UART)*%
D24*
X83630000Y-84940000D02*
X72850000Y-74160000D01*
X72850000Y-74160000D02*
X68850000Y-74160000D01*
X68850000Y-74160000D02*
X68370000Y-74640000D01*
X83630000Y-85870000D02*
X83630000Y-84940000D01*
%TO.N,DIGITAL_IN2*%
X81485489Y-89900000D02*
X87250000Y-89900000D01*
X87250000Y-89900000D02*
X95300000Y-97950000D01*
%TO.N,B1*%
D25*
X56625000Y-71945000D02*
X50022500Y-71945000D01*
X61720000Y-77040000D02*
X56625000Y-71945000D01*
%TO.N,A1*%
X59610929Y-77620929D02*
X56475000Y-74485000D01*
X56475000Y-74485000D02*
X50022500Y-74485000D01*
X59896765Y-77956765D02*
X59896765Y-77620929D01*
X59896765Y-77620929D02*
X59610929Y-77620929D01*
%TO.N,A2*%
D26*
X50022500Y-77025000D02*
X49663362Y-77025000D01*
D25*
X47972500Y-70591016D02*
X48668516Y-69895000D01*
X48331638Y-75334138D02*
X50022500Y-77025000D01*
X48668516Y-69895000D02*
X60325000Y-69895000D01*
X47972500Y-75334138D02*
X47972500Y-70591016D01*
X47972500Y-75334138D02*
X48331638Y-75334138D01*
X60325000Y-69895000D02*
X63110000Y-72680000D01*
%TO.N,B2*%
X52337500Y-81880000D02*
X62520000Y-81880000D01*
X50022500Y-79565000D02*
X52337500Y-81880000D01*
X64040174Y-80359826D02*
X64385304Y-80359826D01*
X62520000Y-81880000D02*
X64040174Y-80359826D01*
%TO.N,ANALOG_IN3*%
D24*
X74990000Y-94090000D02*
X72770000Y-91870000D01*
%TO.N,M1_DIR*%
X66980000Y-70750000D02*
X64740000Y-72990000D01*
X66980000Y-69200000D02*
X66980000Y-70750000D01*
%TO.N,M1_STEP*%
X84230000Y-86118529D02*
X83878529Y-86470000D01*
X84230000Y-84974315D02*
X84230000Y-86118529D01*
X82678529Y-86470000D02*
X76101748Y-93046781D01*
X68080000Y-72250000D02*
X71505685Y-72250000D01*
X76101748Y-93046781D02*
X76101748Y-95420000D01*
X83878529Y-86470000D02*
X82678529Y-86470000D01*
X71505685Y-72250000D02*
X84230000Y-84974315D01*
%TO.N,DIGITAL_IN1*%
X95040000Y-89300000D02*
X95690000Y-89950000D01*
X80850000Y-89300000D02*
X95040000Y-89300000D01*
%TO.N,EN*%
X71480000Y-84810000D02*
X76850000Y-84810000D01*
X76850000Y-84810000D02*
X79990000Y-87950000D01*
X68820000Y-82150000D02*
X71480000Y-84810000D01*
%TO.N,SCK*%
X73941471Y-89850000D02*
X75890000Y-89850000D01*
X70090000Y-93701471D02*
X73941471Y-89850000D01*
X70090000Y-94560000D02*
X70090000Y-93701471D01*
X75890000Y-89850000D02*
X75890000Y-89938656D01*
X75890000Y-89938656D02*
X75891267Y-89939923D01*
%TO.N,MOSI*%
X69810000Y-91970000D02*
X69460000Y-91970000D01*
X71130000Y-92060000D02*
X69900000Y-92060000D01*
X75880000Y-89140000D02*
X74050000Y-89140000D01*
X69900000Y-92060000D02*
X69810000Y-91970000D01*
X53320000Y-89620000D02*
X53260000Y-89560000D01*
X64170000Y-86680000D02*
X56260000Y-86680000D01*
X53260000Y-89560000D02*
X50700000Y-89560000D01*
X74050000Y-89140000D02*
X71130000Y-92060000D01*
X56260000Y-86680000D02*
X53320000Y-89620000D01*
X69460000Y-91970000D02*
X64170000Y-86680000D01*
%TD*%
M02*
