%TF.GenerationSoftware,KiCad,Pcbnew,10.0.1*%
%TF.CreationDate,2026-10-06T23:52:21+02:00*%
%TF.ProjectId,ATmega_TMC2209_Driver,41546d65-6761-45f5-944d-43323230395f,rev?*%
%TF.SameCoordinates,Original*%
%TF.FileFunction,Legend,Top*%
%TF.FilePolarity,Positive*%
%FSLAX46Y46*%
G04 Gerber Fmt 4.6, Leading zero omitted, Abs format (unit mm)*
G04 Created by KiCad (PCBNEW 10.0.1) date 2026-10-06 23:52:21*
%MOMM*%
%LPD*%
G01*
G04 APERTURE LIST*
%ADD10C,0.150000*%
%ADD11C,0.120000*%
%ADD12C,0.000000*%
G04 APERTURE END LIST*
D10*
X74087142Y-78319580D02*
X74039523Y-78367200D01*
X74039523Y-78367200D02*
X73896666Y-78414819D01*
X73896666Y-78414819D02*
X73801428Y-78414819D01*
X73801428Y-78414819D02*
X73658571Y-78367200D01*
X73658571Y-78367200D02*
X73563333Y-78271961D01*
X73563333Y-78271961D02*
X73515714Y-78176723D01*
X73515714Y-78176723D02*
X73468095Y-77986247D01*
X73468095Y-77986247D02*
X73468095Y-77843390D01*
X73468095Y-77843390D02*
X73515714Y-77652914D01*
X73515714Y-77652914D02*
X73563333Y-77557676D01*
X73563333Y-77557676D02*
X73658571Y-77462438D01*
X73658571Y-77462438D02*
X73801428Y-77414819D01*
X73801428Y-77414819D02*
X73896666Y-77414819D01*
X73896666Y-77414819D02*
X74039523Y-77462438D01*
X74039523Y-77462438D02*
X74087142Y-77510057D01*
X75039523Y-78414819D02*
X74468095Y-78414819D01*
X74753809Y-78414819D02*
X74753809Y-77414819D01*
X74753809Y-77414819D02*
X74658571Y-77557676D01*
X74658571Y-77557676D02*
X74563333Y-77652914D01*
X74563333Y-77652914D02*
X74468095Y-77700533D01*
X75944285Y-77414819D02*
X75468095Y-77414819D01*
X75468095Y-77414819D02*
X75420476Y-77891009D01*
X75420476Y-77891009D02*
X75468095Y-77843390D01*
X75468095Y-77843390D02*
X75563333Y-77795771D01*
X75563333Y-77795771D02*
X75801428Y-77795771D01*
X75801428Y-77795771D02*
X75896666Y-77843390D01*
X75896666Y-77843390D02*
X75944285Y-77891009D01*
X75944285Y-77891009D02*
X75991904Y-77986247D01*
X75991904Y-77986247D02*
X75991904Y-78224342D01*
X75991904Y-78224342D02*
X75944285Y-78319580D01*
X75944285Y-78319580D02*
X75896666Y-78367200D01*
X75896666Y-78367200D02*
X75801428Y-78414819D01*
X75801428Y-78414819D02*
X75563333Y-78414819D01*
X75563333Y-78414819D02*
X75468095Y-78367200D01*
X75468095Y-78367200D02*
X75420476Y-78319580D01*
X99056666Y-114084819D02*
X99056666Y-114799104D01*
X99056666Y-114799104D02*
X99009047Y-114941961D01*
X99009047Y-114941961D02*
X98913809Y-115037200D01*
X98913809Y-115037200D02*
X98770952Y-115084819D01*
X98770952Y-115084819D02*
X98675714Y-115084819D01*
X99437619Y-114084819D02*
X100056666Y-114084819D01*
X100056666Y-114084819D02*
X99723333Y-114465771D01*
X99723333Y-114465771D02*
X99866190Y-114465771D01*
X99866190Y-114465771D02*
X99961428Y-114513390D01*
X99961428Y-114513390D02*
X100009047Y-114561009D01*
X100009047Y-114561009D02*
X100056666Y-114656247D01*
X100056666Y-114656247D02*
X100056666Y-114894342D01*
X100056666Y-114894342D02*
X100009047Y-114989580D01*
X100009047Y-114989580D02*
X99961428Y-115037200D01*
X99961428Y-115037200D02*
X99866190Y-115084819D01*
X99866190Y-115084819D02*
X99580476Y-115084819D01*
X99580476Y-115084819D02*
X99485238Y-115037200D01*
X99485238Y-115037200D02*
X99437619Y-114989580D01*
X93778628Y-92126190D02*
X94254819Y-92126190D01*
X93254819Y-92459523D02*
X93778628Y-92126190D01*
X93778628Y-92126190D02*
X93254819Y-91792857D01*
X94254819Y-90935714D02*
X94254819Y-91507142D01*
X94254819Y-91221428D02*
X93254819Y-91221428D01*
X93254819Y-91221428D02*
X93397676Y-91316666D01*
X93397676Y-91316666D02*
X93492914Y-91411904D01*
X93492914Y-91411904D02*
X93540533Y-91507142D01*
X90231905Y-70814819D02*
X90231905Y-69814819D01*
X90231905Y-69814819D02*
X90470000Y-69814819D01*
X90470000Y-69814819D02*
X90612857Y-69862438D01*
X90612857Y-69862438D02*
X90708095Y-69957676D01*
X90708095Y-69957676D02*
X90755714Y-70052914D01*
X90755714Y-70052914D02*
X90803333Y-70243390D01*
X90803333Y-70243390D02*
X90803333Y-70386247D01*
X90803333Y-70386247D02*
X90755714Y-70576723D01*
X90755714Y-70576723D02*
X90708095Y-70671961D01*
X90708095Y-70671961D02*
X90612857Y-70767200D01*
X90612857Y-70767200D02*
X90470000Y-70814819D01*
X90470000Y-70814819D02*
X90231905Y-70814819D01*
X91136667Y-69814819D02*
X91755714Y-69814819D01*
X91755714Y-69814819D02*
X91422381Y-70195771D01*
X91422381Y-70195771D02*
X91565238Y-70195771D01*
X91565238Y-70195771D02*
X91660476Y-70243390D01*
X91660476Y-70243390D02*
X91708095Y-70291009D01*
X91708095Y-70291009D02*
X91755714Y-70386247D01*
X91755714Y-70386247D02*
X91755714Y-70624342D01*
X91755714Y-70624342D02*
X91708095Y-70719580D01*
X91708095Y-70719580D02*
X91660476Y-70767200D01*
X91660476Y-70767200D02*
X91565238Y-70814819D01*
X91565238Y-70814819D02*
X91279524Y-70814819D01*
X91279524Y-70814819D02*
X91184286Y-70767200D01*
X91184286Y-70767200D02*
X91136667Y-70719580D01*
X83993762Y-89952900D02*
X83421343Y-89851885D01*
X83589701Y-90356961D02*
X82882595Y-89649854D01*
X82882595Y-89649854D02*
X83151969Y-89380480D01*
X83151969Y-89380480D02*
X83252984Y-89346808D01*
X83252984Y-89346808D02*
X83320327Y-89346808D01*
X83320327Y-89346808D02*
X83421343Y-89380480D01*
X83421343Y-89380480D02*
X83522358Y-89481495D01*
X83522358Y-89481495D02*
X83556030Y-89582511D01*
X83556030Y-89582511D02*
X83556030Y-89649854D01*
X83556030Y-89649854D02*
X83522358Y-89750869D01*
X83522358Y-89750869D02*
X83252984Y-90020243D01*
X84667197Y-89279465D02*
X84263136Y-89683526D01*
X84465167Y-89481495D02*
X83758060Y-88774389D01*
X83758060Y-88774389D02*
X83791732Y-88942747D01*
X83791732Y-88942747D02*
X83791732Y-89077434D01*
X83791732Y-89077434D02*
X83758060Y-89178450D01*
X84296808Y-88370327D02*
X84296808Y-88302984D01*
X84296808Y-88302984D02*
X84330480Y-88201969D01*
X84330480Y-88201969D02*
X84498839Y-88033610D01*
X84498839Y-88033610D02*
X84599854Y-87999938D01*
X84599854Y-87999938D02*
X84667198Y-87999938D01*
X84667198Y-87999938D02*
X84768213Y-88033610D01*
X84768213Y-88033610D02*
X84835556Y-88100953D01*
X84835556Y-88100953D02*
X84902900Y-88235640D01*
X84902900Y-88235640D02*
X84902900Y-89043762D01*
X84902900Y-89043762D02*
X85340633Y-88606030D01*
X99736666Y-104604819D02*
X99736666Y-105319104D01*
X99736666Y-105319104D02*
X99689047Y-105461961D01*
X99689047Y-105461961D02*
X99593809Y-105557200D01*
X99593809Y-105557200D02*
X99450952Y-105604819D01*
X99450952Y-105604819D02*
X99355714Y-105604819D01*
X100641428Y-104938152D02*
X100641428Y-105604819D01*
X100403333Y-104557200D02*
X100165238Y-105271485D01*
X100165238Y-105271485D02*
X100784285Y-105271485D01*
X99864819Y-102246666D02*
X99388628Y-102579999D01*
X99864819Y-102818094D02*
X98864819Y-102818094D01*
X98864819Y-102818094D02*
X98864819Y-102437142D01*
X98864819Y-102437142D02*
X98912438Y-102341904D01*
X98912438Y-102341904D02*
X98960057Y-102294285D01*
X98960057Y-102294285D02*
X99055295Y-102246666D01*
X99055295Y-102246666D02*
X99198152Y-102246666D01*
X99198152Y-102246666D02*
X99293390Y-102294285D01*
X99293390Y-102294285D02*
X99341009Y-102341904D01*
X99341009Y-102341904D02*
X99388628Y-102437142D01*
X99388628Y-102437142D02*
X99388628Y-102818094D01*
X99864819Y-101770475D02*
X99864819Y-101579999D01*
X99864819Y-101579999D02*
X99817200Y-101484761D01*
X99817200Y-101484761D02*
X99769580Y-101437142D01*
X99769580Y-101437142D02*
X99626723Y-101341904D01*
X99626723Y-101341904D02*
X99436247Y-101294285D01*
X99436247Y-101294285D02*
X99055295Y-101294285D01*
X99055295Y-101294285D02*
X98960057Y-101341904D01*
X98960057Y-101341904D02*
X98912438Y-101389523D01*
X98912438Y-101389523D02*
X98864819Y-101484761D01*
X98864819Y-101484761D02*
X98864819Y-101675237D01*
X98864819Y-101675237D02*
X98912438Y-101770475D01*
X98912438Y-101770475D02*
X98960057Y-101818094D01*
X98960057Y-101818094D02*
X99055295Y-101865713D01*
X99055295Y-101865713D02*
X99293390Y-101865713D01*
X99293390Y-101865713D02*
X99388628Y-101818094D01*
X99388628Y-101818094D02*
X99436247Y-101770475D01*
X99436247Y-101770475D02*
X99483866Y-101675237D01*
X99483866Y-101675237D02*
X99483866Y-101484761D01*
X99483866Y-101484761D02*
X99436247Y-101389523D01*
X99436247Y-101389523D02*
X99388628Y-101341904D01*
X99388628Y-101341904D02*
X99293390Y-101294285D01*
X74269580Y-75932857D02*
X74317200Y-75980476D01*
X74317200Y-75980476D02*
X74364819Y-76123333D01*
X74364819Y-76123333D02*
X74364819Y-76218571D01*
X74364819Y-76218571D02*
X74317200Y-76361428D01*
X74317200Y-76361428D02*
X74221961Y-76456666D01*
X74221961Y-76456666D02*
X74126723Y-76504285D01*
X74126723Y-76504285D02*
X73936247Y-76551904D01*
X73936247Y-76551904D02*
X73793390Y-76551904D01*
X73793390Y-76551904D02*
X73602914Y-76504285D01*
X73602914Y-76504285D02*
X73507676Y-76456666D01*
X73507676Y-76456666D02*
X73412438Y-76361428D01*
X73412438Y-76361428D02*
X73364819Y-76218571D01*
X73364819Y-76218571D02*
X73364819Y-76123333D01*
X73364819Y-76123333D02*
X73412438Y-75980476D01*
X73412438Y-75980476D02*
X73460057Y-75932857D01*
X74364819Y-74980476D02*
X74364819Y-75551904D01*
X74364819Y-75266190D02*
X73364819Y-75266190D01*
X73364819Y-75266190D02*
X73507676Y-75361428D01*
X73507676Y-75361428D02*
X73602914Y-75456666D01*
X73602914Y-75456666D02*
X73650533Y-75551904D01*
X73793390Y-74409047D02*
X73745771Y-74504285D01*
X73745771Y-74504285D02*
X73698152Y-74551904D01*
X73698152Y-74551904D02*
X73602914Y-74599523D01*
X73602914Y-74599523D02*
X73555295Y-74599523D01*
X73555295Y-74599523D02*
X73460057Y-74551904D01*
X73460057Y-74551904D02*
X73412438Y-74504285D01*
X73412438Y-74504285D02*
X73364819Y-74409047D01*
X73364819Y-74409047D02*
X73364819Y-74218571D01*
X73364819Y-74218571D02*
X73412438Y-74123333D01*
X73412438Y-74123333D02*
X73460057Y-74075714D01*
X73460057Y-74075714D02*
X73555295Y-74028095D01*
X73555295Y-74028095D02*
X73602914Y-74028095D01*
X73602914Y-74028095D02*
X73698152Y-74075714D01*
X73698152Y-74075714D02*
X73745771Y-74123333D01*
X73745771Y-74123333D02*
X73793390Y-74218571D01*
X73793390Y-74218571D02*
X73793390Y-74409047D01*
X73793390Y-74409047D02*
X73841009Y-74504285D01*
X73841009Y-74504285D02*
X73888628Y-74551904D01*
X73888628Y-74551904D02*
X73983866Y-74599523D01*
X73983866Y-74599523D02*
X74174342Y-74599523D01*
X74174342Y-74599523D02*
X74269580Y-74551904D01*
X74269580Y-74551904D02*
X74317200Y-74504285D01*
X74317200Y-74504285D02*
X74364819Y-74409047D01*
X74364819Y-74409047D02*
X74364819Y-74218571D01*
X74364819Y-74218571D02*
X74317200Y-74123333D01*
X74317200Y-74123333D02*
X74269580Y-74075714D01*
X74269580Y-74075714D02*
X74174342Y-74028095D01*
X74174342Y-74028095D02*
X73983866Y-74028095D01*
X73983866Y-74028095D02*
X73888628Y-74075714D01*
X73888628Y-74075714D02*
X73841009Y-74123333D01*
X73841009Y-74123333D02*
X73793390Y-74218571D01*
X77924819Y-120096666D02*
X77448628Y-120429999D01*
X77924819Y-120668094D02*
X76924819Y-120668094D01*
X76924819Y-120668094D02*
X76924819Y-120287142D01*
X76924819Y-120287142D02*
X76972438Y-120191904D01*
X76972438Y-120191904D02*
X77020057Y-120144285D01*
X77020057Y-120144285D02*
X77115295Y-120096666D01*
X77115295Y-120096666D02*
X77258152Y-120096666D01*
X77258152Y-120096666D02*
X77353390Y-120144285D01*
X77353390Y-120144285D02*
X77401009Y-120191904D01*
X77401009Y-120191904D02*
X77448628Y-120287142D01*
X77448628Y-120287142D02*
X77448628Y-120668094D01*
X77020057Y-119715713D02*
X76972438Y-119668094D01*
X76972438Y-119668094D02*
X76924819Y-119572856D01*
X76924819Y-119572856D02*
X76924819Y-119334761D01*
X76924819Y-119334761D02*
X76972438Y-119239523D01*
X76972438Y-119239523D02*
X77020057Y-119191904D01*
X77020057Y-119191904D02*
X77115295Y-119144285D01*
X77115295Y-119144285D02*
X77210533Y-119144285D01*
X77210533Y-119144285D02*
X77353390Y-119191904D01*
X77353390Y-119191904D02*
X77924819Y-119763332D01*
X77924819Y-119763332D02*
X77924819Y-119144285D01*
X53697319Y-76088333D02*
X54411604Y-76088333D01*
X54411604Y-76088333D02*
X54554461Y-76135952D01*
X54554461Y-76135952D02*
X54649700Y-76231190D01*
X54649700Y-76231190D02*
X54697319Y-76374047D01*
X54697319Y-76374047D02*
X54697319Y-76469285D01*
X53697319Y-75707380D02*
X53697319Y-75040714D01*
X53697319Y-75040714D02*
X54697319Y-75469285D01*
X101738095Y-69954819D02*
X101738095Y-68954819D01*
X101738095Y-69431009D02*
X102309523Y-69431009D01*
X102309523Y-69954819D02*
X102309523Y-68954819D01*
X103214285Y-69288152D02*
X103214285Y-69954819D01*
X102976190Y-68907200D02*
X102738095Y-69621485D01*
X102738095Y-69621485D02*
X103357142Y-69621485D01*
X54724819Y-82560357D02*
X54248628Y-82893690D01*
X54724819Y-83131785D02*
X53724819Y-83131785D01*
X53724819Y-83131785D02*
X53724819Y-82750833D01*
X53724819Y-82750833D02*
X53772438Y-82655595D01*
X53772438Y-82655595D02*
X53820057Y-82607976D01*
X53820057Y-82607976D02*
X53915295Y-82560357D01*
X53915295Y-82560357D02*
X54058152Y-82560357D01*
X54058152Y-82560357D02*
X54153390Y-82607976D01*
X54153390Y-82607976D02*
X54201009Y-82655595D01*
X54201009Y-82655595D02*
X54248628Y-82750833D01*
X54248628Y-82750833D02*
X54248628Y-83131785D01*
X54724819Y-81607976D02*
X54724819Y-82179404D01*
X54724819Y-81893690D02*
X53724819Y-81893690D01*
X53724819Y-81893690D02*
X53867676Y-81988928D01*
X53867676Y-81988928D02*
X53962914Y-82084166D01*
X53962914Y-82084166D02*
X54010533Y-82179404D01*
X54058152Y-80750833D02*
X54724819Y-80750833D01*
X53677200Y-80988928D02*
X54391485Y-81227023D01*
X54391485Y-81227023D02*
X54391485Y-80607976D01*
X55146666Y-106754819D02*
X55146666Y-107469104D01*
X55146666Y-107469104D02*
X55099047Y-107611961D01*
X55099047Y-107611961D02*
X55003809Y-107707200D01*
X55003809Y-107707200D02*
X54860952Y-107754819D01*
X54860952Y-107754819D02*
X54765714Y-107754819D01*
X55575238Y-106850057D02*
X55622857Y-106802438D01*
X55622857Y-106802438D02*
X55718095Y-106754819D01*
X55718095Y-106754819D02*
X55956190Y-106754819D01*
X55956190Y-106754819D02*
X56051428Y-106802438D01*
X56051428Y-106802438D02*
X56099047Y-106850057D01*
X56099047Y-106850057D02*
X56146666Y-106945295D01*
X56146666Y-106945295D02*
X56146666Y-107040533D01*
X56146666Y-107040533D02*
X56099047Y-107183390D01*
X56099047Y-107183390D02*
X55527619Y-107754819D01*
X55527619Y-107754819D02*
X56146666Y-107754819D01*
X75149580Y-120486666D02*
X75197200Y-120534285D01*
X75197200Y-120534285D02*
X75244819Y-120677142D01*
X75244819Y-120677142D02*
X75244819Y-120772380D01*
X75244819Y-120772380D02*
X75197200Y-120915237D01*
X75197200Y-120915237D02*
X75101961Y-121010475D01*
X75101961Y-121010475D02*
X75006723Y-121058094D01*
X75006723Y-121058094D02*
X74816247Y-121105713D01*
X74816247Y-121105713D02*
X74673390Y-121105713D01*
X74673390Y-121105713D02*
X74482914Y-121058094D01*
X74482914Y-121058094D02*
X74387676Y-121010475D01*
X74387676Y-121010475D02*
X74292438Y-120915237D01*
X74292438Y-120915237D02*
X74244819Y-120772380D01*
X74244819Y-120772380D02*
X74244819Y-120677142D01*
X74244819Y-120677142D02*
X74292438Y-120534285D01*
X74292438Y-120534285D02*
X74340057Y-120486666D01*
X75244819Y-120010475D02*
X75244819Y-119819999D01*
X75244819Y-119819999D02*
X75197200Y-119724761D01*
X75197200Y-119724761D02*
X75149580Y-119677142D01*
X75149580Y-119677142D02*
X75006723Y-119581904D01*
X75006723Y-119581904D02*
X74816247Y-119534285D01*
X74816247Y-119534285D02*
X74435295Y-119534285D01*
X74435295Y-119534285D02*
X74340057Y-119581904D01*
X74340057Y-119581904D02*
X74292438Y-119629523D01*
X74292438Y-119629523D02*
X74244819Y-119724761D01*
X74244819Y-119724761D02*
X74244819Y-119915237D01*
X74244819Y-119915237D02*
X74292438Y-120010475D01*
X74292438Y-120010475D02*
X74340057Y-120058094D01*
X74340057Y-120058094D02*
X74435295Y-120105713D01*
X74435295Y-120105713D02*
X74673390Y-120105713D01*
X74673390Y-120105713D02*
X74768628Y-120058094D01*
X74768628Y-120058094D02*
X74816247Y-120010475D01*
X74816247Y-120010475D02*
X74863866Y-119915237D01*
X74863866Y-119915237D02*
X74863866Y-119724761D01*
X74863866Y-119724761D02*
X74816247Y-119629523D01*
X74816247Y-119629523D02*
X74768628Y-119581904D01*
X74768628Y-119581904D02*
X74673390Y-119534285D01*
X99581905Y-84734819D02*
X99581905Y-83734819D01*
X99581905Y-83734819D02*
X99820000Y-83734819D01*
X99820000Y-83734819D02*
X99962857Y-83782438D01*
X99962857Y-83782438D02*
X100058095Y-83877676D01*
X100058095Y-83877676D02*
X100105714Y-83972914D01*
X100105714Y-83972914D02*
X100153333Y-84163390D01*
X100153333Y-84163390D02*
X100153333Y-84306247D01*
X100153333Y-84306247D02*
X100105714Y-84496723D01*
X100105714Y-84496723D02*
X100058095Y-84591961D01*
X100058095Y-84591961D02*
X99962857Y-84687200D01*
X99962857Y-84687200D02*
X99820000Y-84734819D01*
X99820000Y-84734819D02*
X99581905Y-84734819D01*
X101105714Y-84734819D02*
X100534286Y-84734819D01*
X100820000Y-84734819D02*
X100820000Y-83734819D01*
X100820000Y-83734819D02*
X100724762Y-83877676D01*
X100724762Y-83877676D02*
X100629524Y-83972914D01*
X100629524Y-83972914D02*
X100534286Y-84020533D01*
X97309580Y-111862857D02*
X97357200Y-111910476D01*
X97357200Y-111910476D02*
X97404819Y-112053333D01*
X97404819Y-112053333D02*
X97404819Y-112148571D01*
X97404819Y-112148571D02*
X97357200Y-112291428D01*
X97357200Y-112291428D02*
X97261961Y-112386666D01*
X97261961Y-112386666D02*
X97166723Y-112434285D01*
X97166723Y-112434285D02*
X96976247Y-112481904D01*
X96976247Y-112481904D02*
X96833390Y-112481904D01*
X96833390Y-112481904D02*
X96642914Y-112434285D01*
X96642914Y-112434285D02*
X96547676Y-112386666D01*
X96547676Y-112386666D02*
X96452438Y-112291428D01*
X96452438Y-112291428D02*
X96404819Y-112148571D01*
X96404819Y-112148571D02*
X96404819Y-112053333D01*
X96404819Y-112053333D02*
X96452438Y-111910476D01*
X96452438Y-111910476D02*
X96500057Y-111862857D01*
X97404819Y-110910476D02*
X97404819Y-111481904D01*
X97404819Y-111196190D02*
X96404819Y-111196190D01*
X96404819Y-111196190D02*
X96547676Y-111291428D01*
X96547676Y-111291428D02*
X96642914Y-111386666D01*
X96642914Y-111386666D02*
X96690533Y-111481904D01*
X96500057Y-110529523D02*
X96452438Y-110481904D01*
X96452438Y-110481904D02*
X96404819Y-110386666D01*
X96404819Y-110386666D02*
X96404819Y-110148571D01*
X96404819Y-110148571D02*
X96452438Y-110053333D01*
X96452438Y-110053333D02*
X96500057Y-110005714D01*
X96500057Y-110005714D02*
X96595295Y-109958095D01*
X96595295Y-109958095D02*
X96690533Y-109958095D01*
X96690533Y-109958095D02*
X96833390Y-110005714D01*
X96833390Y-110005714D02*
X97404819Y-110577142D01*
X97404819Y-110577142D02*
X97404819Y-109958095D01*
X80937887Y-102346411D02*
X80870543Y-102346411D01*
X80870543Y-102346411D02*
X80735856Y-102279067D01*
X80735856Y-102279067D02*
X80668513Y-102211724D01*
X80668513Y-102211724D02*
X80601169Y-102077037D01*
X80601169Y-102077037D02*
X80601169Y-101942350D01*
X80601169Y-101942350D02*
X80634841Y-101841335D01*
X80634841Y-101841335D02*
X80735856Y-101672976D01*
X80735856Y-101672976D02*
X80836871Y-101571961D01*
X80836871Y-101571961D02*
X81005230Y-101470945D01*
X81005230Y-101470945D02*
X81106245Y-101437274D01*
X81106245Y-101437274D02*
X81240932Y-101437274D01*
X81240932Y-101437274D02*
X81375619Y-101504617D01*
X81375619Y-101504617D02*
X81442963Y-101571961D01*
X81442963Y-101571961D02*
X81510306Y-101706648D01*
X81510306Y-101706648D02*
X81510306Y-101773991D01*
X82217413Y-102346411D02*
X81880696Y-102009693D01*
X81880696Y-102009693D02*
X81510306Y-102312739D01*
X81510306Y-102312739D02*
X81577650Y-102312739D01*
X81577650Y-102312739D02*
X81678665Y-102346411D01*
X81678665Y-102346411D02*
X81847024Y-102514770D01*
X81847024Y-102514770D02*
X81880696Y-102615785D01*
X81880696Y-102615785D02*
X81880696Y-102683128D01*
X81880696Y-102683128D02*
X81847024Y-102784144D01*
X81847024Y-102784144D02*
X81678665Y-102952502D01*
X81678665Y-102952502D02*
X81577650Y-102986174D01*
X81577650Y-102986174D02*
X81510306Y-102986174D01*
X81510306Y-102986174D02*
X81409291Y-102952502D01*
X81409291Y-102952502D02*
X81240932Y-102784144D01*
X81240932Y-102784144D02*
X81207261Y-102683128D01*
X81207261Y-102683128D02*
X81207261Y-102615785D01*
X71105826Y-85448472D02*
X71038482Y-85448472D01*
X71038482Y-85448472D02*
X70903795Y-85381128D01*
X70903795Y-85381128D02*
X70836452Y-85313785D01*
X70836452Y-85313785D02*
X70769108Y-85179098D01*
X70769108Y-85179098D02*
X70769108Y-85044411D01*
X70769108Y-85044411D02*
X70802780Y-84943396D01*
X70802780Y-84943396D02*
X70903795Y-84775037D01*
X70903795Y-84775037D02*
X71004810Y-84674022D01*
X71004810Y-84674022D02*
X71173169Y-84573006D01*
X71173169Y-84573006D02*
X71274184Y-84539335D01*
X71274184Y-84539335D02*
X71408871Y-84539335D01*
X71408871Y-84539335D02*
X71543558Y-84606678D01*
X71543558Y-84606678D02*
X71610902Y-84674022D01*
X71610902Y-84674022D02*
X71678245Y-84808709D01*
X71678245Y-84808709D02*
X71678245Y-84876052D01*
X71711917Y-86189250D02*
X71307856Y-85785189D01*
X71509887Y-85987220D02*
X72216993Y-85280113D01*
X72216993Y-85280113D02*
X72048635Y-85313785D01*
X72048635Y-85313785D02*
X71913948Y-85313785D01*
X71913948Y-85313785D02*
X71812932Y-85280113D01*
X99424819Y-120236666D02*
X98948628Y-120569999D01*
X99424819Y-120808094D02*
X98424819Y-120808094D01*
X98424819Y-120808094D02*
X98424819Y-120427142D01*
X98424819Y-120427142D02*
X98472438Y-120331904D01*
X98472438Y-120331904D02*
X98520057Y-120284285D01*
X98520057Y-120284285D02*
X98615295Y-120236666D01*
X98615295Y-120236666D02*
X98758152Y-120236666D01*
X98758152Y-120236666D02*
X98853390Y-120284285D01*
X98853390Y-120284285D02*
X98901009Y-120331904D01*
X98901009Y-120331904D02*
X98948628Y-120427142D01*
X98948628Y-120427142D02*
X98948628Y-120808094D01*
X98424819Y-119379523D02*
X98424819Y-119569999D01*
X98424819Y-119569999D02*
X98472438Y-119665237D01*
X98472438Y-119665237D02*
X98520057Y-119712856D01*
X98520057Y-119712856D02*
X98662914Y-119808094D01*
X98662914Y-119808094D02*
X98853390Y-119855713D01*
X98853390Y-119855713D02*
X99234342Y-119855713D01*
X99234342Y-119855713D02*
X99329580Y-119808094D01*
X99329580Y-119808094D02*
X99377200Y-119760475D01*
X99377200Y-119760475D02*
X99424819Y-119665237D01*
X99424819Y-119665237D02*
X99424819Y-119474761D01*
X99424819Y-119474761D02*
X99377200Y-119379523D01*
X99377200Y-119379523D02*
X99329580Y-119331904D01*
X99329580Y-119331904D02*
X99234342Y-119284285D01*
X99234342Y-119284285D02*
X98996247Y-119284285D01*
X98996247Y-119284285D02*
X98901009Y-119331904D01*
X98901009Y-119331904D02*
X98853390Y-119379523D01*
X98853390Y-119379523D02*
X98805771Y-119474761D01*
X98805771Y-119474761D02*
X98805771Y-119665237D01*
X98805771Y-119665237D02*
X98853390Y-119760475D01*
X98853390Y-119760475D02*
X98901009Y-119808094D01*
X98901009Y-119808094D02*
X98996247Y-119855713D01*
X75346753Y-91046632D02*
X74774333Y-91619052D01*
X74774333Y-91619052D02*
X74740661Y-91720067D01*
X74740661Y-91720067D02*
X74740661Y-91787411D01*
X74740661Y-91787411D02*
X74774333Y-91888426D01*
X74774333Y-91888426D02*
X74909020Y-92023113D01*
X74909020Y-92023113D02*
X75010035Y-92056785D01*
X75010035Y-92056785D02*
X75077379Y-92056785D01*
X75077379Y-92056785D02*
X75178394Y-92023113D01*
X75178394Y-92023113D02*
X75750814Y-91450693D01*
X75750814Y-92864907D02*
X75346753Y-92460846D01*
X75548783Y-92662876D02*
X76255890Y-91955770D01*
X76255890Y-91955770D02*
X76087531Y-91989441D01*
X76087531Y-91989441D02*
X75952844Y-91989441D01*
X75952844Y-91989441D02*
X75851829Y-91955770D01*
X72309580Y-120792857D02*
X72357200Y-120840476D01*
X72357200Y-120840476D02*
X72404819Y-120983333D01*
X72404819Y-120983333D02*
X72404819Y-121078571D01*
X72404819Y-121078571D02*
X72357200Y-121221428D01*
X72357200Y-121221428D02*
X72261961Y-121316666D01*
X72261961Y-121316666D02*
X72166723Y-121364285D01*
X72166723Y-121364285D02*
X71976247Y-121411904D01*
X71976247Y-121411904D02*
X71833390Y-121411904D01*
X71833390Y-121411904D02*
X71642914Y-121364285D01*
X71642914Y-121364285D02*
X71547676Y-121316666D01*
X71547676Y-121316666D02*
X71452438Y-121221428D01*
X71452438Y-121221428D02*
X71404819Y-121078571D01*
X71404819Y-121078571D02*
X71404819Y-120983333D01*
X71404819Y-120983333D02*
X71452438Y-120840476D01*
X71452438Y-120840476D02*
X71500057Y-120792857D01*
X72404819Y-119840476D02*
X72404819Y-120411904D01*
X72404819Y-120126190D02*
X71404819Y-120126190D01*
X71404819Y-120126190D02*
X71547676Y-120221428D01*
X71547676Y-120221428D02*
X71642914Y-120316666D01*
X71642914Y-120316666D02*
X71690533Y-120411904D01*
X71404819Y-119221428D02*
X71404819Y-119126190D01*
X71404819Y-119126190D02*
X71452438Y-119030952D01*
X71452438Y-119030952D02*
X71500057Y-118983333D01*
X71500057Y-118983333D02*
X71595295Y-118935714D01*
X71595295Y-118935714D02*
X71785771Y-118888095D01*
X71785771Y-118888095D02*
X72023866Y-118888095D01*
X72023866Y-118888095D02*
X72214342Y-118935714D01*
X72214342Y-118935714D02*
X72309580Y-118983333D01*
X72309580Y-118983333D02*
X72357200Y-119030952D01*
X72357200Y-119030952D02*
X72404819Y-119126190D01*
X72404819Y-119126190D02*
X72404819Y-119221428D01*
X72404819Y-119221428D02*
X72357200Y-119316666D01*
X72357200Y-119316666D02*
X72309580Y-119364285D01*
X72309580Y-119364285D02*
X72214342Y-119411904D01*
X72214342Y-119411904D02*
X72023866Y-119459523D01*
X72023866Y-119459523D02*
X71785771Y-119459523D01*
X71785771Y-119459523D02*
X71595295Y-119411904D01*
X71595295Y-119411904D02*
X71500057Y-119364285D01*
X71500057Y-119364285D02*
X71452438Y-119316666D01*
X71452438Y-119316666D02*
X71404819Y-119221428D01*
X99396666Y-85734819D02*
X99396666Y-86449104D01*
X99396666Y-86449104D02*
X99349047Y-86591961D01*
X99349047Y-86591961D02*
X99253809Y-86687200D01*
X99253809Y-86687200D02*
X99110952Y-86734819D01*
X99110952Y-86734819D02*
X99015714Y-86734819D01*
X100349047Y-85734819D02*
X99872857Y-85734819D01*
X99872857Y-85734819D02*
X99825238Y-86211009D01*
X99825238Y-86211009D02*
X99872857Y-86163390D01*
X99872857Y-86163390D02*
X99968095Y-86115771D01*
X99968095Y-86115771D02*
X100206190Y-86115771D01*
X100206190Y-86115771D02*
X100301428Y-86163390D01*
X100301428Y-86163390D02*
X100349047Y-86211009D01*
X100349047Y-86211009D02*
X100396666Y-86306247D01*
X100396666Y-86306247D02*
X100396666Y-86544342D01*
X100396666Y-86544342D02*
X100349047Y-86639580D01*
X100349047Y-86639580D02*
X100301428Y-86687200D01*
X100301428Y-86687200D02*
X100206190Y-86734819D01*
X100206190Y-86734819D02*
X99968095Y-86734819D01*
X99968095Y-86734819D02*
X99872857Y-86687200D01*
X99872857Y-86687200D02*
X99825238Y-86639580D01*
X88979580Y-77382857D02*
X89027200Y-77430476D01*
X89027200Y-77430476D02*
X89074819Y-77573333D01*
X89074819Y-77573333D02*
X89074819Y-77668571D01*
X89074819Y-77668571D02*
X89027200Y-77811428D01*
X89027200Y-77811428D02*
X88931961Y-77906666D01*
X88931961Y-77906666D02*
X88836723Y-77954285D01*
X88836723Y-77954285D02*
X88646247Y-78001904D01*
X88646247Y-78001904D02*
X88503390Y-78001904D01*
X88503390Y-78001904D02*
X88312914Y-77954285D01*
X88312914Y-77954285D02*
X88217676Y-77906666D01*
X88217676Y-77906666D02*
X88122438Y-77811428D01*
X88122438Y-77811428D02*
X88074819Y-77668571D01*
X88074819Y-77668571D02*
X88074819Y-77573333D01*
X88074819Y-77573333D02*
X88122438Y-77430476D01*
X88122438Y-77430476D02*
X88170057Y-77382857D01*
X89074819Y-76430476D02*
X89074819Y-77001904D01*
X89074819Y-76716190D02*
X88074819Y-76716190D01*
X88074819Y-76716190D02*
X88217676Y-76811428D01*
X88217676Y-76811428D02*
X88312914Y-76906666D01*
X88312914Y-76906666D02*
X88360533Y-77001904D01*
X88074819Y-76097142D02*
X88074819Y-75430476D01*
X88074819Y-75430476D02*
X89074819Y-75859047D01*
X47738095Y-117304819D02*
X47738095Y-116304819D01*
X47738095Y-116781009D02*
X48309523Y-116781009D01*
X48309523Y-117304819D02*
X48309523Y-116304819D01*
X48690476Y-116304819D02*
X49309523Y-116304819D01*
X49309523Y-116304819D02*
X48976190Y-116685771D01*
X48976190Y-116685771D02*
X49119047Y-116685771D01*
X49119047Y-116685771D02*
X49214285Y-116733390D01*
X49214285Y-116733390D02*
X49261904Y-116781009D01*
X49261904Y-116781009D02*
X49309523Y-116876247D01*
X49309523Y-116876247D02*
X49309523Y-117114342D01*
X49309523Y-117114342D02*
X49261904Y-117209580D01*
X49261904Y-117209580D02*
X49214285Y-117257200D01*
X49214285Y-117257200D02*
X49119047Y-117304819D01*
X49119047Y-117304819D02*
X48833333Y-117304819D01*
X48833333Y-117304819D02*
X48738095Y-117257200D01*
X48738095Y-117257200D02*
X48690476Y-117209580D01*
X81354819Y-111261904D02*
X82164342Y-111261904D01*
X82164342Y-111261904D02*
X82259580Y-111214285D01*
X82259580Y-111214285D02*
X82307200Y-111166666D01*
X82307200Y-111166666D02*
X82354819Y-111071428D01*
X82354819Y-111071428D02*
X82354819Y-110880952D01*
X82354819Y-110880952D02*
X82307200Y-110785714D01*
X82307200Y-110785714D02*
X82259580Y-110738095D01*
X82259580Y-110738095D02*
X82164342Y-110690476D01*
X82164342Y-110690476D02*
X81354819Y-110690476D01*
X81450057Y-110261904D02*
X81402438Y-110214285D01*
X81402438Y-110214285D02*
X81354819Y-110119047D01*
X81354819Y-110119047D02*
X81354819Y-109880952D01*
X81354819Y-109880952D02*
X81402438Y-109785714D01*
X81402438Y-109785714D02*
X81450057Y-109738095D01*
X81450057Y-109738095D02*
X81545295Y-109690476D01*
X81545295Y-109690476D02*
X81640533Y-109690476D01*
X81640533Y-109690476D02*
X81783390Y-109738095D01*
X81783390Y-109738095D02*
X82354819Y-110309523D01*
X82354819Y-110309523D02*
X82354819Y-109690476D01*
X80544819Y-120096666D02*
X80068628Y-120429999D01*
X80544819Y-120668094D02*
X79544819Y-120668094D01*
X79544819Y-120668094D02*
X79544819Y-120287142D01*
X79544819Y-120287142D02*
X79592438Y-120191904D01*
X79592438Y-120191904D02*
X79640057Y-120144285D01*
X79640057Y-120144285D02*
X79735295Y-120096666D01*
X79735295Y-120096666D02*
X79878152Y-120096666D01*
X79878152Y-120096666D02*
X79973390Y-120144285D01*
X79973390Y-120144285D02*
X80021009Y-120191904D01*
X80021009Y-120191904D02*
X80068628Y-120287142D01*
X80068628Y-120287142D02*
X80068628Y-120668094D01*
X79544819Y-119763332D02*
X79544819Y-119144285D01*
X79544819Y-119144285D02*
X79925771Y-119477618D01*
X79925771Y-119477618D02*
X79925771Y-119334761D01*
X79925771Y-119334761D02*
X79973390Y-119239523D01*
X79973390Y-119239523D02*
X80021009Y-119191904D01*
X80021009Y-119191904D02*
X80116247Y-119144285D01*
X80116247Y-119144285D02*
X80354342Y-119144285D01*
X80354342Y-119144285D02*
X80449580Y-119191904D01*
X80449580Y-119191904D02*
X80497200Y-119239523D01*
X80497200Y-119239523D02*
X80544819Y-119334761D01*
X80544819Y-119334761D02*
X80544819Y-119620475D01*
X80544819Y-119620475D02*
X80497200Y-119715713D01*
X80497200Y-119715713D02*
X80449580Y-119763332D01*
X98677142Y-79924819D02*
X98343809Y-79448628D01*
X98105714Y-79924819D02*
X98105714Y-78924819D01*
X98105714Y-78924819D02*
X98486666Y-78924819D01*
X98486666Y-78924819D02*
X98581904Y-78972438D01*
X98581904Y-78972438D02*
X98629523Y-79020057D01*
X98629523Y-79020057D02*
X98677142Y-79115295D01*
X98677142Y-79115295D02*
X98677142Y-79258152D01*
X98677142Y-79258152D02*
X98629523Y-79353390D01*
X98629523Y-79353390D02*
X98581904Y-79401009D01*
X98581904Y-79401009D02*
X98486666Y-79448628D01*
X98486666Y-79448628D02*
X98105714Y-79448628D01*
X99629523Y-79924819D02*
X99058095Y-79924819D01*
X99343809Y-79924819D02*
X99343809Y-78924819D01*
X99343809Y-78924819D02*
X99248571Y-79067676D01*
X99248571Y-79067676D02*
X99153333Y-79162914D01*
X99153333Y-79162914D02*
X99058095Y-79210533D01*
X100248571Y-78924819D02*
X100343809Y-78924819D01*
X100343809Y-78924819D02*
X100439047Y-78972438D01*
X100439047Y-78972438D02*
X100486666Y-79020057D01*
X100486666Y-79020057D02*
X100534285Y-79115295D01*
X100534285Y-79115295D02*
X100581904Y-79305771D01*
X100581904Y-79305771D02*
X100581904Y-79543866D01*
X100581904Y-79543866D02*
X100534285Y-79734342D01*
X100534285Y-79734342D02*
X100486666Y-79829580D01*
X100486666Y-79829580D02*
X100439047Y-79877200D01*
X100439047Y-79877200D02*
X100343809Y-79924819D01*
X100343809Y-79924819D02*
X100248571Y-79924819D01*
X100248571Y-79924819D02*
X100153333Y-79877200D01*
X100153333Y-79877200D02*
X100105714Y-79829580D01*
X100105714Y-79829580D02*
X100058095Y-79734342D01*
X100058095Y-79734342D02*
X100010476Y-79543866D01*
X100010476Y-79543866D02*
X100010476Y-79305771D01*
X100010476Y-79305771D02*
X100058095Y-79115295D01*
X100058095Y-79115295D02*
X100105714Y-79020057D01*
X100105714Y-79020057D02*
X100153333Y-78972438D01*
X100153333Y-78972438D02*
X100248571Y-78924819D01*
X95094819Y-75253333D02*
X95809104Y-75253333D01*
X95809104Y-75253333D02*
X95951961Y-75300952D01*
X95951961Y-75300952D02*
X96047200Y-75396190D01*
X96047200Y-75396190D02*
X96094819Y-75539047D01*
X96094819Y-75539047D02*
X96094819Y-75634285D01*
X95523390Y-74634285D02*
X95475771Y-74729523D01*
X95475771Y-74729523D02*
X95428152Y-74777142D01*
X95428152Y-74777142D02*
X95332914Y-74824761D01*
X95332914Y-74824761D02*
X95285295Y-74824761D01*
X95285295Y-74824761D02*
X95190057Y-74777142D01*
X95190057Y-74777142D02*
X95142438Y-74729523D01*
X95142438Y-74729523D02*
X95094819Y-74634285D01*
X95094819Y-74634285D02*
X95094819Y-74443809D01*
X95094819Y-74443809D02*
X95142438Y-74348571D01*
X95142438Y-74348571D02*
X95190057Y-74300952D01*
X95190057Y-74300952D02*
X95285295Y-74253333D01*
X95285295Y-74253333D02*
X95332914Y-74253333D01*
X95332914Y-74253333D02*
X95428152Y-74300952D01*
X95428152Y-74300952D02*
X95475771Y-74348571D01*
X95475771Y-74348571D02*
X95523390Y-74443809D01*
X95523390Y-74443809D02*
X95523390Y-74634285D01*
X95523390Y-74634285D02*
X95571009Y-74729523D01*
X95571009Y-74729523D02*
X95618628Y-74777142D01*
X95618628Y-74777142D02*
X95713866Y-74824761D01*
X95713866Y-74824761D02*
X95904342Y-74824761D01*
X95904342Y-74824761D02*
X95999580Y-74777142D01*
X95999580Y-74777142D02*
X96047200Y-74729523D01*
X96047200Y-74729523D02*
X96094819Y-74634285D01*
X96094819Y-74634285D02*
X96094819Y-74443809D01*
X96094819Y-74443809D02*
X96047200Y-74348571D01*
X96047200Y-74348571D02*
X95999580Y-74300952D01*
X95999580Y-74300952D02*
X95904342Y-74253333D01*
X95904342Y-74253333D02*
X95713866Y-74253333D01*
X95713866Y-74253333D02*
X95618628Y-74300952D01*
X95618628Y-74300952D02*
X95571009Y-74348571D01*
X95571009Y-74348571D02*
X95523390Y-74443809D01*
X99664819Y-111176666D02*
X99188628Y-111509999D01*
X99664819Y-111748094D02*
X98664819Y-111748094D01*
X98664819Y-111748094D02*
X98664819Y-111367142D01*
X98664819Y-111367142D02*
X98712438Y-111271904D01*
X98712438Y-111271904D02*
X98760057Y-111224285D01*
X98760057Y-111224285D02*
X98855295Y-111176666D01*
X98855295Y-111176666D02*
X98998152Y-111176666D01*
X98998152Y-111176666D02*
X99093390Y-111224285D01*
X99093390Y-111224285D02*
X99141009Y-111271904D01*
X99141009Y-111271904D02*
X99188628Y-111367142D01*
X99188628Y-111367142D02*
X99188628Y-111748094D01*
X98664819Y-110843332D02*
X98664819Y-110176666D01*
X98664819Y-110176666D02*
X99664819Y-110605237D01*
X96869580Y-121102857D02*
X96917200Y-121150476D01*
X96917200Y-121150476D02*
X96964819Y-121293333D01*
X96964819Y-121293333D02*
X96964819Y-121388571D01*
X96964819Y-121388571D02*
X96917200Y-121531428D01*
X96917200Y-121531428D02*
X96821961Y-121626666D01*
X96821961Y-121626666D02*
X96726723Y-121674285D01*
X96726723Y-121674285D02*
X96536247Y-121721904D01*
X96536247Y-121721904D02*
X96393390Y-121721904D01*
X96393390Y-121721904D02*
X96202914Y-121674285D01*
X96202914Y-121674285D02*
X96107676Y-121626666D01*
X96107676Y-121626666D02*
X96012438Y-121531428D01*
X96012438Y-121531428D02*
X95964819Y-121388571D01*
X95964819Y-121388571D02*
X95964819Y-121293333D01*
X95964819Y-121293333D02*
X96012438Y-121150476D01*
X96012438Y-121150476D02*
X96060057Y-121102857D01*
X96964819Y-120150476D02*
X96964819Y-120721904D01*
X96964819Y-120436190D02*
X95964819Y-120436190D01*
X95964819Y-120436190D02*
X96107676Y-120531428D01*
X96107676Y-120531428D02*
X96202914Y-120626666D01*
X96202914Y-120626666D02*
X96250533Y-120721904D01*
X96964819Y-119198095D02*
X96964819Y-119769523D01*
X96964819Y-119483809D02*
X95964819Y-119483809D01*
X95964819Y-119483809D02*
X96107676Y-119579047D01*
X96107676Y-119579047D02*
X96202914Y-119674285D01*
X96202914Y-119674285D02*
X96250533Y-119769523D01*
X81799694Y-84933517D02*
X81092588Y-84226410D01*
X81092588Y-84226410D02*
X81260946Y-84058051D01*
X81260946Y-84058051D02*
X81395633Y-83990708D01*
X81395633Y-83990708D02*
X81530320Y-83990708D01*
X81530320Y-83990708D02*
X81631336Y-84024380D01*
X81631336Y-84024380D02*
X81799694Y-84125395D01*
X81799694Y-84125395D02*
X81900710Y-84226410D01*
X81900710Y-84226410D02*
X82001725Y-84394769D01*
X82001725Y-84394769D02*
X82035397Y-84495784D01*
X82035397Y-84495784D02*
X82035397Y-84630471D01*
X82035397Y-84630471D02*
X81968053Y-84765158D01*
X81968053Y-84765158D02*
X81799694Y-84933517D01*
X81833366Y-83620319D02*
X81833366Y-83552975D01*
X81833366Y-83552975D02*
X81867038Y-83451960D01*
X81867038Y-83451960D02*
X82035397Y-83283601D01*
X82035397Y-83283601D02*
X82136412Y-83249929D01*
X82136412Y-83249929D02*
X82203755Y-83249929D01*
X82203755Y-83249929D02*
X82304771Y-83283601D01*
X82304771Y-83283601D02*
X82372114Y-83350945D01*
X82372114Y-83350945D02*
X82439458Y-83485632D01*
X82439458Y-83485632D02*
X82439458Y-84293754D01*
X82439458Y-84293754D02*
X82877190Y-83856021D01*
X70907142Y-71089580D02*
X70859523Y-71137200D01*
X70859523Y-71137200D02*
X70716666Y-71184819D01*
X70716666Y-71184819D02*
X70621428Y-71184819D01*
X70621428Y-71184819D02*
X70478571Y-71137200D01*
X70478571Y-71137200D02*
X70383333Y-71041961D01*
X70383333Y-71041961D02*
X70335714Y-70946723D01*
X70335714Y-70946723D02*
X70288095Y-70756247D01*
X70288095Y-70756247D02*
X70288095Y-70613390D01*
X70288095Y-70613390D02*
X70335714Y-70422914D01*
X70335714Y-70422914D02*
X70383333Y-70327676D01*
X70383333Y-70327676D02*
X70478571Y-70232438D01*
X70478571Y-70232438D02*
X70621428Y-70184819D01*
X70621428Y-70184819D02*
X70716666Y-70184819D01*
X70716666Y-70184819D02*
X70859523Y-70232438D01*
X70859523Y-70232438D02*
X70907142Y-70280057D01*
X71288095Y-70280057D02*
X71335714Y-70232438D01*
X71335714Y-70232438D02*
X71430952Y-70184819D01*
X71430952Y-70184819D02*
X71669047Y-70184819D01*
X71669047Y-70184819D02*
X71764285Y-70232438D01*
X71764285Y-70232438D02*
X71811904Y-70280057D01*
X71811904Y-70280057D02*
X71859523Y-70375295D01*
X71859523Y-70375295D02*
X71859523Y-70470533D01*
X71859523Y-70470533D02*
X71811904Y-70613390D01*
X71811904Y-70613390D02*
X71240476Y-71184819D01*
X71240476Y-71184819D02*
X71859523Y-71184819D01*
X72478571Y-70184819D02*
X72573809Y-70184819D01*
X72573809Y-70184819D02*
X72669047Y-70232438D01*
X72669047Y-70232438D02*
X72716666Y-70280057D01*
X72716666Y-70280057D02*
X72764285Y-70375295D01*
X72764285Y-70375295D02*
X72811904Y-70565771D01*
X72811904Y-70565771D02*
X72811904Y-70803866D01*
X72811904Y-70803866D02*
X72764285Y-70994342D01*
X72764285Y-70994342D02*
X72716666Y-71089580D01*
X72716666Y-71089580D02*
X72669047Y-71137200D01*
X72669047Y-71137200D02*
X72573809Y-71184819D01*
X72573809Y-71184819D02*
X72478571Y-71184819D01*
X72478571Y-71184819D02*
X72383333Y-71137200D01*
X72383333Y-71137200D02*
X72335714Y-71089580D01*
X72335714Y-71089580D02*
X72288095Y-70994342D01*
X72288095Y-70994342D02*
X72240476Y-70803866D01*
X72240476Y-70803866D02*
X72240476Y-70565771D01*
X72240476Y-70565771D02*
X72288095Y-70375295D01*
X72288095Y-70375295D02*
X72335714Y-70280057D01*
X72335714Y-70280057D02*
X72383333Y-70232438D01*
X72383333Y-70232438D02*
X72478571Y-70184819D01*
X99954819Y-92706666D02*
X99478628Y-93039999D01*
X99954819Y-93278094D02*
X98954819Y-93278094D01*
X98954819Y-93278094D02*
X98954819Y-92897142D01*
X98954819Y-92897142D02*
X99002438Y-92801904D01*
X99002438Y-92801904D02*
X99050057Y-92754285D01*
X99050057Y-92754285D02*
X99145295Y-92706666D01*
X99145295Y-92706666D02*
X99288152Y-92706666D01*
X99288152Y-92706666D02*
X99383390Y-92754285D01*
X99383390Y-92754285D02*
X99431009Y-92801904D01*
X99431009Y-92801904D02*
X99478628Y-92897142D01*
X99478628Y-92897142D02*
X99478628Y-93278094D01*
X99383390Y-92135237D02*
X99335771Y-92230475D01*
X99335771Y-92230475D02*
X99288152Y-92278094D01*
X99288152Y-92278094D02*
X99192914Y-92325713D01*
X99192914Y-92325713D02*
X99145295Y-92325713D01*
X99145295Y-92325713D02*
X99050057Y-92278094D01*
X99050057Y-92278094D02*
X99002438Y-92230475D01*
X99002438Y-92230475D02*
X98954819Y-92135237D01*
X98954819Y-92135237D02*
X98954819Y-91944761D01*
X98954819Y-91944761D02*
X99002438Y-91849523D01*
X99002438Y-91849523D02*
X99050057Y-91801904D01*
X99050057Y-91801904D02*
X99145295Y-91754285D01*
X99145295Y-91754285D02*
X99192914Y-91754285D01*
X99192914Y-91754285D02*
X99288152Y-91801904D01*
X99288152Y-91801904D02*
X99335771Y-91849523D01*
X99335771Y-91849523D02*
X99383390Y-91944761D01*
X99383390Y-91944761D02*
X99383390Y-92135237D01*
X99383390Y-92135237D02*
X99431009Y-92230475D01*
X99431009Y-92230475D02*
X99478628Y-92278094D01*
X99478628Y-92278094D02*
X99573866Y-92325713D01*
X99573866Y-92325713D02*
X99764342Y-92325713D01*
X99764342Y-92325713D02*
X99859580Y-92278094D01*
X99859580Y-92278094D02*
X99907200Y-92230475D01*
X99907200Y-92230475D02*
X99954819Y-92135237D01*
X99954819Y-92135237D02*
X99954819Y-91944761D01*
X99954819Y-91944761D02*
X99907200Y-91849523D01*
X99907200Y-91849523D02*
X99859580Y-91801904D01*
X99859580Y-91801904D02*
X99764342Y-91754285D01*
X99764342Y-91754285D02*
X99573866Y-91754285D01*
X99573866Y-91754285D02*
X99478628Y-91801904D01*
X99478628Y-91801904D02*
X99431009Y-91849523D01*
X99431009Y-91849523D02*
X99383390Y-91944761D01*
X71996101Y-99888300D02*
X71996101Y-99955644D01*
X71996101Y-99955644D02*
X71928757Y-100090331D01*
X71928757Y-100090331D02*
X71861414Y-100157674D01*
X71861414Y-100157674D02*
X71726727Y-100225018D01*
X71726727Y-100225018D02*
X71592040Y-100225018D01*
X71592040Y-100225018D02*
X71491025Y-100191346D01*
X71491025Y-100191346D02*
X71322666Y-100090331D01*
X71322666Y-100090331D02*
X71221651Y-99989316D01*
X71221651Y-99989316D02*
X71120635Y-99820957D01*
X71120635Y-99820957D02*
X71086964Y-99719942D01*
X71086964Y-99719942D02*
X71086964Y-99585255D01*
X71086964Y-99585255D02*
X71154307Y-99450568D01*
X71154307Y-99450568D02*
X71221651Y-99383224D01*
X71221651Y-99383224D02*
X71356338Y-99315881D01*
X71356338Y-99315881D02*
X71423681Y-99315881D01*
X71592040Y-99012835D02*
X72063444Y-98541430D01*
X72063444Y-98541430D02*
X72467505Y-99551583D01*
X96176667Y-82287200D02*
X96319524Y-82334819D01*
X96319524Y-82334819D02*
X96557619Y-82334819D01*
X96557619Y-82334819D02*
X96652857Y-82287200D01*
X96652857Y-82287200D02*
X96700476Y-82239580D01*
X96700476Y-82239580D02*
X96748095Y-82144342D01*
X96748095Y-82144342D02*
X96748095Y-82049104D01*
X96748095Y-82049104D02*
X96700476Y-81953866D01*
X96700476Y-81953866D02*
X96652857Y-81906247D01*
X96652857Y-81906247D02*
X96557619Y-81858628D01*
X96557619Y-81858628D02*
X96367143Y-81811009D01*
X96367143Y-81811009D02*
X96271905Y-81763390D01*
X96271905Y-81763390D02*
X96224286Y-81715771D01*
X96224286Y-81715771D02*
X96176667Y-81620533D01*
X96176667Y-81620533D02*
X96176667Y-81525295D01*
X96176667Y-81525295D02*
X96224286Y-81430057D01*
X96224286Y-81430057D02*
X96271905Y-81382438D01*
X96271905Y-81382438D02*
X96367143Y-81334819D01*
X96367143Y-81334819D02*
X96605238Y-81334819D01*
X96605238Y-81334819D02*
X96748095Y-81382438D01*
X97081429Y-81334819D02*
X97319524Y-82334819D01*
X97319524Y-82334819D02*
X97510000Y-81620533D01*
X97510000Y-81620533D02*
X97700476Y-82334819D01*
X97700476Y-82334819D02*
X97938572Y-81334819D01*
X98843333Y-82334819D02*
X98271905Y-82334819D01*
X98557619Y-82334819D02*
X98557619Y-81334819D01*
X98557619Y-81334819D02*
X98462381Y-81477676D01*
X98462381Y-81477676D02*
X98367143Y-81572914D01*
X98367143Y-81572914D02*
X98271905Y-81620533D01*
X62854819Y-82962857D02*
X62378628Y-83296190D01*
X62854819Y-83534285D02*
X61854819Y-83534285D01*
X61854819Y-83534285D02*
X61854819Y-83153333D01*
X61854819Y-83153333D02*
X61902438Y-83058095D01*
X61902438Y-83058095D02*
X61950057Y-83010476D01*
X61950057Y-83010476D02*
X62045295Y-82962857D01*
X62045295Y-82962857D02*
X62188152Y-82962857D01*
X62188152Y-82962857D02*
X62283390Y-83010476D01*
X62283390Y-83010476D02*
X62331009Y-83058095D01*
X62331009Y-83058095D02*
X62378628Y-83153333D01*
X62378628Y-83153333D02*
X62378628Y-83534285D01*
X62854819Y-82010476D02*
X62854819Y-82581904D01*
X62854819Y-82296190D02*
X61854819Y-82296190D01*
X61854819Y-82296190D02*
X61997676Y-82391428D01*
X61997676Y-82391428D02*
X62092914Y-82486666D01*
X62092914Y-82486666D02*
X62140533Y-82581904D01*
X61854819Y-81677142D02*
X61854819Y-81058095D01*
X61854819Y-81058095D02*
X62235771Y-81391428D01*
X62235771Y-81391428D02*
X62235771Y-81248571D01*
X62235771Y-81248571D02*
X62283390Y-81153333D01*
X62283390Y-81153333D02*
X62331009Y-81105714D01*
X62331009Y-81105714D02*
X62426247Y-81058095D01*
X62426247Y-81058095D02*
X62664342Y-81058095D01*
X62664342Y-81058095D02*
X62759580Y-81105714D01*
X62759580Y-81105714D02*
X62807200Y-81153333D01*
X62807200Y-81153333D02*
X62854819Y-81248571D01*
X62854819Y-81248571D02*
X62854819Y-81534285D01*
X62854819Y-81534285D02*
X62807200Y-81629523D01*
X62807200Y-81629523D02*
X62759580Y-81677142D01*
X90883333Y-98209580D02*
X90835714Y-98257200D01*
X90835714Y-98257200D02*
X90692857Y-98304819D01*
X90692857Y-98304819D02*
X90597619Y-98304819D01*
X90597619Y-98304819D02*
X90454762Y-98257200D01*
X90454762Y-98257200D02*
X90359524Y-98161961D01*
X90359524Y-98161961D02*
X90311905Y-98066723D01*
X90311905Y-98066723D02*
X90264286Y-97876247D01*
X90264286Y-97876247D02*
X90264286Y-97733390D01*
X90264286Y-97733390D02*
X90311905Y-97542914D01*
X90311905Y-97542914D02*
X90359524Y-97447676D01*
X90359524Y-97447676D02*
X90454762Y-97352438D01*
X90454762Y-97352438D02*
X90597619Y-97304819D01*
X90597619Y-97304819D02*
X90692857Y-97304819D01*
X90692857Y-97304819D02*
X90835714Y-97352438D01*
X90835714Y-97352438D02*
X90883333Y-97400057D01*
X91264286Y-97400057D02*
X91311905Y-97352438D01*
X91311905Y-97352438D02*
X91407143Y-97304819D01*
X91407143Y-97304819D02*
X91645238Y-97304819D01*
X91645238Y-97304819D02*
X91740476Y-97352438D01*
X91740476Y-97352438D02*
X91788095Y-97400057D01*
X91788095Y-97400057D02*
X91835714Y-97495295D01*
X91835714Y-97495295D02*
X91835714Y-97590533D01*
X91835714Y-97590533D02*
X91788095Y-97733390D01*
X91788095Y-97733390D02*
X91216667Y-98304819D01*
X91216667Y-98304819D02*
X91835714Y-98304819D01*
X83019580Y-119976666D02*
X83067200Y-120024285D01*
X83067200Y-120024285D02*
X83114819Y-120167142D01*
X83114819Y-120167142D02*
X83114819Y-120262380D01*
X83114819Y-120262380D02*
X83067200Y-120405237D01*
X83067200Y-120405237D02*
X82971961Y-120500475D01*
X82971961Y-120500475D02*
X82876723Y-120548094D01*
X82876723Y-120548094D02*
X82686247Y-120595713D01*
X82686247Y-120595713D02*
X82543390Y-120595713D01*
X82543390Y-120595713D02*
X82352914Y-120548094D01*
X82352914Y-120548094D02*
X82257676Y-120500475D01*
X82257676Y-120500475D02*
X82162438Y-120405237D01*
X82162438Y-120405237D02*
X82114819Y-120262380D01*
X82114819Y-120262380D02*
X82114819Y-120167142D01*
X82114819Y-120167142D02*
X82162438Y-120024285D01*
X82162438Y-120024285D02*
X82210057Y-119976666D01*
X82543390Y-119405237D02*
X82495771Y-119500475D01*
X82495771Y-119500475D02*
X82448152Y-119548094D01*
X82448152Y-119548094D02*
X82352914Y-119595713D01*
X82352914Y-119595713D02*
X82305295Y-119595713D01*
X82305295Y-119595713D02*
X82210057Y-119548094D01*
X82210057Y-119548094D02*
X82162438Y-119500475D01*
X82162438Y-119500475D02*
X82114819Y-119405237D01*
X82114819Y-119405237D02*
X82114819Y-119214761D01*
X82114819Y-119214761D02*
X82162438Y-119119523D01*
X82162438Y-119119523D02*
X82210057Y-119071904D01*
X82210057Y-119071904D02*
X82305295Y-119024285D01*
X82305295Y-119024285D02*
X82352914Y-119024285D01*
X82352914Y-119024285D02*
X82448152Y-119071904D01*
X82448152Y-119071904D02*
X82495771Y-119119523D01*
X82495771Y-119119523D02*
X82543390Y-119214761D01*
X82543390Y-119214761D02*
X82543390Y-119405237D01*
X82543390Y-119405237D02*
X82591009Y-119500475D01*
X82591009Y-119500475D02*
X82638628Y-119548094D01*
X82638628Y-119548094D02*
X82733866Y-119595713D01*
X82733866Y-119595713D02*
X82924342Y-119595713D01*
X82924342Y-119595713D02*
X83019580Y-119548094D01*
X83019580Y-119548094D02*
X83067200Y-119500475D01*
X83067200Y-119500475D02*
X83114819Y-119405237D01*
X83114819Y-119405237D02*
X83114819Y-119214761D01*
X83114819Y-119214761D02*
X83067200Y-119119523D01*
X83067200Y-119119523D02*
X83019580Y-119071904D01*
X83019580Y-119071904D02*
X82924342Y-119024285D01*
X82924342Y-119024285D02*
X82733866Y-119024285D01*
X82733866Y-119024285D02*
X82638628Y-119071904D01*
X82638628Y-119071904D02*
X82591009Y-119119523D01*
X82591009Y-119119523D02*
X82543390Y-119214761D01*
X82477887Y-99826411D02*
X82410543Y-99826411D01*
X82410543Y-99826411D02*
X82275856Y-99759067D01*
X82275856Y-99759067D02*
X82208513Y-99691724D01*
X82208513Y-99691724D02*
X82141169Y-99557037D01*
X82141169Y-99557037D02*
X82141169Y-99422350D01*
X82141169Y-99422350D02*
X82174841Y-99321335D01*
X82174841Y-99321335D02*
X82275856Y-99152976D01*
X82275856Y-99152976D02*
X82376871Y-99051961D01*
X82376871Y-99051961D02*
X82545230Y-98950945D01*
X82545230Y-98950945D02*
X82646245Y-98917274D01*
X82646245Y-98917274D02*
X82780932Y-98917274D01*
X82780932Y-98917274D02*
X82915619Y-98984617D01*
X82915619Y-98984617D02*
X82982963Y-99051961D01*
X82982963Y-99051961D02*
X83050306Y-99186648D01*
X83050306Y-99186648D02*
X83050306Y-99253991D01*
X83353352Y-99422350D02*
X83791085Y-99860083D01*
X83791085Y-99860083D02*
X83286009Y-99893754D01*
X83286009Y-99893754D02*
X83387024Y-99994770D01*
X83387024Y-99994770D02*
X83420696Y-100095785D01*
X83420696Y-100095785D02*
X83420696Y-100163128D01*
X83420696Y-100163128D02*
X83387024Y-100264144D01*
X83387024Y-100264144D02*
X83218665Y-100432502D01*
X83218665Y-100432502D02*
X83117650Y-100466174D01*
X83117650Y-100466174D02*
X83050306Y-100466174D01*
X83050306Y-100466174D02*
X82949291Y-100432502D01*
X82949291Y-100432502D02*
X82747261Y-100230472D01*
X82747261Y-100230472D02*
X82713589Y-100129457D01*
X82713589Y-100129457D02*
X82713589Y-100062113D01*
X60888095Y-67257319D02*
X60888095Y-68066842D01*
X60888095Y-68066842D02*
X60935714Y-68162080D01*
X60935714Y-68162080D02*
X60983333Y-68209700D01*
X60983333Y-68209700D02*
X61078571Y-68257319D01*
X61078571Y-68257319D02*
X61269047Y-68257319D01*
X61269047Y-68257319D02*
X61364285Y-68209700D01*
X61364285Y-68209700D02*
X61411904Y-68162080D01*
X61411904Y-68162080D02*
X61459523Y-68066842D01*
X61459523Y-68066842D02*
X61459523Y-67257319D01*
X62364285Y-67590652D02*
X62364285Y-68257319D01*
X62126190Y-67209700D02*
X61888095Y-67923985D01*
X61888095Y-67923985D02*
X62507142Y-67923985D01*
X49096666Y-84094819D02*
X49096666Y-84809104D01*
X49096666Y-84809104D02*
X49049047Y-84951961D01*
X49049047Y-84951961D02*
X48953809Y-85047200D01*
X48953809Y-85047200D02*
X48810952Y-85094819D01*
X48810952Y-85094819D02*
X48715714Y-85094819D01*
X50096666Y-85094819D02*
X49525238Y-85094819D01*
X49810952Y-85094819D02*
X49810952Y-84094819D01*
X49810952Y-84094819D02*
X49715714Y-84237676D01*
X49715714Y-84237676D02*
X49620476Y-84332914D01*
X49620476Y-84332914D02*
X49525238Y-84380533D01*
X60914819Y-77361904D02*
X61724342Y-77361904D01*
X61724342Y-77361904D02*
X61819580Y-77314285D01*
X61819580Y-77314285D02*
X61867200Y-77266666D01*
X61867200Y-77266666D02*
X61914819Y-77171428D01*
X61914819Y-77171428D02*
X61914819Y-76980952D01*
X61914819Y-76980952D02*
X61867200Y-76885714D01*
X61867200Y-76885714D02*
X61819580Y-76838095D01*
X61819580Y-76838095D02*
X61724342Y-76790476D01*
X61724342Y-76790476D02*
X60914819Y-76790476D01*
X60914819Y-76409523D02*
X60914819Y-75790476D01*
X60914819Y-75790476D02*
X61295771Y-76123809D01*
X61295771Y-76123809D02*
X61295771Y-75980952D01*
X61295771Y-75980952D02*
X61343390Y-75885714D01*
X61343390Y-75885714D02*
X61391009Y-75838095D01*
X61391009Y-75838095D02*
X61486247Y-75790476D01*
X61486247Y-75790476D02*
X61724342Y-75790476D01*
X61724342Y-75790476D02*
X61819580Y-75838095D01*
X61819580Y-75838095D02*
X61867200Y-75885714D01*
X61867200Y-75885714D02*
X61914819Y-75980952D01*
X61914819Y-75980952D02*
X61914819Y-76266666D01*
X61914819Y-76266666D02*
X61867200Y-76361904D01*
X61867200Y-76361904D02*
X61819580Y-76409523D01*
X99416666Y-95664819D02*
X99416666Y-96379104D01*
X99416666Y-96379104D02*
X99369047Y-96521961D01*
X99369047Y-96521961D02*
X99273809Y-96617200D01*
X99273809Y-96617200D02*
X99130952Y-96664819D01*
X99130952Y-96664819D02*
X99035714Y-96664819D01*
X100321428Y-95664819D02*
X100130952Y-95664819D01*
X100130952Y-95664819D02*
X100035714Y-95712438D01*
X100035714Y-95712438D02*
X99988095Y-95760057D01*
X99988095Y-95760057D02*
X99892857Y-95902914D01*
X99892857Y-95902914D02*
X99845238Y-96093390D01*
X99845238Y-96093390D02*
X99845238Y-96474342D01*
X99845238Y-96474342D02*
X99892857Y-96569580D01*
X99892857Y-96569580D02*
X99940476Y-96617200D01*
X99940476Y-96617200D02*
X100035714Y-96664819D01*
X100035714Y-96664819D02*
X100226190Y-96664819D01*
X100226190Y-96664819D02*
X100321428Y-96617200D01*
X100321428Y-96617200D02*
X100369047Y-96569580D01*
X100369047Y-96569580D02*
X100416666Y-96474342D01*
X100416666Y-96474342D02*
X100416666Y-96236247D01*
X100416666Y-96236247D02*
X100369047Y-96141009D01*
X100369047Y-96141009D02*
X100321428Y-96093390D01*
X100321428Y-96093390D02*
X100226190Y-96045771D01*
X100226190Y-96045771D02*
X100035714Y-96045771D01*
X100035714Y-96045771D02*
X99940476Y-96093390D01*
X99940476Y-96093390D02*
X99892857Y-96141009D01*
X99892857Y-96141009D02*
X99845238Y-96236247D01*
X64949580Y-82872857D02*
X64997200Y-82920476D01*
X64997200Y-82920476D02*
X65044819Y-83063333D01*
X65044819Y-83063333D02*
X65044819Y-83158571D01*
X65044819Y-83158571D02*
X64997200Y-83301428D01*
X64997200Y-83301428D02*
X64901961Y-83396666D01*
X64901961Y-83396666D02*
X64806723Y-83444285D01*
X64806723Y-83444285D02*
X64616247Y-83491904D01*
X64616247Y-83491904D02*
X64473390Y-83491904D01*
X64473390Y-83491904D02*
X64282914Y-83444285D01*
X64282914Y-83444285D02*
X64187676Y-83396666D01*
X64187676Y-83396666D02*
X64092438Y-83301428D01*
X64092438Y-83301428D02*
X64044819Y-83158571D01*
X64044819Y-83158571D02*
X64044819Y-83063333D01*
X64044819Y-83063333D02*
X64092438Y-82920476D01*
X64092438Y-82920476D02*
X64140057Y-82872857D01*
X65044819Y-81920476D02*
X65044819Y-82491904D01*
X65044819Y-82206190D02*
X64044819Y-82206190D01*
X64044819Y-82206190D02*
X64187676Y-82301428D01*
X64187676Y-82301428D02*
X64282914Y-82396666D01*
X64282914Y-82396666D02*
X64330533Y-82491904D01*
X64044819Y-81063333D02*
X64044819Y-81253809D01*
X64044819Y-81253809D02*
X64092438Y-81349047D01*
X64092438Y-81349047D02*
X64140057Y-81396666D01*
X64140057Y-81396666D02*
X64282914Y-81491904D01*
X64282914Y-81491904D02*
X64473390Y-81539523D01*
X64473390Y-81539523D02*
X64854342Y-81539523D01*
X64854342Y-81539523D02*
X64949580Y-81491904D01*
X64949580Y-81491904D02*
X64997200Y-81444285D01*
X64997200Y-81444285D02*
X65044819Y-81349047D01*
X65044819Y-81349047D02*
X65044819Y-81158571D01*
X65044819Y-81158571D02*
X64997200Y-81063333D01*
X64997200Y-81063333D02*
X64949580Y-81015714D01*
X64949580Y-81015714D02*
X64854342Y-80968095D01*
X64854342Y-80968095D02*
X64616247Y-80968095D01*
X64616247Y-80968095D02*
X64521009Y-81015714D01*
X64521009Y-81015714D02*
X64473390Y-81063333D01*
X64473390Y-81063333D02*
X64425771Y-81158571D01*
X64425771Y-81158571D02*
X64425771Y-81349047D01*
X64425771Y-81349047D02*
X64473390Y-81444285D01*
X64473390Y-81444285D02*
X64521009Y-81491904D01*
X64521009Y-81491904D02*
X64616247Y-81539523D01*
X80787037Y-83176174D02*
X80214618Y-83075159D01*
X80382976Y-83580235D02*
X79675870Y-82873128D01*
X79675870Y-82873128D02*
X79945244Y-82603754D01*
X79945244Y-82603754D02*
X80046259Y-82570082D01*
X80046259Y-82570082D02*
X80113602Y-82570082D01*
X80113602Y-82570082D02*
X80214618Y-82603754D01*
X80214618Y-82603754D02*
X80315633Y-82704769D01*
X80315633Y-82704769D02*
X80349305Y-82805785D01*
X80349305Y-82805785D02*
X80349305Y-82873128D01*
X80349305Y-82873128D02*
X80315633Y-82974143D01*
X80315633Y-82974143D02*
X80046259Y-83243517D01*
X81460472Y-82502739D02*
X81056411Y-82906800D01*
X81258442Y-82704769D02*
X80551335Y-81997663D01*
X80551335Y-81997663D02*
X80585007Y-82166021D01*
X80585007Y-82166021D02*
X80585007Y-82300708D01*
X80585007Y-82300708D02*
X80551335Y-82401724D01*
X82133908Y-81829304D02*
X81729847Y-82233365D01*
X81931877Y-82031334D02*
X81224770Y-81324227D01*
X81224770Y-81324227D02*
X81258442Y-81492586D01*
X81258442Y-81492586D02*
X81258442Y-81627273D01*
X81258442Y-81627273D02*
X81224770Y-81728288D01*
X96879580Y-102842857D02*
X96927200Y-102890476D01*
X96927200Y-102890476D02*
X96974819Y-103033333D01*
X96974819Y-103033333D02*
X96974819Y-103128571D01*
X96974819Y-103128571D02*
X96927200Y-103271428D01*
X96927200Y-103271428D02*
X96831961Y-103366666D01*
X96831961Y-103366666D02*
X96736723Y-103414285D01*
X96736723Y-103414285D02*
X96546247Y-103461904D01*
X96546247Y-103461904D02*
X96403390Y-103461904D01*
X96403390Y-103461904D02*
X96212914Y-103414285D01*
X96212914Y-103414285D02*
X96117676Y-103366666D01*
X96117676Y-103366666D02*
X96022438Y-103271428D01*
X96022438Y-103271428D02*
X95974819Y-103128571D01*
X95974819Y-103128571D02*
X95974819Y-103033333D01*
X95974819Y-103033333D02*
X96022438Y-102890476D01*
X96022438Y-102890476D02*
X96070057Y-102842857D01*
X96974819Y-101890476D02*
X96974819Y-102461904D01*
X96974819Y-102176190D02*
X95974819Y-102176190D01*
X95974819Y-102176190D02*
X96117676Y-102271428D01*
X96117676Y-102271428D02*
X96212914Y-102366666D01*
X96212914Y-102366666D02*
X96260533Y-102461904D01*
X96308152Y-101033333D02*
X96974819Y-101033333D01*
X95927200Y-101271428D02*
X96641485Y-101509523D01*
X96641485Y-101509523D02*
X96641485Y-100890476D01*
X78087142Y-69139580D02*
X78039523Y-69187200D01*
X78039523Y-69187200D02*
X77896666Y-69234819D01*
X77896666Y-69234819D02*
X77801428Y-69234819D01*
X77801428Y-69234819D02*
X77658571Y-69187200D01*
X77658571Y-69187200D02*
X77563333Y-69091961D01*
X77563333Y-69091961D02*
X77515714Y-68996723D01*
X77515714Y-68996723D02*
X77468095Y-68806247D01*
X77468095Y-68806247D02*
X77468095Y-68663390D01*
X77468095Y-68663390D02*
X77515714Y-68472914D01*
X77515714Y-68472914D02*
X77563333Y-68377676D01*
X77563333Y-68377676D02*
X77658571Y-68282438D01*
X77658571Y-68282438D02*
X77801428Y-68234819D01*
X77801428Y-68234819D02*
X77896666Y-68234819D01*
X77896666Y-68234819D02*
X78039523Y-68282438D01*
X78039523Y-68282438D02*
X78087142Y-68330057D01*
X79039523Y-69234819D02*
X78468095Y-69234819D01*
X78753809Y-69234819D02*
X78753809Y-68234819D01*
X78753809Y-68234819D02*
X78658571Y-68377676D01*
X78658571Y-68377676D02*
X78563333Y-68472914D01*
X78563333Y-68472914D02*
X78468095Y-68520533D01*
X79515714Y-69234819D02*
X79706190Y-69234819D01*
X79706190Y-69234819D02*
X79801428Y-69187200D01*
X79801428Y-69187200D02*
X79849047Y-69139580D01*
X79849047Y-69139580D02*
X79944285Y-68996723D01*
X79944285Y-68996723D02*
X79991904Y-68806247D01*
X79991904Y-68806247D02*
X79991904Y-68425295D01*
X79991904Y-68425295D02*
X79944285Y-68330057D01*
X79944285Y-68330057D02*
X79896666Y-68282438D01*
X79896666Y-68282438D02*
X79801428Y-68234819D01*
X79801428Y-68234819D02*
X79610952Y-68234819D01*
X79610952Y-68234819D02*
X79515714Y-68282438D01*
X79515714Y-68282438D02*
X79468095Y-68330057D01*
X79468095Y-68330057D02*
X79420476Y-68425295D01*
X79420476Y-68425295D02*
X79420476Y-68663390D01*
X79420476Y-68663390D02*
X79468095Y-68758628D01*
X79468095Y-68758628D02*
X79515714Y-68806247D01*
X79515714Y-68806247D02*
X79610952Y-68853866D01*
X79610952Y-68853866D02*
X79801428Y-68853866D01*
X79801428Y-68853866D02*
X79896666Y-68806247D01*
X79896666Y-68806247D02*
X79944285Y-68758628D01*
X79944285Y-68758628D02*
X79991904Y-68663390D01*
X90833333Y-85679580D02*
X90785714Y-85727200D01*
X90785714Y-85727200D02*
X90642857Y-85774819D01*
X90642857Y-85774819D02*
X90547619Y-85774819D01*
X90547619Y-85774819D02*
X90404762Y-85727200D01*
X90404762Y-85727200D02*
X90309524Y-85631961D01*
X90309524Y-85631961D02*
X90261905Y-85536723D01*
X90261905Y-85536723D02*
X90214286Y-85346247D01*
X90214286Y-85346247D02*
X90214286Y-85203390D01*
X90214286Y-85203390D02*
X90261905Y-85012914D01*
X90261905Y-85012914D02*
X90309524Y-84917676D01*
X90309524Y-84917676D02*
X90404762Y-84822438D01*
X90404762Y-84822438D02*
X90547619Y-84774819D01*
X90547619Y-84774819D02*
X90642857Y-84774819D01*
X90642857Y-84774819D02*
X90785714Y-84822438D01*
X90785714Y-84822438D02*
X90833333Y-84870057D01*
X91690476Y-84774819D02*
X91500000Y-84774819D01*
X91500000Y-84774819D02*
X91404762Y-84822438D01*
X91404762Y-84822438D02*
X91357143Y-84870057D01*
X91357143Y-84870057D02*
X91261905Y-85012914D01*
X91261905Y-85012914D02*
X91214286Y-85203390D01*
X91214286Y-85203390D02*
X91214286Y-85584342D01*
X91214286Y-85584342D02*
X91261905Y-85679580D01*
X91261905Y-85679580D02*
X91309524Y-85727200D01*
X91309524Y-85727200D02*
X91404762Y-85774819D01*
X91404762Y-85774819D02*
X91595238Y-85774819D01*
X91595238Y-85774819D02*
X91690476Y-85727200D01*
X91690476Y-85727200D02*
X91738095Y-85679580D01*
X91738095Y-85679580D02*
X91785714Y-85584342D01*
X91785714Y-85584342D02*
X91785714Y-85346247D01*
X91785714Y-85346247D02*
X91738095Y-85251009D01*
X91738095Y-85251009D02*
X91690476Y-85203390D01*
X91690476Y-85203390D02*
X91595238Y-85155771D01*
X91595238Y-85155771D02*
X91404762Y-85155771D01*
X91404762Y-85155771D02*
X91309524Y-85203390D01*
X91309524Y-85203390D02*
X91261905Y-85251009D01*
X91261905Y-85251009D02*
X91214286Y-85346247D01*
X67891514Y-95755744D02*
X67319095Y-95654729D01*
X67487453Y-96159805D02*
X66780347Y-95452698D01*
X66780347Y-95452698D02*
X67049721Y-95183324D01*
X67049721Y-95183324D02*
X67150736Y-95149652D01*
X67150736Y-95149652D02*
X67218079Y-95149652D01*
X67218079Y-95149652D02*
X67319095Y-95183324D01*
X67319095Y-95183324D02*
X67420110Y-95284339D01*
X67420110Y-95284339D02*
X67453782Y-95385355D01*
X67453782Y-95385355D02*
X67453782Y-95452698D01*
X67453782Y-95452698D02*
X67420110Y-95553713D01*
X67420110Y-95553713D02*
X67150736Y-95823087D01*
X68564949Y-95082309D02*
X68160888Y-95486370D01*
X68362919Y-95284339D02*
X67655812Y-94577233D01*
X67655812Y-94577233D02*
X67689484Y-94745591D01*
X67689484Y-94745591D02*
X67689484Y-94880278D01*
X67689484Y-94880278D02*
X67655812Y-94981294D01*
X97439580Y-93562857D02*
X97487200Y-93610476D01*
X97487200Y-93610476D02*
X97534819Y-93753333D01*
X97534819Y-93753333D02*
X97534819Y-93848571D01*
X97534819Y-93848571D02*
X97487200Y-93991428D01*
X97487200Y-93991428D02*
X97391961Y-94086666D01*
X97391961Y-94086666D02*
X97296723Y-94134285D01*
X97296723Y-94134285D02*
X97106247Y-94181904D01*
X97106247Y-94181904D02*
X96963390Y-94181904D01*
X96963390Y-94181904D02*
X96772914Y-94134285D01*
X96772914Y-94134285D02*
X96677676Y-94086666D01*
X96677676Y-94086666D02*
X96582438Y-93991428D01*
X96582438Y-93991428D02*
X96534819Y-93848571D01*
X96534819Y-93848571D02*
X96534819Y-93753333D01*
X96534819Y-93753333D02*
X96582438Y-93610476D01*
X96582438Y-93610476D02*
X96630057Y-93562857D01*
X97534819Y-92610476D02*
X97534819Y-93181904D01*
X97534819Y-92896190D02*
X96534819Y-92896190D01*
X96534819Y-92896190D02*
X96677676Y-92991428D01*
X96677676Y-92991428D02*
X96772914Y-93086666D01*
X96772914Y-93086666D02*
X96820533Y-93181904D01*
X96534819Y-92277142D02*
X96534819Y-91658095D01*
X96534819Y-91658095D02*
X96915771Y-91991428D01*
X96915771Y-91991428D02*
X96915771Y-91848571D01*
X96915771Y-91848571D02*
X96963390Y-91753333D01*
X96963390Y-91753333D02*
X97011009Y-91705714D01*
X97011009Y-91705714D02*
X97106247Y-91658095D01*
X97106247Y-91658095D02*
X97344342Y-91658095D01*
X97344342Y-91658095D02*
X97439580Y-91705714D01*
X97439580Y-91705714D02*
X97487200Y-91753333D01*
X97487200Y-91753333D02*
X97534819Y-91848571D01*
X97534819Y-91848571D02*
X97534819Y-92134285D01*
X97534819Y-92134285D02*
X97487200Y-92229523D01*
X97487200Y-92229523D02*
X97439580Y-92277142D01*
X81596446Y-97152599D02*
X81529102Y-97152599D01*
X81529102Y-97152599D02*
X81394415Y-97085255D01*
X81394415Y-97085255D02*
X81327072Y-97017912D01*
X81327072Y-97017912D02*
X81259728Y-96883225D01*
X81259728Y-96883225D02*
X81259728Y-96748538D01*
X81259728Y-96748538D02*
X81293400Y-96647523D01*
X81293400Y-96647523D02*
X81394415Y-96479164D01*
X81394415Y-96479164D02*
X81495430Y-96378149D01*
X81495430Y-96378149D02*
X81663789Y-96277133D01*
X81663789Y-96277133D02*
X81764804Y-96243462D01*
X81764804Y-96243462D02*
X81899491Y-96243462D01*
X81899491Y-96243462D02*
X82034178Y-96310805D01*
X82034178Y-96310805D02*
X82101522Y-96378149D01*
X82101522Y-96378149D02*
X82168865Y-96512836D01*
X82168865Y-96512836D02*
X82168865Y-96580179D01*
X82606598Y-97354629D02*
X82135194Y-97826034D01*
X82707613Y-96916897D02*
X82034178Y-97253614D01*
X82034178Y-97253614D02*
X82471911Y-97691347D01*
%TO.C,C15*%
D11*
X71701252Y-77245000D02*
X71178748Y-77245000D01*
X71701252Y-78715000D02*
X71178748Y-78715000D01*
%TO.C,J3*%
X101240000Y-113230000D02*
X102620000Y-113230000D01*
X101240000Y-114610000D02*
X101240000Y-113230000D01*
X101240000Y-115880000D02*
X101240000Y-121070000D01*
X101240000Y-115880000D02*
X104000000Y-115880000D01*
X101240000Y-121070000D02*
X104000000Y-121070000D01*
X104000000Y-115880000D02*
X104000000Y-121070000D01*
%TO.C,Y1*%
X89140000Y-88540000D02*
X89140000Y-94410000D01*
X92860000Y-88540000D02*
X89140000Y-88540000D01*
X92860000Y-94410000D02*
X92860000Y-88540000D01*
%TO.C,D3*%
X87460000Y-71210000D02*
X87460000Y-74510000D01*
X87460000Y-71210000D02*
X92970000Y-71210000D01*
X87460000Y-74510000D02*
X92970000Y-74510000D01*
%TO.C,R12*%
X82600835Y-87329718D02*
X82279718Y-87650835D01*
X83640282Y-88369165D02*
X83319165Y-88690282D01*
%TO.C,J4*%
X101240000Y-109190000D02*
X101240000Y-104000000D01*
X104000000Y-104000000D02*
X101240000Y-104000000D01*
X104000000Y-109190000D02*
X101240000Y-109190000D01*
X104000000Y-109190000D02*
X104000000Y-104000000D01*
X104000000Y-110460000D02*
X104000000Y-111840000D01*
X104000000Y-111840000D02*
X102620000Y-111840000D01*
%TO.C,R9*%
X98475000Y-99214564D02*
X98475000Y-98760436D01*
X99945000Y-99214564D02*
X99945000Y-98760436D01*
%TO.C,C18*%
X71651252Y-74705000D02*
X71128748Y-74705000D01*
X71651252Y-76175000D02*
X71128748Y-76175000D01*
%TO.C,R2*%
X76755000Y-116632936D02*
X76755000Y-117087064D01*
X78225000Y-116632936D02*
X78225000Y-117087064D01*
%TO.C,J7*%
X46802500Y-70325000D02*
X53242500Y-70325000D01*
X46802500Y-71645000D02*
X46802500Y-70325000D01*
X46802500Y-81185000D02*
X46802500Y-72245000D01*
X47422500Y-70325000D02*
X47422500Y-81185000D01*
X52722500Y-70325000D02*
X52722500Y-81185000D01*
X53242500Y-70325000D02*
X53242500Y-81185000D01*
X53242500Y-81185000D02*
X46802500Y-81185000D01*
X46802500Y-71945000D02*
X46192500Y-72385000D01*
X46192500Y-71505000D01*
X46802500Y-71945000D01*
G36*
X46802500Y-71945000D02*
G01*
X46192500Y-72385000D01*
X46192500Y-71505000D01*
X46802500Y-71945000D01*
G37*
%TO.C,R14*%
X55195000Y-82641237D02*
X55195000Y-81193763D01*
X57905000Y-82641237D02*
X57905000Y-81193763D01*
%TO.C,J2*%
X46937500Y-101140000D02*
X55297500Y-101140000D01*
X46937500Y-113460000D02*
X46937500Y-101140000D01*
X55297500Y-113460000D02*
X46937500Y-113460000D01*
X59397500Y-113460000D02*
X63657500Y-113460000D01*
X63657500Y-101140000D02*
X59397500Y-101140000D01*
X63657500Y-113460000D02*
X63657500Y-101140000D01*
X63877500Y-108550000D02*
X64377500Y-109050000D01*
X64377500Y-108050000D02*
X63877500Y-108550000D01*
X64377500Y-109050000D02*
X64377500Y-108050000D01*
%TO.C,C9*%
X74005000Y-116561248D02*
X74005000Y-117083752D01*
X75475000Y-116561248D02*
X75475000Y-117083752D01*
%TO.C,D1*%
X101607500Y-84370000D02*
X104292500Y-84370000D01*
X104292500Y-82450000D02*
X101607500Y-82450000D01*
X104292500Y-84370000D02*
X104292500Y-82450000D01*
%TO.C,C12*%
X96055000Y-107768748D02*
X96055000Y-108291252D01*
X97525000Y-107768748D02*
X97525000Y-108291252D01*
%TO.C,C5*%
X78336761Y-100876208D02*
X77967294Y-100506741D01*
X79376208Y-99836761D02*
X79006741Y-99467294D01*
%TO.C,C1*%
X69585543Y-86834990D02*
X69955010Y-87204457D01*
X70624990Y-85795543D02*
X70994457Y-86165010D01*
%TO.C,R6*%
X98555000Y-117012936D02*
X98555000Y-117467064D01*
X100025000Y-117012936D02*
X100025000Y-117467064D01*
%TO.C,U1*%
X70394689Y-91970882D02*
X70589143Y-91776428D01*
X70589143Y-92165336D02*
X70394689Y-91970882D01*
X75305546Y-87060025D02*
X75500000Y-86865571D01*
X75500000Y-86865571D02*
X75694454Y-87060025D01*
X75500000Y-97076193D02*
X75305546Y-96881739D01*
X75694454Y-96881739D02*
X75500000Y-97076193D01*
X80410857Y-91776428D02*
X80605311Y-91970882D01*
X80605311Y-91970882D02*
X80410857Y-92165336D01*
X76051543Y-97910579D02*
X75570711Y-97429746D01*
X76143467Y-97337822D01*
X76051543Y-97910579D01*
G36*
X76051543Y-97910579D02*
G01*
X75570711Y-97429746D01*
X76143467Y-97337822D01*
X76051543Y-97910579D01*
G37*
%TO.C,C10*%
X71505000Y-116561248D02*
X71505000Y-117083752D01*
X72975000Y-116561248D02*
X72975000Y-117083752D01*
%TO.C,J5*%
X101240000Y-90530000D02*
X101240000Y-85340000D01*
X104000000Y-85340000D02*
X101240000Y-85340000D01*
X104000000Y-90530000D02*
X101240000Y-90530000D01*
X104000000Y-90530000D02*
X104000000Y-85340000D01*
X104000000Y-91800000D02*
X104000000Y-93180000D01*
X104000000Y-93180000D02*
X102620000Y-93180000D01*
%TO.C,C17*%
X83160000Y-75544437D02*
X83160000Y-79000000D01*
X83160000Y-79000000D02*
X84360000Y-79000000D01*
X84224437Y-74480000D02*
X83160000Y-75544437D01*
X84224437Y-74480000D02*
X84360000Y-74480000D01*
X86615563Y-74480000D02*
X86480000Y-74480000D01*
X86615563Y-74480000D02*
X87680000Y-75544437D01*
X86980000Y-73740000D02*
X86980000Y-74240000D01*
X87230000Y-73990000D02*
X86730000Y-73990000D01*
X87680000Y-75544437D02*
X87680000Y-79000000D01*
X87680000Y-79000000D02*
X86480000Y-79000000D01*
%TO.C,U2*%
X75940000Y-112560000D02*
X75940000Y-108440000D01*
X81060000Y-108440000D02*
X81060000Y-112560000D01*
X80500000Y-106760000D02*
X80260000Y-106430000D01*
X80740000Y-106430000D01*
X80500000Y-106760000D01*
G36*
X80500000Y-106760000D02*
G01*
X80260000Y-106430000D01*
X80740000Y-106430000D01*
X80500000Y-106760000D01*
G37*
%TO.C,R3*%
X79255000Y-116632936D02*
X79255000Y-117087064D01*
X80725000Y-116632936D02*
X80725000Y-117087064D01*
%TO.C,R10*%
X102859564Y-79675000D02*
X102405436Y-79675000D01*
X102859564Y-81145000D02*
X102405436Y-81145000D01*
%TO.C,J8*%
X96640000Y-71300000D02*
X104480000Y-71300000D01*
X96640000Y-78540000D02*
X96640000Y-71300000D01*
X102860000Y-78540000D02*
X102860000Y-71300000D01*
X103960000Y-78540000D02*
X103960000Y-71300000D01*
X104480000Y-71300000D02*
X104480000Y-76370000D01*
X104480000Y-76970000D02*
X104480000Y-78540000D01*
X104480000Y-78540000D02*
X96640000Y-78540000D01*
X105090000Y-77110000D02*
X104480000Y-76670000D01*
X105090000Y-76230000D01*
X105090000Y-77110000D01*
G36*
X105090000Y-77110000D02*
G01*
X104480000Y-76670000D01*
X105090000Y-76230000D01*
X105090000Y-77110000D01*
G37*
%TO.C,R7*%
X98467500Y-107852936D02*
X98467500Y-108307064D01*
X99937500Y-107852936D02*
X99937500Y-108307064D01*
%TO.C,C11*%
X96055000Y-116928748D02*
X96055000Y-117451252D01*
X97525000Y-116928748D02*
X97525000Y-117451252D01*
%TO.C,D2*%
X78119703Y-86382652D02*
X79477348Y-87740297D01*
X79477348Y-87740297D02*
X81375929Y-85841716D01*
X80018284Y-84484071D02*
X78119703Y-86382652D01*
%TO.C,C20*%
X71148748Y-72145000D02*
X71671252Y-72145000D01*
X71148748Y-73615000D02*
X71671252Y-73615000D01*
%TO.C,R8*%
X98835000Y-89240436D02*
X98835000Y-89694564D01*
X100305000Y-89240436D02*
X100305000Y-89694564D01*
%TO.C,C7*%
X70336761Y-97623792D02*
X69967294Y-97993259D01*
X71376208Y-98663239D02*
X71006741Y-99032706D01*
%TO.C,SW1*%
X95410000Y-80230000D02*
X95410000Y-80620000D01*
X95410000Y-83530000D02*
X95410000Y-83140000D01*
X99610000Y-80230000D02*
X95410000Y-80230000D01*
X99610000Y-80620000D02*
X99610000Y-80230000D01*
X99610000Y-83140000D02*
X99610000Y-83530000D01*
X99610000Y-83530000D02*
X95410000Y-83530000D01*
%TO.C,R13*%
X58695000Y-82641237D02*
X58695000Y-81193763D01*
X61405000Y-82641237D02*
X61405000Y-81193763D01*
%TO.C,C2*%
X90788748Y-95265000D02*
X91311252Y-95265000D01*
X90788748Y-96735000D02*
X91311252Y-96735000D01*
%TO.C,C8*%
X81755000Y-116561248D02*
X81755000Y-117083752D01*
X83225000Y-116561248D02*
X83225000Y-117083752D01*
%TO.C,C3*%
X80493259Y-98532706D02*
X80123792Y-98163239D01*
X81532706Y-97493259D02*
X81163239Y-97123792D01*
%TO.C,U4*%
X59800000Y-64430000D02*
X63560000Y-64430000D01*
X59800000Y-71250000D02*
X63560000Y-71250000D01*
X63560000Y-64430000D02*
X63560000Y-65690000D01*
X63560000Y-71250000D02*
X63560000Y-69990000D01*
X58520000Y-64530000D02*
X58280000Y-64200000D01*
X58760000Y-64200000D01*
X58520000Y-64530000D01*
G36*
X58520000Y-64530000D02*
G01*
X58280000Y-64200000D01*
X58760000Y-64200000D01*
X58520000Y-64530000D01*
G37*
%TO.C,J1*%
X46780000Y-85640000D02*
X48160000Y-85640000D01*
X46780000Y-87020000D02*
X46780000Y-85640000D01*
X46780000Y-88290000D02*
X46780000Y-93480000D01*
X46780000Y-88290000D02*
X49430000Y-88290000D01*
X46780000Y-93480000D02*
X52080000Y-93480000D01*
X49430000Y-85640000D02*
X52080000Y-85640000D01*
X49430000Y-88290000D02*
X49430000Y-85640000D01*
X52080000Y-85640000D02*
X52080000Y-93480000D01*
D12*
%TO.C,G\u002A\u002A\u002A*%
G36*
X61032555Y-88233867D02*
G01*
X61007140Y-88274449D01*
X60967555Y-88334289D01*
X60922998Y-88399654D01*
X60797839Y-88586781D01*
X60677032Y-88778257D01*
X60566724Y-88963935D01*
X60473060Y-89133672D01*
X60443175Y-89191754D01*
X60333244Y-89440927D01*
X60258762Y-89679497D01*
X60219752Y-89906523D01*
X60216235Y-90121067D01*
X60248234Y-90322190D01*
X60315771Y-90508951D01*
X60408199Y-90665724D01*
X60472530Y-90750455D01*
X60540448Y-90827440D01*
X60615756Y-90899102D01*
X60702257Y-90967867D01*
X60803754Y-91036160D01*
X60924049Y-91106405D01*
X61066945Y-91181026D01*
X61236244Y-91262450D01*
X61435749Y-91353099D01*
X61598297Y-91424599D01*
X61765473Y-91499311D01*
X61943476Y-91582232D01*
X62125077Y-91669742D01*
X62303046Y-91758220D01*
X62470154Y-91844044D01*
X62619172Y-91923593D01*
X62742869Y-91993248D01*
X62790680Y-92021829D01*
X63065507Y-92206063D01*
X63315912Y-92405657D01*
X63537722Y-92616817D01*
X63726764Y-92835747D01*
X63807500Y-92946658D01*
X63853972Y-93013451D01*
X63891077Y-93064385D01*
X63914284Y-93093387D01*
X63919846Y-93097197D01*
X63910347Y-93066908D01*
X63884391Y-93010220D01*
X63845787Y-92934144D01*
X63798346Y-92845690D01*
X63745878Y-92751869D01*
X63692192Y-92659692D01*
X63641099Y-92576170D01*
X63613425Y-92533358D01*
X63503875Y-92382966D01*
X63372558Y-92225840D01*
X63230216Y-92073728D01*
X63087587Y-91938377D01*
X63008834Y-91872079D01*
X62869591Y-91761250D01*
X62999065Y-91737554D01*
X63230595Y-91684385D01*
X63478238Y-91608323D01*
X63730335Y-91513964D01*
X63975227Y-91405905D01*
X64201256Y-91288744D01*
X64324801Y-91214826D01*
X64562423Y-91046526D01*
X64787861Y-90853404D01*
X64992754Y-90643447D01*
X65168738Y-90424639D01*
X65201954Y-90377266D01*
X65248605Y-90305700D01*
X65303108Y-90216962D01*
X65362065Y-90117174D01*
X65422078Y-90012462D01*
X65479747Y-89908950D01*
X65531672Y-89812762D01*
X65574457Y-89730023D01*
X65604700Y-89666857D01*
X65619003Y-89629388D01*
X65619692Y-89624571D01*
X65627594Y-89610197D01*
X65636872Y-89616900D01*
X65650546Y-89649822D01*
X65664523Y-89715716D01*
X65678234Y-89808485D01*
X65691110Y-89922035D01*
X65702581Y-90050268D01*
X65712078Y-90187090D01*
X65719033Y-90326405D01*
X65722875Y-90462116D01*
X65723439Y-90544000D01*
X65711646Y-90859017D01*
X65676724Y-91150934D01*
X65616436Y-91429673D01*
X65528549Y-91705153D01*
X65410827Y-91987298D01*
X65386709Y-92038692D01*
X65268707Y-92267152D01*
X65137239Y-92483197D01*
X64987679Y-92692973D01*
X64815398Y-92902630D01*
X64615772Y-93118313D01*
X64450252Y-93282971D01*
X64153268Y-93569865D01*
X64231258Y-93796045D01*
X64379195Y-94270648D01*
X64497970Y-94753453D01*
X64588396Y-95249271D01*
X64651285Y-95762918D01*
X64687450Y-96299208D01*
X64695080Y-96542308D01*
X64706378Y-97079615D01*
X64620843Y-97139802D01*
X64579868Y-97168909D01*
X64513163Y-97216615D01*
X64426684Y-97278648D01*
X64326383Y-97350735D01*
X64218216Y-97428602D01*
X64173846Y-97460579D01*
X63955303Y-97617812D01*
X63766344Y-97753037D01*
X63605154Y-97867511D01*
X63469919Y-97962487D01*
X63358824Y-98039223D01*
X63270056Y-98098974D01*
X63201800Y-98142995D01*
X63152241Y-98172542D01*
X63124730Y-98186651D01*
X62968342Y-98237487D01*
X62801554Y-98257260D01*
X62703910Y-98253203D01*
X62579392Y-98239868D01*
X62524200Y-98113178D01*
X62412094Y-97899479D01*
X62273765Y-97708655D01*
X62112803Y-97542654D01*
X61932800Y-97403424D01*
X61737348Y-97292916D01*
X61530037Y-97213076D01*
X61314458Y-97165855D01*
X61094203Y-97153200D01*
X60872863Y-97177060D01*
X60820006Y-97188430D01*
X60760084Y-97207003D01*
X60678811Y-97238008D01*
X60589655Y-97276142D01*
X60547072Y-97295871D01*
X60368536Y-97399843D01*
X60221025Y-97526301D01*
X60105521Y-97674329D01*
X60064075Y-97748075D01*
X60011947Y-97866391D01*
X59978011Y-97982350D01*
X59959477Y-98109113D01*
X59953554Y-98259838D01*
X59953538Y-98269298D01*
X59970582Y-98489997D01*
X60022230Y-98710509D01*
X60109257Y-98932565D01*
X60232438Y-99157897D01*
X60392549Y-99388236D01*
X60529370Y-99556115D01*
X60585836Y-99622861D01*
X60629696Y-99677201D01*
X60656501Y-99713438D01*
X60661995Y-99725902D01*
X60637702Y-99715265D01*
X60594920Y-99690087D01*
X60578769Y-99679679D01*
X60542838Y-99656077D01*
X60479894Y-99614800D01*
X60395621Y-99559574D01*
X60295705Y-99494124D01*
X60185829Y-99422173D01*
X60129384Y-99385220D01*
X59737997Y-99118668D01*
X59358260Y-98838416D01*
X58984177Y-98539575D01*
X58609751Y-98217255D01*
X58228986Y-97866567D01*
X58021663Y-97666651D01*
X57869276Y-97515450D01*
X57708715Y-97352389D01*
X57546086Y-97183913D01*
X57387492Y-97016468D01*
X57239039Y-96856498D01*
X57106832Y-96710450D01*
X56997182Y-96585011D01*
X56844594Y-96406075D01*
X56950484Y-96359246D01*
X57273650Y-96231741D01*
X57601510Y-96131991D01*
X57930110Y-96060249D01*
X58255496Y-96016768D01*
X58573715Y-96001802D01*
X58880814Y-96015602D01*
X59172838Y-96058422D01*
X59445834Y-96130515D01*
X59602834Y-96189612D01*
X59748384Y-96251452D01*
X59670231Y-96170614D01*
X59619260Y-96124079D01*
X59547005Y-96065948D01*
X59465237Y-96005465D01*
X59421097Y-95974963D01*
X59294273Y-95898072D01*
X59164239Y-95837634D01*
X59021384Y-95790294D01*
X58856095Y-95752693D01*
X58719834Y-95730065D01*
X58590518Y-95716352D01*
X58430989Y-95707892D01*
X58249734Y-95704512D01*
X58055237Y-95706037D01*
X57855985Y-95712296D01*
X57660463Y-95723114D01*
X57477156Y-95738318D01*
X57314552Y-95757734D01*
X57306077Y-95758965D01*
X57157476Y-95782096D01*
X57008497Y-95807652D01*
X56867184Y-95834071D01*
X56741584Y-95859792D01*
X56639739Y-95883252D01*
X56577179Y-95900463D01*
X56551382Y-95907271D01*
X56526357Y-95908587D01*
X56497697Y-95901909D01*
X56460998Y-95884733D01*
X56411850Y-95854555D01*
X56345850Y-95808871D01*
X56258588Y-95745177D01*
X56145660Y-95660970D01*
X56114231Y-95637417D01*
X55771897Y-95365712D01*
X55467902Y-95092496D01*
X55201516Y-94816979D01*
X54972007Y-94538371D01*
X54778645Y-94255882D01*
X54684426Y-94093018D01*
X54645305Y-94017675D01*
X54625769Y-93971620D01*
X54624519Y-93951109D01*
X54634888Y-93950268D01*
X54801067Y-94000680D01*
X54975683Y-94047414D01*
X55162175Y-94091045D01*
X55363980Y-94132146D01*
X55584537Y-94171293D01*
X55827285Y-94209059D01*
X56095660Y-94246020D01*
X56393103Y-94282749D01*
X56723050Y-94319821D01*
X57052077Y-94354100D01*
X57311070Y-94380695D01*
X57535531Y-94404875D01*
X57729877Y-94427369D01*
X57898525Y-94448907D01*
X58045894Y-94470220D01*
X58176400Y-94492037D01*
X58294461Y-94515088D01*
X58404496Y-94540105D01*
X58510920Y-94567816D01*
X58618153Y-94598952D01*
X58713095Y-94628610D01*
X59009626Y-94741983D01*
X59279185Y-94883593D01*
X59522038Y-95053689D01*
X59738455Y-95252519D01*
X59928704Y-95480331D01*
X60093052Y-95737372D01*
X60231768Y-96023891D01*
X60237967Y-96038828D01*
X60268899Y-96111505D01*
X60289515Y-96152914D01*
X60300148Y-96161784D01*
X60301134Y-96136842D01*
X60292806Y-96076814D01*
X60275500Y-95980429D01*
X60266159Y-95931518D01*
X60197852Y-95652584D01*
X60104891Y-95391525D01*
X59989729Y-95154409D01*
X59885310Y-94988915D01*
X59750689Y-94826020D01*
X59586182Y-94671017D01*
X59400975Y-94531150D01*
X59204253Y-94413665D01*
X59083459Y-94356482D01*
X58864058Y-94273680D01*
X58612322Y-94197071D01*
X58334693Y-94128021D01*
X58037614Y-94067892D01*
X57727528Y-94018048D01*
X57410876Y-93979854D01*
X57227923Y-93963666D01*
X56791268Y-93923547D01*
X56385313Y-93872328D01*
X56011266Y-93810263D01*
X55670338Y-93737610D01*
X55363739Y-93654624D01*
X55092680Y-93561560D01*
X54871888Y-93465376D01*
X54701857Y-93374732D01*
X54554297Y-93278924D01*
X54415472Y-93168072D01*
X54276142Y-93036802D01*
X54076769Y-92809647D01*
X53906643Y-92556680D01*
X53765963Y-92278234D01*
X53683000Y-92062100D01*
X53626158Y-91893938D01*
X53727194Y-91934261D01*
X54051583Y-92061010D01*
X54351619Y-92172272D01*
X54637148Y-92271463D01*
X54918017Y-92362002D01*
X55204072Y-92447305D01*
X55213252Y-92449938D01*
X55454204Y-92516790D01*
X55677917Y-92573773D01*
X55892168Y-92622243D01*
X56104737Y-92663555D01*
X56323402Y-92699065D01*
X56555941Y-92730130D01*
X56810133Y-92758106D01*
X57093757Y-92784348D01*
X57167072Y-92790539D01*
X57445523Y-92814927D01*
X57690502Y-92839236D01*
X57907605Y-92864263D01*
X58102428Y-92890804D01*
X58280566Y-92919658D01*
X58447615Y-92951619D01*
X58609171Y-92987485D01*
X58691330Y-93007556D01*
X59038040Y-93110218D01*
X59356547Y-93237351D01*
X59650425Y-93390683D01*
X59923248Y-93571945D01*
X60030930Y-93655614D01*
X60157168Y-93758077D01*
X60091073Y-93660384D01*
X60047533Y-93597859D01*
X60001981Y-93536873D01*
X59950762Y-93473302D01*
X59918364Y-93435692D01*
X61263276Y-93435692D01*
X61263911Y-93449046D01*
X61286143Y-93484449D01*
X61325419Y-93534915D01*
X61336488Y-93548038D01*
X61507482Y-93776693D01*
X61642816Y-94021222D01*
X61731507Y-94246538D01*
X61801727Y-94426815D01*
X61883924Y-94571500D01*
X61979577Y-94682639D01*
X62090166Y-94762281D01*
X62112538Y-94773802D01*
X62148592Y-94786092D01*
X62216201Y-94804454D01*
X62308584Y-94827394D01*
X62418958Y-94853420D01*
X62540540Y-94881041D01*
X62666549Y-94908763D01*
X62790202Y-94935094D01*
X62904717Y-94958542D01*
X63003311Y-94977614D01*
X63079203Y-94990819D01*
X63125252Y-94996642D01*
X63139185Y-94992757D01*
X63140027Y-94974993D01*
X63125947Y-94937728D01*
X63095113Y-94875342D01*
X63070524Y-94828613D01*
X62908552Y-94564810D01*
X62713842Y-94318448D01*
X62490209Y-94093147D01*
X62241467Y-93892524D01*
X61971427Y-93720196D01*
X61817742Y-93640009D01*
X61736399Y-93603002D01*
X61641874Y-93563515D01*
X61542452Y-93524602D01*
X61446420Y-93489315D01*
X61362064Y-93460708D01*
X61297670Y-93441834D01*
X61263276Y-93435692D01*
X59918364Y-93435692D01*
X59890219Y-93403019D01*
X59816696Y-93321901D01*
X59726537Y-93225824D01*
X59616085Y-93110661D01*
X59481684Y-92972289D01*
X59475537Y-92965987D01*
X59292774Y-92776313D01*
X59136171Y-92608300D01*
X59002515Y-92457842D01*
X58888592Y-92320828D01*
X58791188Y-92193150D01*
X58707089Y-92070699D01*
X58633080Y-91949366D01*
X58565949Y-91825044D01*
X58536218Y-91765154D01*
X58466880Y-91615869D01*
X58415885Y-91488250D01*
X58380634Y-91370973D01*
X58358526Y-91252712D01*
X58346963Y-91122141D01*
X58343345Y-90967937D01*
X58343375Y-90925000D01*
X58344471Y-90801943D01*
X58347324Y-90708410D01*
X58352998Y-90634856D01*
X58362558Y-90571735D01*
X58377067Y-90509499D01*
X58397591Y-90438603D01*
X58397627Y-90438485D01*
X58484508Y-90197865D01*
X58595155Y-89971162D01*
X58731419Y-89756544D01*
X58895149Y-89552182D01*
X59088196Y-89356244D01*
X59312411Y-89166899D01*
X59569643Y-88982319D01*
X59861743Y-88800671D01*
X60190560Y-88620127D01*
X60283982Y-88572288D01*
X60383805Y-88522521D01*
X60493223Y-88469070D01*
X60606431Y-88414649D01*
X60717627Y-88361972D01*
X60821008Y-88313752D01*
X60910770Y-88272703D01*
X60981110Y-88241538D01*
X61026225Y-88222971D01*
X61039681Y-88218923D01*
X61032555Y-88233867D01*
G37*
%TO.C,U3*%
D11*
X62650000Y-73990000D02*
X63375000Y-73990000D01*
X62650000Y-74715000D02*
X62650000Y-73990000D01*
X62650000Y-79210000D02*
X62650000Y-78485000D01*
X63375000Y-79210000D02*
X62650000Y-79210000D01*
X67145000Y-73990000D02*
X67870000Y-73990000D01*
X67870000Y-73990000D02*
X67870000Y-74715000D01*
X67870000Y-78485000D02*
X67870000Y-79210000D01*
X67870000Y-79210000D02*
X67145000Y-79210000D01*
X64000000Y-80040000D02*
X63520000Y-80040000D01*
X63760000Y-79710000D01*
X64000000Y-80040000D01*
G36*
X64000000Y-80040000D02*
G01*
X63520000Y-80040000D01*
X63760000Y-79710000D01*
X64000000Y-80040000D01*
G37*
%TO.C,J6*%
X101240000Y-99690000D02*
X101240000Y-94500000D01*
X104000000Y-94500000D02*
X101240000Y-94500000D01*
X104000000Y-99690000D02*
X101240000Y-99690000D01*
X104000000Y-99690000D02*
X104000000Y-94500000D01*
X104000000Y-100960000D02*
X104000000Y-102340000D01*
X104000000Y-102340000D02*
X102620000Y-102340000D01*
%TO.C,C16*%
X65655000Y-82711252D02*
X65655000Y-82188748D01*
X67125000Y-82711252D02*
X67125000Y-82188748D01*
%TO.C,R11*%
X77869718Y-84170835D02*
X78190835Y-83849718D01*
X78909165Y-85210282D02*
X79230282Y-84889165D01*
%TO.C,C14*%
X95975000Y-99211252D02*
X95975000Y-98688748D01*
X97445000Y-99211252D02*
X97445000Y-98688748D01*
%TO.C,C19*%
X74320302Y-71715000D02*
X75120302Y-71715000D01*
X74720302Y-71315000D02*
X74720302Y-72115000D01*
X78730000Y-69950000D02*
X78730000Y-78110000D01*
X78770000Y-69950000D02*
X78770000Y-78110000D01*
X78810000Y-69951000D02*
X78810000Y-78109000D01*
X78850000Y-69952000D02*
X78850000Y-78108000D01*
X78890000Y-69953000D02*
X78890000Y-78107000D01*
X78930000Y-69955000D02*
X78930000Y-78105000D01*
X78970000Y-69957000D02*
X78970000Y-78103000D01*
X79010000Y-69960000D02*
X79010000Y-78100000D01*
X79050000Y-69962000D02*
X79050000Y-78098000D01*
X79090000Y-69966000D02*
X79090000Y-78094000D01*
X79130000Y-69969000D02*
X79130000Y-78091000D01*
X79170000Y-69974000D02*
X79170000Y-78086000D01*
X79210000Y-69978000D02*
X79210000Y-78082000D01*
X79250000Y-69983000D02*
X79250000Y-78077000D01*
X79290000Y-69988000D02*
X79290000Y-78072000D01*
X79330000Y-69994000D02*
X79330000Y-78066000D01*
X79370000Y-70000000D02*
X79370000Y-78060000D01*
X79410000Y-70007000D02*
X79410000Y-78053000D01*
X79450000Y-70013000D02*
X79450000Y-72990000D01*
X79450000Y-75070000D02*
X79450000Y-78047000D01*
X79490000Y-70021000D02*
X79490000Y-72990000D01*
X79490000Y-75070000D02*
X79490000Y-78039000D01*
X79530000Y-70028000D02*
X79530000Y-72990000D01*
X79530000Y-75070000D02*
X79530000Y-78032000D01*
X79570000Y-70037000D02*
X79570000Y-72990000D01*
X79570000Y-75070000D02*
X79570000Y-78023000D01*
X79610000Y-70045000D02*
X79610000Y-72990000D01*
X79610000Y-75070000D02*
X79610000Y-78015000D01*
X79650000Y-70054000D02*
X79650000Y-72990000D01*
X79650000Y-75070000D02*
X79650000Y-78006000D01*
X79690000Y-70063000D02*
X79690000Y-72990000D01*
X79690000Y-75070000D02*
X79690000Y-77997000D01*
X79730000Y-70073000D02*
X79730000Y-72990000D01*
X79730000Y-75070000D02*
X79730000Y-77987000D01*
X79770000Y-70083000D02*
X79770000Y-72990000D01*
X79770000Y-75070000D02*
X79770000Y-77977000D01*
X79810000Y-70094000D02*
X79810000Y-72990000D01*
X79810000Y-75070000D02*
X79810000Y-77966000D01*
X79850000Y-70105000D02*
X79850000Y-72990000D01*
X79850000Y-75070000D02*
X79850000Y-77955000D01*
X79890000Y-70117000D02*
X79890000Y-72990000D01*
X79890000Y-75070000D02*
X79890000Y-77943000D01*
X79930000Y-70129000D02*
X79930000Y-72990000D01*
X79930000Y-75070000D02*
X79930000Y-77931000D01*
X79970000Y-70141000D02*
X79970000Y-72990000D01*
X79970000Y-75070000D02*
X79970000Y-77919000D01*
X80010000Y-70154000D02*
X80010000Y-72990000D01*
X80010000Y-75070000D02*
X80010000Y-77906000D01*
X80050000Y-70167000D02*
X80050000Y-72990000D01*
X80050000Y-75070000D02*
X80050000Y-77893000D01*
X80090000Y-70181000D02*
X80090000Y-72990000D01*
X80090000Y-75070000D02*
X80090000Y-77879000D01*
X80130000Y-70195000D02*
X80130000Y-72990000D01*
X80130000Y-75070000D02*
X80130000Y-77865000D01*
X80170000Y-70210000D02*
X80170000Y-72990000D01*
X80170000Y-75070000D02*
X80170000Y-77850000D01*
X80210000Y-70225000D02*
X80210000Y-72990000D01*
X80210000Y-75070000D02*
X80210000Y-77835000D01*
X80250000Y-70241000D02*
X80250000Y-72990000D01*
X80250000Y-75070000D02*
X80250000Y-77819000D01*
X80290000Y-70257000D02*
X80290000Y-72990000D01*
X80290000Y-75070000D02*
X80290000Y-77803000D01*
X80330000Y-70273000D02*
X80330000Y-72990000D01*
X80330000Y-75070000D02*
X80330000Y-77787000D01*
X80370000Y-70290000D02*
X80370000Y-72990000D01*
X80370000Y-75070000D02*
X80370000Y-77770000D01*
X80410000Y-70308000D02*
X80410000Y-72990000D01*
X80410000Y-75070000D02*
X80410000Y-77752000D01*
X80450000Y-70326000D02*
X80450000Y-72990000D01*
X80450000Y-75070000D02*
X80450000Y-77734000D01*
X80490000Y-70345000D02*
X80490000Y-72990000D01*
X80490000Y-75070000D02*
X80490000Y-77715000D01*
X80530000Y-70364000D02*
X80530000Y-72990000D01*
X80530000Y-75070000D02*
X80530000Y-77696000D01*
X80570000Y-70384000D02*
X80570000Y-72990000D01*
X80570000Y-75070000D02*
X80570000Y-77676000D01*
X80610000Y-70404000D02*
X80610000Y-72990000D01*
X80610000Y-75070000D02*
X80610000Y-77656000D01*
X80650000Y-70425000D02*
X80650000Y-72990000D01*
X80650000Y-75070000D02*
X80650000Y-77635000D01*
X80690000Y-70446000D02*
X80690000Y-72990000D01*
X80690000Y-75070000D02*
X80690000Y-77614000D01*
X80730000Y-70468000D02*
X80730000Y-72990000D01*
X80730000Y-75070000D02*
X80730000Y-77592000D01*
X80770000Y-70491000D02*
X80770000Y-72990000D01*
X80770000Y-75070000D02*
X80770000Y-77569000D01*
X80810000Y-70514000D02*
X80810000Y-72990000D01*
X80810000Y-75070000D02*
X80810000Y-77546000D01*
X80850000Y-70537000D02*
X80850000Y-72990000D01*
X80850000Y-75070000D02*
X80850000Y-77523000D01*
X80890000Y-70562000D02*
X80890000Y-72990000D01*
X80890000Y-75070000D02*
X80890000Y-77498000D01*
X80930000Y-70587000D02*
X80930000Y-72990000D01*
X80930000Y-75070000D02*
X80930000Y-77473000D01*
X80970000Y-70612000D02*
X80970000Y-72990000D01*
X80970000Y-75070000D02*
X80970000Y-77448000D01*
X81010000Y-70638000D02*
X81010000Y-72990000D01*
X81010000Y-75070000D02*
X81010000Y-77422000D01*
X81050000Y-70665000D02*
X81050000Y-72990000D01*
X81050000Y-75070000D02*
X81050000Y-77395000D01*
X81090000Y-70693000D02*
X81090000Y-72990000D01*
X81090000Y-75070000D02*
X81090000Y-77367000D01*
X81130000Y-70721000D02*
X81130000Y-72990000D01*
X81130000Y-75070000D02*
X81130000Y-77339000D01*
X81170000Y-70750000D02*
X81170000Y-72990000D01*
X81170000Y-75070000D02*
X81170000Y-77310000D01*
X81210000Y-70780000D02*
X81210000Y-72990000D01*
X81210000Y-75070000D02*
X81210000Y-77280000D01*
X81250000Y-70811000D02*
X81250000Y-72990000D01*
X81250000Y-75070000D02*
X81250000Y-77249000D01*
X81290000Y-70842000D02*
X81290000Y-72990000D01*
X81290000Y-75070000D02*
X81290000Y-77218000D01*
X81330000Y-70874000D02*
X81330000Y-72990000D01*
X81330000Y-75070000D02*
X81330000Y-77186000D01*
X81370000Y-70907000D02*
X81370000Y-72990000D01*
X81370000Y-75070000D02*
X81370000Y-77153000D01*
X81410000Y-70941000D02*
X81410000Y-72990000D01*
X81410000Y-75070000D02*
X81410000Y-77119000D01*
X81450000Y-70975000D02*
X81450000Y-72990000D01*
X81450000Y-75070000D02*
X81450000Y-77085000D01*
X81490000Y-71011000D02*
X81490000Y-72990000D01*
X81490000Y-75070000D02*
X81490000Y-77049000D01*
X81530000Y-71048000D02*
X81530000Y-77012000D01*
X81570000Y-71085000D02*
X81570000Y-76975000D01*
X81610000Y-71124000D02*
X81610000Y-76936000D01*
X81650000Y-71163000D02*
X81650000Y-76897000D01*
X81690000Y-71204000D02*
X81690000Y-76856000D01*
X81730000Y-71246000D02*
X81730000Y-76814000D01*
X81770000Y-71289000D02*
X81770000Y-76771000D01*
X81810000Y-71334000D02*
X81810000Y-76726000D01*
X81850000Y-71379000D02*
X81850000Y-76681000D01*
X81890000Y-71426000D02*
X81890000Y-76634000D01*
X81930000Y-71475000D02*
X81930000Y-76585000D01*
X81970000Y-71525000D02*
X81970000Y-76535000D01*
X82010000Y-71577000D02*
X82010000Y-76483000D01*
X82050000Y-71630000D02*
X82050000Y-76430000D01*
X82090000Y-71686000D02*
X82090000Y-76374000D01*
X82130000Y-71743000D02*
X82130000Y-76317000D01*
X82170000Y-71803000D02*
X82170000Y-76257000D01*
X82210000Y-71865000D02*
X82210000Y-76195000D01*
X82250000Y-71929000D02*
X82250000Y-76131000D01*
X82290000Y-71996000D02*
X82290000Y-76064000D01*
X82330000Y-72066000D02*
X82330000Y-75994000D01*
X82370000Y-72140000D02*
X82370000Y-75920000D01*
X82410000Y-72217000D02*
X82410000Y-75843000D01*
X82450000Y-72299000D02*
X82450000Y-75761000D01*
X82490000Y-72386000D02*
X82490000Y-75674000D01*
X82530000Y-72478000D02*
X82530000Y-75582000D01*
X82570000Y-72577000D02*
X82570000Y-75483000D01*
X82610000Y-72684000D02*
X82610000Y-75376000D01*
X82650000Y-72802000D02*
X82650000Y-75258000D01*
X82690000Y-72933000D02*
X82690000Y-75127000D01*
X82730000Y-73083000D02*
X82730000Y-74977000D01*
X82770000Y-73262000D02*
X82770000Y-74798000D01*
X82810000Y-73497000D02*
X82810000Y-74563000D01*
X82850000Y-74030000D02*
G75*
G02*
X74610000Y-74030000I-4120000J0D01*
G01*
X74610000Y-74030000D02*
G75*
G02*
X82850000Y-74030000I4120000J0D01*
G01*
%TO.C,C6*%
X90738748Y-86265000D02*
X91261252Y-86265000D01*
X90738748Y-87735000D02*
X91261252Y-87735000D01*
%TO.C,R1*%
X68174204Y-96123849D02*
X68495321Y-95802732D01*
X69213651Y-97163296D02*
X69534768Y-96842179D01*
%TO.C,C13*%
X96335000Y-89168748D02*
X96335000Y-89691252D01*
X97805000Y-89168748D02*
X97805000Y-89691252D01*
%TO.C,C4*%
X82821508Y-96532706D02*
X82452041Y-96163239D01*
X83860955Y-95493259D02*
X83491488Y-95123792D01*
%TD*%
M02*
